CantataOne.ufo
<glyph name="exclam" format="1">
  <advance width="852"/>
  <unicode hex="0021"/>
  <outline>
    <contour>
      <point x="473" y="447" type="line" name="hr00"/>
      <point x="379" y="447" type="line"/>
      <point x="268" y="1489" type="line" smooth="yes"/>
      <point x="267" y="1496"/>
      <point x="265" y="1517"/>
      <point x="265" y="1523" type="curve" smooth="yes"/>
      <point x="265" y="1616"/>
      <point x="341" y="1685"/>
      <point x="426" y="1685" type="curve" smooth="yes"/>
      <point x="511" y="1685"/>
      <point x="587" y="1616"/>
      <point x="587" y="1523" type="curve" smooth="yes"/>
      <point x="587" y="1517"/>
      <point x="585" y="1496"/>
      <point x="584" y="1489" type="curve" smooth="yes"/>
    </contour>
    <contour>
      <point x="426" y="-18" type="curve" smooth="yes"/>
      <point x="336" y="-18"/>
      <point x="267" y="51"/>
      <point x="267" y="141" type="curve" smooth="yes"/>
      <point x="267" y="232"/>
      <point x="336" y="302"/>
      <point x="426" y="302" type="curve" smooth="yes"/>
      <point x="517" y="302"/>
      <point x="586" y="232"/>
      <point x="586" y="141" type="curve" smooth="yes"/>
      <point x="586" y="51"/>
      <point x="517" y="-18"/>
    </contour>
  </outline>
</glyph>
<glyph name="numbersign" format="1">
  <advance width="1707"/>
  <unicode hex="0023"/>
  <outline>
    <contour>
      <point x="335" y="-69" type="line" name="hr00"/>
      <point x="469" y="-102" type="line"/>
      <point x="904" y="1521" type="line"/>
      <point x="770" y="1554" type="line"/>
    </contour>
    <contour>
      <point x="783" y="-69" type="line"/>
      <point x="917" y="-102" type="line"/>
      <point x="1352" y="1521" type="line"/>
      <point x="1218" y="1554" type="line"/>
    </contour>
    <contour>
      <point x="1506" y="902" type="line"/>
      <point x="1506" y="1020" type="line"/>
      <point x="271" y="1020" type="line"/>
      <point x="271" y="902" type="line"/>
    </contour>
    <contour>
      <point x="1436" y="392" type="line"/>
      <point x="1436" y="510" type="line"/>
      <point x="201" y="510" type="line"/>
      <point x="201" y="392" type="line"/>
    </contour>
  </outline>
</glyph>
<glyph name="dollar" format="1">
  <advance width="1366"/>
  <unicode hex="0024"/>
  <outline>
    <contour>
      <point x="617" y="-170" type="line" name="hr01"/>
      <point x="739" y="1596" type="line"/>
      <point x="660" y="1596" type="line"/>
      <point x="538" y="-170" type="line"/>
    </contour>
    <contour>
      <point x="261" y="180" type="line"/>
      <point x="294" y="84"/>
      <point x="504" y="-20"/>
      <point x="743" y="-20" type="curve" smooth="yes"/>
      <point x="1014" y="-20"/>
      <point x="1252" y="127"/>
      <point x="1252" y="401" type="curve" smooth="yes" name="hr02"/>
      <point x="1252" y="573"/>
      <point x="1151" y="681"/>
      <point x="817" y="802" type="curve"/>
      <point x="459" y="948"/>
      <point x="390" y="1018"/>
      <point x="390" y="1146" type="curve" smooth="yes"/>
      <point x="390" y="1257"/>
      <point x="529" y="1327"/>
      <point x="707" y="1327" type="curve" smooth="yes"/>
      <point x="890" y="1327"/>
      <point x="1065" y="1229"/>
      <point x="1087" y="1018" type="curve" name="hr03"/>
      <point x="1183" y="1018" type="line"/>
      <point x="1183" y="1390" type="line" name="hr04"/>
      <point x="1090" y="1390" type="line"/>
      <point x="1089" y="1333"/>
      <point x="1049" y="1285"/>
      <point x="1011" y="1273" type="curve"/>
      <point x="1087" y="1290" type="line"/>
      <point x="1038" y="1351"/>
      <point x="908" y="1410"/>
      <point x="718" y="1410" type="curve" smooth="yes" name="hr05"/>
      <point x="426" y="1410"/>
      <point x="188" y="1269"/>
      <point x="188" y="1028" type="curve" smooth="yes"/>
      <point x="188" y="827"/>
      <point x="284" y="681"/>
      <point x="679" y="548" type="curve"/>
      <point x="1000" y="443"/>
      <point x="1058" y="367"/>
      <point x="1058" y="249" type="curve" smooth="yes"/>
      <point x="1058" y="126"/>
      <point x="918" y="63"/>
      <point x="741" y="63" type="curve" smooth="yes"/>
      <point x="503" y="63"/>
      <point x="331" y="207"/>
      <point x="280" y="408" type="curve"/>
      <point x="177" y="408" type="line" name="hr06"/>
      <point x="177" y="0" type="line"/>
      <point x="266" y="0" type="line"/>
      <point x="267" y="53"/>
      <point x="296" y="124"/>
      <point x="334" y="135" type="curve"/>
    </contour>
    <contour>
      <point x="787" y="-170" type="line"/>
      <point x="909" y="1596" type="line"/>
      <point x="830" y="1596" type="line"/>
      <point x="708" y="-170" type="line"/>
    </contour>
  </outline>
</glyph>
<glyph name="percent" format="1">
  <advance width="1877"/>
  <unicode hex="0025"/>
  <outline>
    <contour>
      <point x="198" y="1189" type="curve" smooth="yes" name="hr00"/>
      <point x="198" y="968"/>
      <point x="342" y="823"/>
      <point x="522" y="823" type="curve" smooth="yes"/>
      <point x="709" y="823"/>
      <point x="845" y="968"/>
      <point x="845" y="1189" type="curve" smooth="yes"/>
      <point x="845" y="1411"/>
      <point x="707" y="1559"/>
      <point x="522" y="1559" type="curve" smooth="yes"/>
      <point x="346" y="1559"/>
      <point x="198" y="1411"/>
    </contour>
    <contour>
      <point x="378" y="1189" type="curve" smooth="yes"/>
      <point x="378" y="1356"/>
      <point x="405" y="1483"/>
      <point x="522" y="1483" type="curve" smooth="yes"/>
      <point x="638" y="1483"/>
      <point x="667" y="1356"/>
      <point x="667" y="1189" type="curve" smooth="yes"/>
      <point x="667" y="1031"/>
      <point x="638" y="897"/>
      <point x="522" y="897" type="curve" smooth="yes"/>
      <point x="405" y="897"/>
      <point x="378" y="1031"/>
    </contour>
    <contour>
      <point x="1032" y="345" type="curve" smooth="yes"/>
      <point x="1032" y="124"/>
      <point x="1176" y="-21"/>
      <point x="1356" y="-21" type="curve" smooth="yes"/>
      <point x="1543" y="-21"/>
      <point x="1679" y="124"/>
      <point x="1679" y="345" type="curve" smooth="yes"/>
      <point x="1679" y="567"/>
      <point x="1541" y="715"/>
      <point x="1356" y="715" type="curve" smooth="yes"/>
      <point x="1180" y="715"/>
      <point x="1032" y="567"/>
    </contour>
    <contour>
      <point x="1212" y="345" type="curve" smooth="yes"/>
      <point x="1212" y="512"/>
      <point x="1239" y="640"/>
      <point x="1356" y="640" type="curve" smooth="yes"/>
      <point x="1472" y="640"/>
      <point x="1501" y="512"/>
      <point x="1501" y="345" type="curve" smooth="yes"/>
      <point x="1501" y="187"/>
      <point x="1472" y="53"/>
      <point x="1356" y="53" type="curve" smooth="yes"/>
      <point x="1239" y="53"/>
      <point x="1212" y="187"/>
    </contour>
    <component base="fraction" xOffset="63"/>
  </outline>
</glyph>
<glyph name="ampersand" format="1">
  <advance width="1708"/>
  <unicode hex="0026"/>
  <outline>
    <contour>
      <point x="579" y="830" type="line" name="hr01"/>
      <point x="412" y="814"/>
      <point x="144" y="678"/>
      <point x="144" y="396" type="curve" smooth="yes"/>
      <point x="144" y="136"/>
      <point x="407" y="-20"/>
      <point x="740" y="-20" type="curve" smooth="yes"/>
      <point x="1120" y="-20"/>
      <point x="1368" y="300"/>
      <point x="1368" y="800" type="curve"/>
      <point x="1266" y="799" type="line"/>
      <point x="1276" y="341"/>
      <point x="1053" y="75"/>
      <point x="765" y="75" type="curve" smooth="yes"/>
      <point x="523" y="75"/>
      <point x="386" y="228"/>
      <point x="386" y="412" type="curve" smooth="yes"/>
      <point x="386" y="615"/>
      <point x="527" y="752"/>
      <point x="611" y="777" type="curve"/>
    </contour>
    <contour>
      <point x="1093" y="847" type="line"/>
      <point x="1093" y="769" type="line"/>
      <point x="1527" y="769" type="line"/>
      <point x="1527" y="847" type="line"/>
    </contour>
    <contour>
      <point x="864" y="1268" type="curve" smooth="yes"/>
      <point x="864" y="1193"/>
      <point x="927" y="1130"/>
      <point x="1002" y="1130" type="curve" smooth="yes"/>
      <point x="1078" y="1130"/>
      <point x="1142" y="1193"/>
      <point x="1142" y="1268" type="curve" smooth="yes"/>
      <point x="1142" y="1344"/>
      <point x="1078" y="1408"/>
      <point x="1002" y="1408" type="curve" smooth="yes"/>
      <point x="927" y="1408"/>
      <point x="864" y="1344"/>
    </contour>
    <contour>
      <point x="758" y="1452" type="curve" smooth="yes" name="hr02"/>
      <point x="892" y="1452"/>
      <point x="942" y="1405"/>
      <point x="969" y="1367" type="curve"/>
      <point x="1001" y="1408" type="line"/>
      <point x="1140" y="1276" type="line"/>
      <point x="1140" y="1436"/>
      <point x="968" y="1529"/>
      <point x="762" y="1529" type="curve"/>
      <point x="552" y="1529"/>
      <point x="308" y="1416"/>
      <point x="308" y="1164" type="curve" smooth="yes"/>
      <point x="308" y="964"/>
      <point x="499" y="777"/>
      <point x="706" y="556" type="curve" smooth="yes"/>
      <point x="992" y="249"/>
      <point x="1173" y="-20"/>
      <point x="1436" y="-20" type="curve" smooth="yes"/>
      <point x="1567" y="-20"/>
      <point x="1655" y="30"/>
      <point x="1704" y="91" type="curve"/>
      <point x="1667" y="142" type="line"/>
      <point x="1660" y="138"/>
      <point x="1629" y="117"/>
      <point x="1592" y="117" type="curve" smooth="yes"/>
      <point x="1413" y="117"/>
      <point x="1249" y="314"/>
      <point x="919" y="677" type="curve" smooth="yes"/>
      <point x="753" y="854"/>
      <point x="543" y="1080"/>
      <point x="543" y="1248" type="curve" smooth="yes"/>
      <point x="543" y="1372"/>
      <point x="627" y="1452"/>
    </contour>
  </outline>
</glyph>
<glyph name="quotesingle" format="1">
  <advance width="855"/>
  <unicode hex="0027"/>
  <outline>
    <contour>
      <point x="301" y="1559" type="line" name="hr00"/>
      <point x="290" y="1623"/>
      <point x="354" y="1684"/>
      <point x="432" y="1684" type="curve" smooth="yes"/>
      <point x="494" y="1684"/>
      <point x="568" y="1637"/>
      <point x="552" y="1556" type="curve" smooth="yes"/>
      <point x="463" y="1020" type="line"/>
      <point x="385" y="1020" type="line"/>
    </contour>
  </outline>
</glyph>
<glyph name="parenleft" format="1">
  <advance width="1024"/>
  <unicode hex="0028"/>
  <outline>
    <contour>
      <point x="276" y="601" type="curve" smooth="yes" name="hr00"/>
      <point x="276" y="34"/>
      <point x="612" y="-384"/>
      <point x="975" y="-560" type="curve"/>
      <point x="1023" y="-503" type="line"/>
      <point x="630" y="-253"/>
      <point x="511" y="190"/>
      <point x="511" y="601" type="curve" smooth="yes"/>
      <point x="511" y="1055"/>
      <point x="630" y="1433"/>
      <point x="1023" y="1709" type="curve"/>
      <point x="975" y="1765" type="line"/>
      <point x="612" y="1563"/>
      <point x="276" y="1242"/>
    </contour>
  </outline>
</glyph>
<glyph name="asterisk" format="1">
  <advance width="1193"/>
  <unicode hex="002A"/>
  <outline>
    <contour>
      <point x="372" y="843" type="curve" smooth="yes" name="hr00"/>
      <point x="310" y="843"/>
      <point x="278" y="896"/>
      <point x="278" y="946" type="curve" smooth="yes"/>
      <point x="278" y="981"/>
      <point x="293" y="1003"/>
      <point x="323" y="1029" type="curve" smooth="yes"/>
      <point x="543" y="1208" type="line"/>
      <point x="238" y="1251" type="line" smooth="yes"/>
      <point x="174" y="1260"/>
      <point x="147" y="1318"/>
      <point x="147" y="1357" type="curve" smooth="yes"/>
      <point x="147" y="1413"/>
      <point x="197" y="1454"/>
      <point x="249" y="1454" type="curve" smooth="yes"/>
      <point x="271" y="1454"/>
      <point x="290" y="1447"/>
      <point x="313" y="1431" type="curve" smooth="yes"/>
      <point x="562" y="1267" type="line"/>
      <point x="500" y="1582" type="line"/>
      <point x="501" y="1581" type="line" smooth="yes"/>
      <point x="499" y="1589"/>
      <point x="498" y="1596"/>
      <point x="498" y="1603" type="curve" smooth="yes"/>
      <point x="498" y="1662"/>
      <point x="555" y="1704"/>
      <point x="598" y="1704" type="curve" smooth="yes"/>
      <point x="656" y="1704"/>
      <point x="700" y="1651"/>
      <point x="700" y="1604" type="curve" smooth="yes"/>
      <point x="700" y="1591"/>
      <point x="698" y="1580"/>
      <point x="695" y="1567" type="curve" smooth="yes"/>
      <point x="626" y="1266" type="line"/>
      <point x="893" y="1434" type="line" smooth="yes"/>
      <point x="909" y="1443"/>
      <point x="926" y="1448"/>
      <point x="943" y="1448" type="curve" smooth="yes"/>
      <point x="1005" y="1448"/>
      <point x="1046" y="1395"/>
      <point x="1046" y="1349" type="curve" smooth="yes"/>
      <point x="1046" y="1280"/>
      <point x="994" y="1251"/>
      <point x="940" y="1244" type="curve" smooth="yes"/>
      <point x="645" y="1206" type="line"/>
      <point x="876" y="1013" type="line" smooth="yes"/>
      <point x="900" y="993"/>
      <point x="908" y="965"/>
      <point x="908" y="940" type="curve" smooth="yes"/>
      <point x="908" y="871"/>
      <point x="858" y="837"/>
      <point x="809" y="837" type="curve" smooth="yes"/>
      <point x="753" y="837"/>
      <point x="729" y="871"/>
      <point x="710" y="911" type="curve" smooth="yes"/>
      <point x="592" y="1171" type="line"/>
      <point x="470" y="902" type="line" smooth="yes"/>
      <point x="449" y="856"/>
      <point x="410" y="843"/>
    </contour>
  </outline>
</glyph>
<glyph name="plus" format="1">
  <advance width="1536"/>
  <unicode hex="002B"/>
  <outline>
    <contour>
      <point x="270" y="645" type="line" name="hr00"/>
      <point x="270" y="545" type="line"/>
      <point x="1266" y="545" type="line"/>
      <point x="1266" y="645" type="line"/>
    </contour>
    <contour>
      <point x="716" y="98" type="line"/>
      <point x="820" y="98" type="line"/>
      <point x="820" y="1114" type="line"/>
      <point x="716" y="1114" type="line"/>
    </contour>
  </outline>
</glyph>
<glyph name="comma" format="1">
  <advance width="683"/>
  <unicode hex="002C"/>
  <outline>
    <contour>
      <point x="275" y="-351" type="line" name="hr00"/>
      <point x="375" y="-287"/>
      <point x="513" y="-69"/>
      <point x="513" y="104" type="curve" smooth="yes"/>
      <point x="513" y="246"/>
      <point x="436" y="310"/>
      <point x="346" y="310" type="curve" smooth="yes"/>
      <point x="260" y="310"/>
      <point x="184" y="246"/>
      <point x="184" y="159" type="curve" smooth="yes"/>
      <point x="184" y="61"/>
      <point x="264" y="-2"/>
      <point x="349" y="-2" type="curve" smooth="yes"/>
      <point x="410" y="-2"/>
      <point x="429" y="52"/>
      <point x="437" y="67" type="curve"/>
      <point x="347" y="56" type="line"/>
      <point x="363" y="-75"/>
      <point x="298" y="-252"/>
      <point x="223" y="-313" type="curve"/>
    </contour>
  </outline>
</glyph>
<glyph name="slash" format="1">
  <advance width="1025"/>
  <unicode hex="002F"/>
  <outline>
    <contour>
      <point x="6" y="-554" type="line" name="hr00"/>
      <point x="164" y="-554" type="line"/>
      <point x="1019" y="1683" type="line"/>
      <point x="862" y="1683" type="line"/>
    </contour>
  </outline>
</glyph>
<glyph name="zero" format="1">
  <advance width="1537"/>
  <unicode hex="0030"/>
  <outline>
    <contour>
      <point x="142" y="761" type="curve" smooth="yes" name="hr00"/>
      <point x="142" y="288"/>
      <point x="420" y="-20"/>
      <point x="768" y="-20" type="curve" smooth="yes"/>
      <point x="1128" y="-20"/>
      <point x="1395" y="288"/>
      <point x="1395" y="761" type="curve" smooth="yes"/>
      <point x="1395" y="1234"/>
      <point x="1126" y="1550"/>
      <point x="768" y="1550" type="curve" smooth="yes"/>
      <point x="422" y="1550"/>
      <point x="142" y="1234"/>
    </contour>
    <contour>
      <point x="439" y="761" type="curve" smooth="yes"/>
      <point x="439" y="1171"/>
      <point x="500" y="1467"/>
      <point x="768" y="1467" type="curve" smooth="yes"/>
      <point x="1035" y="1467"/>
      <point x="1099" y="1171"/>
      <point x="1099" y="761" type="curve" smooth="yes"/>
      <point x="1099" y="378"/>
      <point x="1035" y="63"/>
      <point x="768" y="63" type="curve" smooth="yes"/>
      <point x="500" y="63"/>
      <point x="439" y="378"/>
    </contour>
  </outline>
</glyph>
<glyph name="one" format="1">
  <advance width="1024"/>
  <unicode hex="0031"/>
  <outline>
    <contour>
      <point x="204" y="0" type="line" name="hr00"/>
      <point x="827" y="0" type="line"/>
      <point x="827" y="78" type="line"/>
      <point x="648" y="78" type="line"/>
      <point x="648" y="1554" type="line"/>
      <point x="210" y="1507" type="line"/>
      <point x="210" y="1430" type="line"/>
      <point x="382" y="1446" type="line"/>
      <point x="382" y="78" type="line"/>
      <point x="204" y="78" type="line"/>
    </contour>
  </outline>
</glyph>
<glyph name="two" format="1">
  <advance width="1366"/>
  <unicode hex="0032"/>
  <outline>
    <contour>
      <point x="890" y="1146" type="curve" smooth="yes" name="hr01"/>
      <point x="890" y="731"/>
      <point x="411" y="297"/>
      <point x="150" y="89" type="curve"/>
      <point x="150" y="0" type="line"/>
      <point x="1197" y="0" type="line" name="hr02"/>
      <point x="1197" y="388" type="line"/>
      <point x="1123" y="388" type="line"/>
      <point x="1113" y="331"/>
      <point x="1086" y="225"/>
      <point x="984" y="225" type="curve" smooth="yes"/>
      <point x="407" y="225" type="line"/>
      <point x="403" y="195" type="line" name="hr03"/>
      <point x="741" y="436"/>
      <point x="1175" y="781"/>
      <point x="1175" y="1143" type="curve" smooth="yes"/>
      <point x="1175" y="1422"/>
      <point x="954" y="1550"/>
      <point x="664" y="1550" type="curve" smooth="yes"/>
      <point x="393" y="1550"/>
      <point x="156" y="1390"/>
      <point x="156" y="1213" type="curve" smooth="yes"/>
      <point x="156" y="1116"/>
      <point x="222" y="1056"/>
      <point x="307" y="1056" type="curve" smooth="yes"/>
      <point x="387" y="1056"/>
      <point x="454" y="1115"/>
      <point x="454" y="1196" type="curve" smooth="yes"/>
      <point x="454" y="1266"/>
      <point x="396" y="1340"/>
      <point x="299" y="1331" type="curve"/>
      <point x="317" y="1307" type="line"/>
      <point x="373" y="1407"/>
      <point x="475" y="1470"/>
      <point x="617" y="1470" type="curve" smooth="yes"/>
      <point x="758" y="1470"/>
      <point x="890" y="1400"/>
    </contour>
  </outline>
</glyph>
<glyph name="three" format="1">
  <advance width="1366"/>
  <unicode hex="0033"/>
  <outline>
    <contour>
      <point x="162" y="278" type="curve" smooth="yes" name="hr01"/>
      <point x="162" y="93"/>
      <point x="383" y="-20"/>
      <point x="613" y="-20" type="curve" smooth="yes"/>
      <point x="969" y="-20"/>
      <point x="1232" y="150"/>
      <point x="1232" y="451" type="curve" smooth="yes"/>
      <point x="1232" y="674"/>
      <point x="1028" y="821"/>
      <point x="740" y="821" type="curve"/>
      <point x="710" y="809" type="line"/>
      <point x="978" y="822"/>
      <point x="1145" y="1008"/>
      <point x="1145" y="1195" type="curve" smooth="yes" name="hr02"/>
      <point x="1145" y="1404"/>
      <point x="981" y="1550"/>
      <point x="654" y="1550" type="curve" smooth="yes"/>
      <point x="448" y="1550"/>
      <point x="189" y="1422"/>
      <point x="189" y="1257" type="curve" smooth="yes"/>
      <point x="189" y="1192"/>
      <point x="228" y="1107"/>
      <point x="334" y="1107" type="curve" smooth="yes"/>
      <point x="415" y="1107"/>
      <point x="477" y="1172"/>
      <point x="477" y="1253" type="curve" smooth="yes"/>
      <point x="477" y="1323"/>
      <point x="420" y="1403"/>
      <point x="317" y="1394" type="curve"/>
      <point x="350" y="1370" type="line"/>
      <point x="404" y="1442"/>
      <point x="510" y="1467"/>
      <point x="606" y="1467" type="curve" smooth="yes"/>
      <point x="768" y="1467"/>
      <point x="869" y="1383"/>
      <point x="869" y="1185" type="curve" smooth="yes"/>
      <point x="869" y="984"/>
      <point x="737" y="824"/>
      <point x="471" y="823" type="curve" name="hr03"/>
      <point x="471" y="730" type="line"/>
      <point x="728" y="791"/>
      <point x="953" y="633"/>
      <point x="953" y="398" type="curve" smooth="yes" name="hr04"/>
      <point x="953" y="214"/>
      <point x="856" y="63"/>
      <point x="628" y="63" type="curve" smooth="yes"/>
      <point x="444" y="63"/>
      <point x="401" y="98"/>
      <point x="331" y="156" type="curve"/>
      <point x="317" y="131" type="line"/>
      <point x="405" y="139"/>
      <point x="455" y="210"/>
      <point x="455" y="278" type="curve" smooth="yes"/>
      <point x="455" y="358"/>
      <point x="390" y="424"/>
      <point x="308" y="424" type="curve" smooth="yes"/>
      <point x="227" y="424"/>
      <point x="162" y="359"/>
    </contour>
  </outline>
</glyph>
<glyph name="four" format="1">
  <advance width="1366"/>
  <unicode hex="0034"/>
  <outline>
    <contour>
      <point x="40" y="466" type="line" name="hr00"/>
      <point x="40" y="399" type="line"/>
      <point x="737" y="399" type="line"/>
      <point x="737" y="78" type="line"/>
      <point x="469" y="78" type="line"/>
      <point x="469" y="0" type="line"/>
      <point x="1232" y="0" type="line"/>
      <point x="1232" y="78" type="line"/>
      <point x="1003" y="78" type="line"/>
      <point x="1003" y="399" type="line"/>
      <point x="1315" y="399" type="line"/>
      <point x="1317" y="485" type="line"/>
      <point x="1003" y="485" type="line"/>
      <point x="1003" y="1530" type="line"/>
      <point x="816" y="1530" type="line"/>
    </contour>
    <contour>
      <point x="92" y="485" type="line"/>
      <point x="163" y="465" type="line"/>
      <point x="866" y="1447" type="line"/>
      <point x="737" y="1360" type="line"/>
      <point x="737" y="485" type="line"/>
    </contour>
  </outline>
</glyph>
<glyph name="five" format="1">
  <advance width="1365"/>
  <unicode hex="0035"/>
  <outline>
    <contour>
      <point x="887" y="1315" type="line" smooth="yes" name="hr00"/>
      <point x="997" y="1315"/>
      <point x="1039" y="1288"/>
      <point x="1048" y="1211" type="curve"/>
      <point x="1050" y="1195"/>
      <point x="1052" y="1166"/>
      <point x="1054" y="1148" type="curve"/>
      <point x="1132" y="1148" type="line"/>
      <point x="1183" y="1530" type="line"/>
      <point x="306" y="1530" type="line"/>
      <point x="252" y="761" type="line"/>
      <point x="373" y="821"/>
      <point x="487" y="854"/>
      <point x="626" y="854" type="curve" smooth="yes"/>
      <point x="818" y="854"/>
      <point x="956" y="712"/>
      <point x="956" y="472" type="curve" smooth="yes"/>
      <point x="956" y="303"/>
      <point x="897" y="60"/>
      <point x="600" y="60" type="curve" smooth="yes"/>
      <point x="461" y="60"/>
      <point x="399" y="89"/>
      <point x="347" y="135" type="curve"/>
      <point x="418" y="154"/>
      <point x="458" y="217"/>
      <point x="458" y="278" type="curve" smooth="yes"/>
      <point x="458" y="358"/>
      <point x="393" y="424"/>
      <point x="311" y="424" type="curve" smooth="yes"/>
      <point x="230" y="424"/>
      <point x="165" y="359"/>
      <point x="165" y="278" type="curve" smooth="yes"/>
      <point x="165" y="93"/>
      <point x="391" y="-20"/>
      <point x="610" y="-20" type="curve" smooth="yes"/>
      <point x="963" y="-20"/>
      <point x="1225" y="170"/>
      <point x="1225" y="503" type="curve" smooth="yes"/>
      <point x="1225" y="776"/>
      <point x="1040" y="971"/>
      <point x="704" y="971" type="curve" smooth="yes"/>
      <point x="568" y="971"/>
      <point x="381" y="911"/>
      <point x="319" y="841" type="curve"/>
      <point x="353" y="826" type="line"/>
      <point x="394" y="1315" type="line"/>
    </contour>
  </outline>
</glyph>
<glyph name="six" format="1">
  <advance width="1365"/>
  <unicode hex="0036"/>
  <outline>
    <contour>
      <point x="728" y="881" type="curve" smooth="yes" name="hr01"/>
      <point x="921" y="881"/>
      <point x="1003" y="718"/>
      <point x="1003" y="480" type="curve" smooth="yes"/>
      <point x="1003" y="228"/>
      <point x="893" y="63"/>
      <point x="711" y="63" type="curve" smooth="yes"/>
      <point x="487" y="63"/>
      <point x="392" y="344"/>
      <point x="392" y="727" type="curve" name="hr02"/>
      <point x="375" y="646" type="line" name="hr03"/>
      <point x="451" y="787"/>
      <point x="581" y="881"/>
    </contour>
    <contour>
      <point x="892" y="1323" type="curve" name="hr04"/>
      <point x="892" y="1248"/>
      <point x="945" y="1180"/>
      <point x="1030" y="1180" type="curve" smooth="yes"/>
      <point x="1116" y="1180"/>
      <point x="1166" y="1241"/>
      <point x="1166" y="1326" type="curve" smooth="yes"/>
      <point x="1166" y="1402"/>
      <point x="1096" y="1450"/>
      <point x="1020" y="1450" type="curve" smooth="yes"/>
      <point x="945" y="1450"/>
      <point x="892" y="1399"/>
    </contour>
    <contour>
      <point x="781" y="1479" type="curve" smooth="yes" name="hr05"/>
      <point x="897" y="1479"/>
      <point x="940" y="1445"/>
      <point x="969" y="1407" type="curve"/>
      <point x="1021" y="1452" type="line"/>
      <point x="1166" y="1326" type="line"/>
      <point x="1166" y="1455"/>
      <point x="1017" y="1550"/>
      <point x="796" y="1550" type="curve" smooth="yes"/>
      <point x="348" y="1550"/>
      <point x="115" y="1137"/>
      <point x="115" y="717" type="curve" smooth="yes" name="hr06"/>
      <point x="115" y="252"/>
      <point x="363" y="-20"/>
      <point x="711" y="-20" type="curve" smooth="yes"/>
      <point x="1011" y="-20"/>
      <point x="1267" y="219"/>
      <point x="1267" y="511" type="curve" smooth="yes"/>
      <point x="1267" y="849"/>
      <point x="1023" y="981"/>
      <point x="776" y="981" type="curve" smooth="yes"/>
      <point x="599" y="981"/>
      <point x="455" y="886"/>
      <point x="377" y="785" type="curve" name="hr07"/>
      <point x="392" y="764" type="line"/>
      <point x="392" y="1190"/>
      <point x="524" y="1479"/>
    </contour>
  </outline>
</glyph>
<glyph name="seven" format="1">
  <advance width="1195"/>
  <unicode hex="0037"/>
  <outline>
    <contour>
      <point x="158" y="1530" type="line" name="hr00"/>
      <point x="93" y="1088" type="line"/>
      <point x="171" y="1088" type="line"/>
      <point x="179" y="1118"/>
      <point x="191" y="1165"/>
      <point x="199" y="1191" type="curve" smooth="yes"/>
      <point x="231" y="1282"/>
      <point x="301" y="1315"/>
      <point x="411" y="1315" type="curve"/>
      <point x="989" y="1315" type="line"/>
      <point x="1005" y="1365" type="line"/>
      <point x="775" y="1124"/>
      <point x="388" y="490"/>
      <point x="421" y="0" type="curve"/>
      <point x="746" y="0" type="line"/>
      <point x="705" y="438"/>
      <point x="842" y="1020"/>
      <point x="1126" y="1460" type="curve"/>
      <point x="1126" y="1530" type="line"/>
    </contour>
  </outline>
</glyph>
<glyph name="eight" format="1">
  <advance width="1366"/>
  <unicode hex="0038"/>
  <outline>
    <contour>
      <point x="706" y="1550" type="line" name="hr01"/>
      <point x="499" y="1550"/>
      <point x="218" y="1404"/>
      <point x="218" y="1129" type="curve" smooth="yes" name="hr02"/>
      <point x="218" y="877"/>
      <point x="465" y="753"/>
      <point x="688" y="641" type="curve" smooth="yes"/>
      <point x="860" y="554"/>
      <point x="1014" y="485"/>
      <point x="1014" y="348" type="curve" smooth="yes"/>
      <point x="1014" y="207"/>
      <point x="918" y="75"/>
      <point x="728" y="75" type="curve" smooth="yes"/>
      <point x="553" y="75"/>
      <point x="394" y="194"/>
      <point x="394" y="405" type="curve" smooth="yes" name="hr03"/>
      <point x="394" y="609"/>
      <point x="528" y="693"/>
      <point x="648" y="763" type="curve"/>
      <point x="637" y="774"/>
      <point x="617" y="788"/>
      <point x="605" y="795" type="curve"/>
      <point x="452" y="748"/>
      <point x="193" y="614"/>
      <point x="193" y="374" type="curve" smooth="yes"/>
      <point x="193" y="143"/>
      <point x="392" y="-20"/>
      <point x="728" y="-20" type="curve" smooth="yes"/>
      <point x="1034" y="-20"/>
      <point x="1253" y="203"/>
      <point x="1253" y="432" type="curve" smooth="yes"/>
      <point x="1253" y="680"/>
      <point x="1015" y="782"/>
      <point x="806" y="883" type="curve" smooth="yes"/>
      <point x="617" y="974"/>
      <point x="444" y="1068"/>
      <point x="444" y="1215" type="curve" smooth="yes" name="hr04"/>
      <point x="444" y="1404"/>
      <point x="591" y="1469"/>
      <point x="718" y="1469" type="curve" smooth="yes"/>
      <point x="852" y="1469"/>
      <point x="997" y="1409"/>
      <point x="997" y="1186" type="curve" smooth="yes"/>
      <point x="997" y="1064"/>
      <point x="962" y="893"/>
      <point x="710" y="829" type="curve"/>
      <point x="726" y="818"/>
      <point x="744" y="810"/>
      <point x="764" y="802" type="curve"/>
      <point x="938" y="836"/>
      <point x="1191" y="962"/>
      <point x="1191" y="1204" type="curve" smooth="yes"/>
      <point x="1191" y="1393"/>
      <point x="1014" y="1550"/>
      <point x="716" y="1550" type="curve" smooth="yes"/>
    </contour>
  </outline>
</glyph>
<glyph name="nine" format="1">
  <advance width="1365"/>
  <unicode hex="0039"/>
  <outline>
    <contour>
      <point x="654" y="649" type="curve" name="hr01"/>
      <point x="461" y="649"/>
      <point x="379" y="820"/>
      <point x="379" y="1070" type="curve" smooth="yes"/>
      <point x="379" y="1310"/>
      <point x="489" y="1467"/>
      <point x="671" y="1467" type="curve" smooth="yes"/>
      <point x="895" y="1467"/>
      <point x="990" y="1186"/>
      <point x="990" y="803" type="curve" name="hr02"/>
      <point x="1007" y="884" type="line" name="hr03"/>
      <point x="931" y="743"/>
      <point x="801" y="649"/>
    </contour>
    <contour>
      <point x="490" y="207" type="curve" name="hr04"/>
      <point x="490" y="282"/>
      <point x="437" y="350"/>
      <point x="352" y="350" type="curve" smooth="yes"/>
      <point x="266" y="350"/>
      <point x="216" y="289"/>
      <point x="216" y="204" type="curve" smooth="yes"/>
      <point x="216" y="128"/>
      <point x="286" y="80"/>
      <point x="362" y="80" type="curve" smooth="yes"/>
      <point x="437" y="80"/>
      <point x="490" y="131"/>
    </contour>
    <contour>
      <point x="361" y="78" type="line"/>
      <point x="216" y="204" type="line"/>
      <point x="216" y="75"/>
      <point x="365" y="-20"/>
      <point x="586" y="-20" type="curve" smooth="yes" name="hr05"/>
      <point x="1034" y="-20"/>
      <point x="1267" y="393"/>
      <point x="1267" y="813" type="curve" smooth="yes"/>
      <point x="1267" y="1278"/>
      <point x="1019" y="1550"/>
      <point x="671" y="1550" type="curve" smooth="yes"/>
      <point x="371" y="1550"/>
      <point x="115" y="1320"/>
      <point x="115" y="1039" type="curve" smooth="yes" name="hr06"/>
      <point x="115" y="687"/>
      <point x="359" y="549"/>
      <point x="606" y="549" type="curve" smooth="yes"/>
      <point x="783" y="549"/>
      <point x="927" y="644"/>
      <point x="1005" y="745" type="curve"/>
      <point x="990" y="766" type="line"/>
      <point x="990" y="340"/>
      <point x="858" y="51"/>
      <point x="601" y="51" type="curve" smooth="yes"/>
      <point x="485" y="51"/>
      <point x="442" y="85"/>
      <point x="413" y="123" type="curve"/>
    </contour>
  </outline>
</glyph>
<glyph name="colon" format="1">
  <advance width="683"/>
  <unicode hex="003A"/>
  <outline>
    <contour>
      <point x="341" y="-18" type="curve" smooth="yes" name="hr00"/>
      <point x="251" y="-18"/>
      <point x="182" y="51"/>
      <point x="182" y="141" type="curve" smooth="yes"/>
      <point x="182" y="232"/>
      <point x="251" y="302"/>
      <point x="341" y="302" type="curve" smooth="yes"/>
      <point x="432" y="302"/>
      <point x="501" y="232"/>
      <point x="501" y="141" type="curve" smooth="yes"/>
      <point x="501" y="51"/>
      <point x="432" y="-18"/>
    </contour>
    <component base="period"/>
    <component base="period" yOffset="737"/>
  </outline>
</glyph>
<glyph name="less" format="1">
  <advance width="1535"/>
  <unicode hex="003C"/>
  <outline>
    <contour>
      <point x="340" y="508" type="line" name="hr00"/>
      <point x="1159" y="30" type="line"/>
      <point x="1159" y="154" type="line"/>
      <point x="426" y="569" type="line"/>
      <point x="426" y="520" type="line"/>
      <point x="1159" y="946" type="line"/>
      <point x="1159" y="1060" type="line"/>
      <point x="340" y="582" type="line"/>
    </contour>
  </outline>
</glyph>
<glyph name="equal" format="1">
  <advance width="1536"/>
  <unicode hex="003D"/>
  <outline>
    <contour>
      <point x="270" y="780" type="line" name="hr00"/>
      <point x="270" y="680" type="line"/>
      <point x="1266" y="680" type="line"/>
      <point x="1266" y="780" type="line"/>
    </contour>
    <contour>
      <point x="270" y="440" type="line"/>
      <point x="270" y="340" type="line"/>
      <point x="1266" y="340" type="line"/>
      <point x="1266" y="440" type="line"/>
    </contour>
  </outline>
</glyph>
<glyph name="question" format="1">
  <advance width="1364"/>
  <unicode hex="003F"/>
  <outline>
    <contour>
      <point x="152" y="1343" type="line" name="hr00"/>
      <point x="133" y="1505"/>
      <point x="352" y="1704"/>
      <point x="646" y="1704" type="curve" smooth="yes"/>
      <point x="962" y="1704"/>
      <point x="1218" y="1540"/>
      <point x="1218" y="1279" type="curve" smooth="yes"/>
      <point x="1218" y="975"/>
      <point x="946" y="778"/>
      <point x="719" y="730" type="curve"/>
      <point x="666" y="447" type="line"/>
      <point x="569" y="447" type="line"/>
      <point x="509" y="750" type="line"/>
      <point x="794" y="846"/>
      <point x="969" y="1073"/>
      <point x="969" y="1316" type="curve" smooth="yes"/>
      <point x="969" y="1493"/>
      <point x="857" y="1618"/>
      <point x="640" y="1618" type="curve" smooth="yes"/>
      <point x="462" y="1618"/>
      <point x="356" y="1530"/>
      <point x="317" y="1422" type="curve"/>
    </contour>
    <contour>
      <point x="314" y="1179" type="curve" smooth="yes"/>
      <point x="222" y="1179"/>
      <point x="150" y="1251"/>
      <point x="150" y="1343" type="curve" smooth="yes"/>
      <point x="150" y="1437"/>
      <point x="222" y="1509"/>
      <point x="314" y="1509" type="curve" smooth="yes"/>
      <point x="408" y="1509"/>
      <point x="479" y="1437"/>
      <point x="479" y="1343" type="curve" smooth="yes"/>
      <point x="479" y="1251"/>
      <point x="408" y="1179"/>
    </contour>
    <contour>
      <point x="619" y="-18" type="curve" smooth="yes"/>
      <point x="529" y="-18"/>
      <point x="460" y="51"/>
      <point x="460" y="141" type="curve" smooth="yes"/>
      <point x="460" y="232"/>
      <point x="529" y="302"/>
      <point x="619" y="302" type="curve" smooth="yes"/>
      <point x="710" y="302"/>
      <point x="779" y="232"/>
      <point x="779" y="141" type="curve" smooth="yes"/>
      <point x="779" y="51"/>
      <point x="710" y="-18"/>
    </contour>
  </outline>
</glyph>
<glyph name="at" format="1">
  <advance width="2385"/>
  <unicode hex="0040"/>
  <outline>
    <contour>
      <point x="1515" y="818" type="line" name="hr01"/>
      <point x="1526" y="918"/>
      <point x="1417" y="1040"/>
      <point x="1234" y="1040" type="curve" smooth="yes"/>
      <point x="972" y="1040"/>
      <point x="684" y="817"/>
      <point x="684" y="444" type="curve" smooth="yes"/>
      <point x="684" y="146"/>
      <point x="838" y="-18"/>
      <point x="999" y="-18" type="curve" smooth="yes" name="hr02"/>
      <point x="1220" y="-18"/>
      <point x="1365" y="138"/>
      <point x="1428" y="236" type="curve"/>
      <point x="1411" y="361" type="line"/>
      <point x="1364" y="285"/>
      <point x="1270" y="123"/>
      <point x="1130" y="123" type="curve" smooth="yes"/>
      <point x="980" y="123"/>
      <point x="942" y="340"/>
      <point x="942" y="478" type="curve" smooth="yes"/>
      <point x="942" y="675"/>
      <point x="1032" y="944"/>
      <point x="1267" y="944" type="curve" smooth="yes"/>
      <point x="1395" y="944"/>
      <point x="1461" y="870"/>
      <point x="1490" y="790" type="curve"/>
    </contour>
    <contour>
      <point x="1807" y="-222" type="line"/>
      <point x="1660" y="-282"/>
      <point x="1437" y="-342"/>
      <point x="1167" y="-342" type="curve" smooth="yes"/>
      <point x="772" y="-342"/>
      <point x="293" y="-133"/>
      <point x="293" y="444" type="curve" smooth="yes"/>
      <point x="293" y="1004"/>
      <point x="746" y="1371"/>
      <point x="1323" y="1371" type="curve" smooth="yes"/>
      <point x="1796" y="1371"/>
      <point x="2094" y="1150"/>
      <point x="2094" y="780" type="curve" smooth="yes"/>
      <point x="2094" y="445"/>
      <point x="1870" y="71"/>
      <point x="1608" y="71" type="curve" smooth="yes" name="hr03"/>
      <point x="1571" y="71"/>
      <point x="1556" y="110"/>
      <point x="1556" y="153" type="curve" smooth="yes"/>
      <point x="1556" y="160"/>
      <point x="1563" y="205"/>
      <point x="1565" y="219" type="curve" smooth="yes"/>
      <point x="1675" y="1020" type="line"/>
      <point x="1435" y="1020" type="line"/>
      <point x="1314" y="168" type="line"/>
      <point x="1314" y="150" type="line" smooth="yes"/>
      <point x="1314" y="23"/>
      <point x="1400" y="-20"/>
      <point x="1561" y="-20" type="curve" smooth="yes"/>
      <point x="1947" y="-20"/>
      <point x="2184" y="404"/>
      <point x="2184" y="777" type="curve" smooth="yes"/>
      <point x="2184" y="1204"/>
      <point x="1806" y="1453"/>
      <point x="1323" y="1453" type="curve" smooth="yes"/>
      <point x="781" y="1453"/>
      <point x="200" y="1111"/>
      <point x="200" y="445" type="curve" smooth="yes"/>
      <point x="200" y="-223"/>
      <point x="794" y="-420"/>
      <point x="1164" y="-420" type="curve" smooth="yes"/>
      <point x="1458" y="-420"/>
      <point x="1686" y="-362"/>
      <point x="1838" y="-299" type="curve"/>
    </contour>
  </outline>
</glyph>
<glyph name="A" format="1">
  <advance width="1534"/>
  <unicode hex="0041"/>
  <outline>
    <contour>
      <point x="969" y="78" type="line" name="hr01"/>
      <point x="969" y="0" type="line"/>
      <point x="1514" y="0" type="line"/>
      <point x="1514" y="78" type="line"/>
    </contour>
    <contour>
      <point x="620" y="1292" type="line"/>
      <point x="1142" y="22" type="line" name="hr02"/>
      <point x="1421" y="58" type="line"/>
      <point x="809" y="1530" type="line"/>
      <point x="693" y="1530" type="line"/>
      <point x="125" y="66" type="line" name="hr03"/>
      <point x="220" y="35" type="line"/>
      <point x="705" y="1317" type="line"/>
    </contour>
    <contour>
      <point x="349" y="505" type="line"/>
      <point x="349" y="427" type="line"/>
      <point x="1031" y="427" type="line"/>
      <point x="1031" y="505" type="line"/>
    </contour>
    <contour>
      <point x="21" y="78" type="line" name="hr04"/>
      <point x="21" y="0" type="line"/>
      <point x="416" y="0" type="line"/>
      <point x="416" y="78" type="line"/>
    </contour>
    <contour>
      <point x="1520" y="0" type="move" name="og"/>
    </contour>
    <contour>
      <point x="755" y="1600" type="move" name="top"/>
    </contour>
  </outline>
</glyph>
<glyph name="B" format="1">
  <advance width="1534"/>
  <unicode hex="0042"/>
  <outline>
    <contour>
      <point x="276" y="59" type="line" name="hr01"/>
      <point x="546" y="59" type="line"/>
      <point x="546" y="1502" type="line" name="hr02"/>
      <point x="277" y="1502" type="line"/>
    </contour>
    <contour>
      <point x="476" y="755" type="line"/>
      <point x="800" y="755" type="line" smooth="yes"/>
      <point x="1062" y="755"/>
      <point x="1153" y="590"/>
      <point x="1153" y="412" type="curve" smooth="yes"/>
      <point x="1153" y="200"/>
      <point x="1019" y="78"/>
      <point x="778" y="78" type="curve" smooth="yes"/>
      <point x="106" y="78" type="line"/>
      <point x="106" y="0" type="line" name="hr03"/>
      <point x="856" y="0" type="line" smooth="yes"/>
      <point x="1232" y="0"/>
      <point x="1425" y="178"/>
      <point x="1425" y="439" type="curve" smooth="yes"/>
      <point x="1425" y="629"/>
      <point x="1292" y="779"/>
      <point x="1028" y="811" type="curve"/>
      <point x="1189" y="854"/>
      <point x="1324" y="957"/>
      <point x="1324" y="1146" type="curve" smooth="yes" name="hr04"/>
      <point x="1324" y="1355"/>
      <point x="1191" y="1530"/>
      <point x="860" y="1530" type="curve" smooth="yes"/>
      <point x="106" y="1530" type="line"/>
      <point x="106" y="1452" type="line"/>
      <point x="764" y="1452" type="line" smooth="yes"/>
      <point x="1034" y="1452"/>
      <point x="1063" y="1307"/>
      <point x="1063" y="1137" type="curve" smooth="yes"/>
      <point x="1063" y="969"/>
      <point x="1005" y="832"/>
      <point x="791" y="832" type="curve" smooth="yes"/>
      <point x="476" y="832" type="line"/>
    </contour>
    <contour>
      <point x="683" y="1600" type="move" name="top"/>
    </contour>
  </outline>
</glyph>
<glyph name="C" format="1">
  <advance width="1534"/>
  <unicode hex="0043"/>
  <outline>
    <contour>
      <point x="888" y="1550" type="curve" smooth="yes" name="hr01"/>
      <point x="373" y="1550"/>
      <point x="96" y="1195"/>
      <point x="96" y="770" type="curve" smooth="yes"/>
      <point x="96" y="313"/>
      <point x="391" y="-20"/>
      <point x="870" y="-20" type="curve" smooth="yes"/>
      <point x="1244" y="-20"/>
      <point x="1410" y="191"/>
      <point x="1442" y="269" type="curve"/>
      <point x="1390" y="317" type="line"/>
      <point x="1295" y="171"/>
      <point x="1125" y="78"/>
      <point x="882" y="78" type="curve" smooth="yes"/>
      <point x="540" y="78"/>
      <point x="407" y="424"/>
      <point x="404" y="760" type="curve" smooth="yes"/>
      <point x="401" y="1149"/>
      <point x="516" y="1467"/>
      <point x="897" y="1467" type="curve" smooth="yes"/>
      <point x="1100" y="1467"/>
      <point x="1305" y="1342"/>
      <point x="1346" y="1111" type="curve"/>
      <point x="1431" y="1111" type="line"/>
      <point x="1431" y="1530" type="line" name="hr02"/>
      <point x="1349" y="1530" type="line"/>
      <point x="1348" y="1473"/>
      <point x="1308" y="1407"/>
      <point x="1270" y="1395" type="curve"/>
      <point x="1320" y="1408" type="line"/>
      <point x="1266" y="1473"/>
      <point x="1091" y="1550"/>
    </contour>
    <contour>
      <point x="820" y="-300" type="move" name="btm"/>
    </contour>
    <contour>
      <point x="878" y="1600" type="move" name="top"/>
    </contour>
  </outline>
</glyph>
<glyph name="D" format="1">
  <advance width="1707"/>
  <unicode hex="0044"/>
  <outline>
    <contour>
      <point x="743" y="0" type="line" name="hr01"/>
      <point x="1457" y="0"/>
      <point x="1610" y="484"/>
      <point x="1610" y="777" type="curve" smooth="yes"/>
      <point x="1610" y="1175"/>
      <point x="1424" y="1530"/>
      <point x="757" y="1530" type="curve" smooth="yes"/>
      <point x="83" y="1530" type="line"/>
      <point x="83" y="1452" type="line"/>
      <point x="744" y="1452" type="line" smooth="yes"/>
      <point x="1112" y="1452"/>
      <point x="1311" y="1301"/>
      <point x="1318" y="801" type="curve" smooth="yes"/>
      <point x="1325" y="269"/>
      <point x="1155" y="78"/>
      <point x="731" y="78" type="curve" smooth="yes" name="hr02"/>
      <point x="83" y="78" type="line"/>
      <point x="83" y="0" type="line" name="hr03"/>
    </contour>
    <contour>
      <point x="283" y="59" type="line" name="hr04"/>
      <point x="553" y="59" type="line"/>
      <point x="553" y="1502" type="line"/>
      <point x="284" y="1501" type="line"/>
    </contour>
    <contour>
      <point x="836" y="1600" type="move" name="top"/>
    </contour>
  </outline>
</glyph>
<glyph name="E" format="1">
  <advance width="1535"/>
  <unicode hex="0045"/>
  <outline>
    <contour>
      <point x="1387" y="465" type="line" name="hr01"/>
      <point x="1309" y="465" type="line"/>
      <point x="1295" y="267"/>
      <point x="1240" y="78"/>
      <point x="969" y="78" type="curve"/>
      <point x="71" y="79" type="line"/>
      <point x="71" y="0" type="line" name="hr02"/>
      <point x="1387" y="0" type="line"/>
    </contour>
    <contour>
      <point x="791" y="746" type="line"/>
      <point x="901" y="746"/>
      <point x="964" y="713"/>
      <point x="977" y="622" type="curve" smooth="yes"/>
      <point x="980" y="596"/>
      <point x="982" y="549"/>
      <point x="984" y="519" type="curve"/>
      <point x="1068" y="519" type="line"/>
      <point x="1068" y="1035" type="line"/>
      <point x="984" y="1035" type="line"/>
      <point x="982" y="1006"/>
      <point x="980" y="974"/>
      <point x="977" y="948" type="curve" smooth="yes"/>
      <point x="964" y="857"/>
      <point x="903" y="824"/>
      <point x="791" y="824" type="curve" smooth="yes"/>
      <point x="427" y="824" type="line"/>
      <point x="427" y="746" type="line"/>
    </contour>
    <contour>
      <point x="271" y="59" type="line" name="hr03"/>
      <point x="541" y="59" type="line"/>
      <point x="541" y="1502" type="line"/>
      <point x="272" y="1501" type="line"/>
    </contour>
    <contour>
      <point x="1364" y="1530" type="line" name="hr04"/>
      <point x="71" y="1530" type="line"/>
      <point x="71" y="1452" type="line"/>
      <point x="998" y="1452" type="line"/>
      <point x="1258" y="1439"/>
      <point x="1273" y="1315"/>
      <point x="1286" y="1094" type="curve"/>
      <point x="1364" y="1094" type="line"/>
    </contour>
    <contour>
      <point x="1432" y="0" type="move" name="og"/>
    </contour>
    <contour>
      <point x="808" y="1600" type="move" name="top"/>
    </contour>
  </outline>
</glyph>
<glyph name="F" format="1">
  <advance width="1367"/>
  <unicode hex="0046"/>
  <outline>
    <contour>
      <point x="738" y="717" type="line" name="hr01"/>
      <point x="848" y="717"/>
      <point x="920" y="684"/>
      <point x="933" y="593" type="curve" smooth="yes"/>
      <point x="936" y="567"/>
      <point x="938" y="519"/>
      <point x="940" y="489" type="curve"/>
      <point x="1022" y="489" type="line"/>
      <point x="1022" y="1012" type="line"/>
      <point x="940" y="1012" type="line"/>
      <point x="938" y="983"/>
      <point x="936" y="945"/>
      <point x="933" y="919" type="curve" smooth="yes"/>
      <point x="920" y="828"/>
      <point x="850" y="795"/>
      <point x="738" y="795" type="curve" smooth="yes"/>
      <point x="408" y="795" type="line"/>
      <point x="408" y="717" type="line"/>
    </contour>
    <contour>
      <point x="252" y="59" type="line"/>
      <point x="522" y="59" type="line"/>
      <point x="522" y="1502" type="line" name="hr02"/>
      <point x="253" y="1501" type="line"/>
    </contour>
    <contour>
      <point x="53" y="78" type="line"/>
      <point x="53" y="0" type="line" name="hr03"/>
      <point x="846" y="0" type="line"/>
      <point x="846" y="78" type="line" name="hr04"/>
    </contour>
    <contour>
      <point x="1305" y="1530" type="line"/>
      <point x="52" y="1530" type="line"/>
      <point x="52" y="1452" type="line"/>
      <point x="919" y="1452" type="line"/>
      <point x="1179" y="1439"/>
      <point x="1214" y="1310"/>
      <point x="1227" y="1089" type="curve"/>
      <point x="1305" y="1089" type="line"/>
    </contour>
    <contour>
      <point x="735" y="1600" type="move" name="top"/>
    </contour>
  </outline>
</glyph>
<glyph name="G" format="1">
  <advance width="1707"/>
  <unicode hex="0047"/>
  <outline>
    <contour>
      <point x="1659" y="679" type="line" name="hr00"/>
      <point x="1659" y="601" type="line"/>
      <point x="1027" y="601" type="line"/>
      <point x="1027" y="679" type="line"/>
    </contour>
    <contour>
      <point x="1530" y="629" type="line"/>
      <point x="1530" y="192" type="line"/>
      <point x="1450" y="80"/>
      <point x="1180" y="-20"/>
      <point x="934" y="-20" type="curve" smooth="yes"/>
      <point x="412" y="-20"/>
      <point x="107" y="331"/>
      <point x="107" y="768" type="curve" smooth="yes"/>
      <point x="107" y="1183"/>
      <point x="420" y="1550"/>
      <point x="924" y="1550" type="curve" smooth="yes"/>
      <point x="1124" y="1550"/>
      <point x="1315" y="1497"/>
      <point x="1396" y="1408" type="curve"/>
      <point x="1346" y="1395" type="line"/>
      <point x="1389" y="1415"/>
      <point x="1405" y="1444"/>
      <point x="1426" y="1530" type="curve"/>
      <point x="1507" y="1530" type="line"/>
      <point x="1507" y="1111" type="line"/>
      <point x="1422" y="1111" type="line"/>
      <point x="1355" y="1360"/>
      <point x="1155" y="1467"/>
      <point x="917" y="1467" type="curve" smooth="yes"/>
      <point x="530" y="1467"/>
      <point x="401" y="1124"/>
      <point x="405" y="768" type="curve" smooth="yes"/>
      <point x="409" y="438"/>
      <point x="516" y="63"/>
      <point x="937" y="63" type="curve" smooth="yes"/>
      <point x="1137" y="63"/>
      <point x="1280" y="160"/>
      <point x="1288" y="216" type="curve"/>
      <point x="1288" y="629" type="line"/>
    </contour>
    <contour>
      <point x="911" y="1600" type="move" name="top"/>
    </contour>
    <contour>
      <point x="899" y="-300" type="move" name="btm"/>
    </contour>
  </outline>
</glyph>
<glyph name="H" format="1">
  <advance width="1707"/>
  <unicode hex="0048"/>
  <outline>
    <contour>
      <point x="1057" y="78" type="line" name="hr01"/>
      <point x="1057" y="0" type="line" name="hr02"/>
      <point x="1651" y="0" type="line"/>
      <point x="1651" y="78" type="line" name="hr03"/>
    </contour>
    <contour>
      <point x="1225" y="59" type="line"/>
      <point x="1495" y="59" type="line"/>
      <point x="1495" y="1502" type="line"/>
      <point x="1226" y="1501" type="line"/>
    </contour>
    <contour>
      <point x="1057" y="1530" type="line" name="hr04"/>
      <point x="1057" y="1452" type="line"/>
      <point x="1652" y="1452" type="line"/>
      <point x="1652" y="1530" type="line"/>
    </contour>
    <contour>
      <point x="55" y="78" type="line"/>
      <point x="55" y="0" type="line" name="hr05"/>
      <point x="649" y="0" type="line"/>
      <point x="649" y="78" type="line" name="hr06"/>
    </contour>
    <contour>
      <point x="211" y="59" type="line"/>
      <point x="481" y="59" type="line"/>
      <point x="481" y="1502" type="line"/>
      <point x="212" y="1501" type="line"/>
    </contour>
    <contour>
      <point x="55" y="1530" type="line" name="hr07"/>
      <point x="55" y="1452" type="line"/>
      <point x="650" y="1452" type="line"/>
      <point x="650" y="1530" type="line"/>
    </contour>
    <contour>
      <point x="446" y="806" type="line"/>
      <point x="446" y="728" type="line"/>
      <point x="1302" y="728" type="line"/>
      <point x="1302" y="806" type="line"/>
    </contour>
    <contour>
      <point x="871" y="1600" type="move" name="top"/>
    </contour>
  </outline>
</glyph>
<glyph name="I" format="1">
  <advance width="854"/>
  <unicode hex="0049"/>
  <outline>
    <contour>
      <point x="95" y="78" type="line" name="hr01"/>
      <point x="95" y="0" type="line" name="hr02"/>
      <point x="759" y="0" type="line"/>
      <point x="759" y="78" type="line" name="hr03"/>
    </contour>
    <contour>
      <point x="95" y="1530" type="line"/>
      <point x="95" y="1452" type="line"/>
      <point x="759" y="1452" type="line"/>
      <point x="759" y="1530" type="line"/>
    </contour>
    <contour>
      <point x="292" y="59" type="line"/>
      <point x="562" y="59" type="line"/>
      <point x="562" y="1502" type="line" name="hr04"/>
      <point x="293" y="1501" type="line"/>
    </contour>
    <contour>
      <point x="759" y="0" type="move" name="_og"/>
    </contour>
    <contour>
      <point x="428" y="1600" type="move" name="top"/>
    </contour>
  </outline>
</glyph>
<glyph name="J" format="1">
  <advance width="854"/>
  <unicode hex="004A"/>
  <outline>
    <contour>
      <point x="756" y="1530" type="line" name="hr00"/>
      <point x="756" y="1452" type="line"/>
      <point x="101" y="1452" type="line"/>
      <point x="101" y="1530" type="line"/>
    </contour>
    <contour>
      <point x="559" y="135" type="line"/>
      <point x="559" y="-172"/>
      <point x="369" y="-335"/>
      <point x="159" y="-391" type="curve"/>
      <point x="118" y="-318" type="line"/>
      <point x="281" y="-242"/>
      <point x="289" y="-68"/>
      <point x="289" y="381" type="curve" smooth="yes"/>
      <point x="289" y="1501" type="line"/>
      <point x="559" y="1502" type="line"/>
    </contour>
    <contour>
      <point x="421" y="1600" type="move" name="top"/>
    </contour>
  </outline>
</glyph>
<glyph name="K" format="1">
  <advance width="1707"/>
  <unicode hex="004B"/>
  <outline>
    <contour>
      <point x="141" y="78" type="line" name="hr01"/>
      <point x="141" y="0" type="line" name="hr02"/>
      <point x="806" y="0" type="line"/>
      <point x="806" y="78" type="line" name="hr03"/>
    </contour>
    <contour>
      <point x="331" y="59" type="line"/>
      <point x="601" y="59" type="line"/>
      <point x="601" y="1502" type="line"/>
      <point x="332" y="1501" type="line"/>
    </contour>
    <contour>
      <point x="141" y="1530" type="line" name="hr04"/>
      <point x="141" y="1452" type="line"/>
      <point x="806" y="1452" type="line"/>
      <point x="806" y="1530" type="line"/>
    </contour>
    <contour>
      <point x="530" y="617" type="line"/>
      <point x="482" y="516" type="line"/>
      <point x="1458" y="1483" type="line" name="hr05"/>
      <point x="1351" y="1499" type="line"/>
      <point x="457" y="612" type="line"/>
    </contour>
    <contour>
      <point x="1601" y="1452" type="line" name="hr06"/>
      <point x="1601" y="1530" type="line"/>
      <point x="1154" y="1530" type="line"/>
      <point x="1154" y="1452" type="line"/>
    </contour>
    <contour>
      <point x="1606" y="17" type="line"/>
      <point x="851" y="942" type="line"/>
      <point x="678" y="760" type="line"/>
      <point x="1263" y="18" type="line"/>
    </contour>
    <contour>
      <point x="1068" y="78" type="line"/>
      <point x="1068" y="0" type="line" name="hr07"/>
      <point x="1698" y="0" type="line"/>
      <point x="1698" y="78" type="line" name="hr08"/>
    </contour>
    <contour>
      <point x="888" y="-300" type="move" name="btm"/>
    </contour>
  </outline>
</glyph>
<glyph name="L" format="1">
  <advance width="1367"/>
  <unicode hex="004C"/>
  <outline>
    <contour>
      <point x="285" y="58" type="line" name="hr01"/>
      <point x="555" y="58" type="line"/>
      <point x="555" y="1502" type="line"/>
      <point x="286" y="1501" type="line"/>
    </contour>
    <contour>
      <point x="118" y="1530" type="line" name="hr02"/>
      <point x="118" y="1453" type="line"/>
      <point x="733" y="1453" type="line"/>
      <point x="733" y="1530" type="line"/>
    </contour>
    <contour>
      <point x="1279" y="465" type="line"/>
      <point x="1201" y="465" type="line"/>
      <point x="1187" y="267"/>
      <point x="1132" y="78"/>
      <point x="861" y="78" type="curve" smooth="yes"/>
      <point x="71" y="79" type="line"/>
      <point x="71" y="0" type="line"/>
      <point x="1279" y="0" type="line"/>
    </contour>
    <contour>
      <point x="730" y="-300" type="move" name="btm"/>
    </contour>
    <contour>
      <point x="423" y="1600" type="move" name="top"/>
    </contour>
  </outline>
</glyph>
<glyph name="M" format="1">
  <advance width="2049"/>
  <unicode hex="004D"/>
  <outline>
    <contour>
      <point x="337" y="35" type="line" name="hr01"/>
      <point x="337" y="1452" type="line"/>
      <point x="514" y="1452" type="line"/>
      <point x="514" y="1530" type="line"/>
      <point x="60" y="1530" type="line"/>
      <point x="60" y="1452" type="line"/>
      <point x="246" y="1452" type="line"/>
      <point x="246" y="35" type="line"/>
    </contour>
    <contour>
      <point x="62" y="78" type="line"/>
      <point x="62" y="0" type="line" name="hr02"/>
      <point x="518" y="0" type="line"/>
      <point x="518" y="78" type="line" name="hr03"/>
    </contour>
    <contour>
      <point x="1339" y="78" type="line"/>
      <point x="1339" y="0" type="line" name="hr04"/>
      <point x="2004" y="0" type="line"/>
      <point x="2004" y="78" type="line" name="hr05"/>
    </contour>
    <contour>
      <point x="1521" y="59" type="line"/>
      <point x="1791" y="59" type="line"/>
      <point x="1791" y="1502" type="line"/>
      <point x="1522" y="1501" type="line"/>
    </contour>
    <contour>
      <point x="1481" y="1530" type="line" name="hr06"/>
      <point x="1522" y="1452" type="line"/>
      <point x="1986" y="1452" type="line"/>
      <point x="1986" y="1530" type="line"/>
    </contour>
    <contour>
      <point x="301" y="1501" type="line" name="hr07"/>
      <point x="926" y="21" type="line"/>
      <point x="1064" y="343" type="line"/>
      <point x="582" y="1530" type="line" name="hr08"/>
      <point x="514" y="1530" type="line"/>
    </contour>
    <contour>
      <point x="1481" y="1530" type="line"/>
      <point x="1004" y="344" type="line"/>
      <point x="926" y="21" type="line"/>
      <point x="966" y="21" type="line"/>
      <point x="1562" y="1509" type="line" name="hr09"/>
    </contour>
    <contour>
      <point x="1022" y="1600" type="move" name="top"/>
    </contour>
  </outline>
</glyph>
<glyph name="N" format="1">
  <advance width="1707"/>
  <unicode hex="004E"/>
  <outline>
    <contour>
      <point x="258" y="1485" type="line" name="hr01"/>
      <point x="1268" y="0" type="line"/>
      <point x="1454" y="0" type="line"/>
      <point x="1391" y="273" type="line"/>
      <point x="546" y="1530" type="line" name="hr02"/>
      <point x="428" y="1530" type="line"/>
    </contour>
    <contour>
      <point x="1454" y="0" type="line"/>
      <point x="1454" y="1452" type="line"/>
      <point x="1637" y="1452" type="line"/>
      <point x="1637" y="1530" type="line"/>
      <point x="1162" y="1530" type="line"/>
      <point x="1162" y="1452" type="line"/>
      <point x="1356" y="1452" type="line"/>
      <point x="1356" y="35" type="line"/>
    </contour>
    <contour>
      <point x="365" y="35" type="line" name="hr03"/>
      <point x="365" y="1452" type="line"/>
      <point x="522" y="1452" type="line"/>
      <point x="525" y="1530" type="line"/>
      <point x="93" y="1530" type="line"/>
      <point x="93" y="1452" type="line"/>
      <point x="267" y="1452" type="line"/>
      <point x="267" y="35" type="line"/>
    </contour>
    <contour>
      <point x="93" y="78" type="line" name="hr04"/>
      <point x="93" y="0" type="line"/>
      <point x="568" y="0" type="line"/>
      <point x="568" y="78" type="line"/>
    </contour>
    <contour>
      <point x="902" y="1600" type="move" name="top"/>
    </contour>
    <contour>
      <point x="869" y="-300" type="move" name="btm"/>
    </contour>
  </outline>
</glyph>
<glyph name="O" format="1">
  <advance width="1711"/>
  <unicode hex="004F"/>
  <outline>
    <contour>
      <point x="98" y="767" type="curve" smooth="yes" name="hr00"/>
      <point x="98" y="354"/>
      <point x="354" y="-20"/>
      <point x="855" y="-20" type="curve" smooth="yes"/>
      <point x="1368" y="-20"/>
      <point x="1613" y="354"/>
      <point x="1613" y="767" type="curve" smooth="yes"/>
      <point x="1613" y="1160"/>
      <point x="1370" y="1550"/>
      <point x="855" y="1550" type="curve" smooth="yes"/>
      <point x="354" y="1550"/>
      <point x="98" y="1160"/>
    </contour>
    <contour>
      <point x="386" y="767" type="curve" smooth="yes"/>
      <point x="382" y="1109"/>
      <point x="502" y="1467"/>
      <point x="855" y="1467" type="curve" smooth="yes"/>
      <point x="1188" y="1467"/>
      <point x="1325" y="1109"/>
      <point x="1325" y="767" type="curve" smooth="yes"/>
      <point x="1325" y="450"/>
      <point x="1191" y="63"/>
      <point x="855" y="63" type="curve" smooth="yes"/>
      <point x="504" y="63"/>
      <point x="390" y="450"/>
    </contour>
    <contour>
      <point x="855" y="1600" type="move" name="top"/>
    </contour>
  </outline>
</glyph>
<glyph name="P" format="1">
  <advance width="1364"/>
  <unicode hex="0050"/>
  <outline>
    <contour>
      <point x="222" y="59" type="line" name="hr01"/>
      <point x="492" y="59" type="line"/>
      <point x="492" y="1502" type="line" name="hr02"/>
      <point x="223" y="1501" type="line"/>
    </contour>
    <contour>
      <point x="454" y="513" type="line"/>
      <point x="705" y="513" type="line" smooth="yes"/>
      <point x="1111" y="513"/>
      <point x="1300" y="737"/>
      <point x="1300" y="1053" type="curve" smooth="yes"/>
      <point x="1300" y="1332"/>
      <point x="1135" y="1530"/>
      <point x="701" y="1530" type="curve" smooth="yes" name="hr03"/>
      <point x="52" y="1530" type="line"/>
      <point x="52" y="1452" type="line"/>
      <point x="682" y="1452" type="line" smooth="yes"/>
      <point x="922" y="1452"/>
      <point x="1019" y="1281"/>
      <point x="1019" y="1042" type="curve" smooth="yes"/>
      <point x="1019" y="861"/>
      <point x="956" y="582"/>
      <point x="680" y="582" type="curve" smooth="yes"/>
      <point x="462" y="582" type="line"/>
    </contour>
    <contour>
      <point x="51" y="78" type="line"/>
      <point x="51" y="0" type="line" name="hr04"/>
      <point x="745" y="0" type="line"/>
      <point x="745" y="78" type="line" name="hr05"/>
    </contour>
    <contour>
      <point x="647" y="1601" type="move" name="top"/>
    </contour>
  </outline>
</glyph>
<glyph name="Q" format="1">
  <advance width="1711"/>
  <unicode hex="0051"/>
  <outline>
    <contour>
      <point x="1170" y="-435" type="curve" smooth="yes" name="hr00"/>
      <point x="1330" y="-435"/>
      <point x="1471" y="-239"/>
      <point x="1505" y="-149" type="curve"/>
      <point x="1453" y="-115" type="line"/>
      <point x="1394" y="-180"/>
      <point x="1306" y="-231"/>
      <point x="1238" y="-231" type="curve" smooth="yes"/>
      <point x="1063" y="-231"/>
      <point x="961" y="-154"/>
      <point x="827" y="-121" type="curve"/>
      <point x="817" y="-132" type="line"/>
      <point x="1079" y="26" type="line"/>
      <point x="1428" y="197"/>
      <point x="948" y="71"/>
      <point x="863" y="-14" type="curve"/>
      <point x="657" y="-127" type="line" smooth="yes"/>
      <point x="548" y="-187"/>
      <point x="394" y="-300"/>
      <point x="363" y="-387" type="curve"/>
      <point x="416" y="-421" type="line"/>
      <point x="475" y="-356"/>
      <point x="562" y="-305"/>
      <point x="630" y="-305" type="curve" smooth="yes"/>
      <point x="806" y="-305"/>
      <point x="981" y="-435"/>
    </contour>
    <component base="O"/>
  </outline>
</glyph>
<glyph name="R" format="1">
  <advance width="1534"/>
  <unicode hex="0052"/>
  <outline>
    <contour>
      <point x="237" y="59" type="line" name="hr01"/>
      <point x="507" y="59" type="line"/>
      <point x="507" y="1502" type="line" name="hr02"/>
      <point x="238" y="1501" type="line"/>
    </contour>
    <contour>
      <point x="76" y="78" type="line"/>
      <point x="76" y="0" type="line" name="hr03"/>
      <point x="741" y="0" type="line"/>
      <point x="741" y="78" type="line" name="hr04"/>
    </contour>
    <contour>
      <point x="690" y="703" type="line"/>
      <point x="934" y="703"/>
      <point x="998" y="443"/>
      <point x="1033" y="289" type="curve" smooth="yes"/>
      <point x="1089" y="39"/>
      <point x="1146" y="-5"/>
      <point x="1408" y="-5" type="curve" smooth="yes" name="hr05"/>
      <point x="1549" y="-5" type="line"/>
      <point x="1547" y="78" type="line" name="hr06"/>
      <point x="1507" y="78" type="line" smooth="yes"/>
      <point x="1213" y="78"/>
      <point x="1459" y="741"/>
      <point x="824" y="741" type="curve"/>
      <point x="798" y="721" type="line"/>
      <point x="1095" y="721"/>
      <point x="1330" y="854"/>
      <point x="1330" y="1144" type="curve" smooth="yes"/>
      <point x="1330" y="1326"/>
      <point x="1239" y="1530"/>
      <point x="755" y="1530" type="curve" smooth="yes"/>
      <point x="76" y="1530" type="line"/>
      <point x="76" y="1452" type="line"/>
      <point x="719" y="1452" type="line" smooth="yes"/>
      <point x="989" y="1452"/>
      <point x="1047" y="1315"/>
      <point x="1047" y="1131" type="curve" smooth="yes"/>
      <point x="1047" y="965"/>
      <point x="1006" y="772"/>
      <point x="737" y="772" type="curve" smooth="yes" name="hr07"/>
      <point x="487" y="772" type="line"/>
      <point x="479" y="703" type="line"/>
    </contour>
    <contour>
      <point x="716" y="1599" type="move" name="top"/>
    </contour>
    <contour>
      <point x="823" y="-300" type="move" name="btm"/>
    </contour>
  </outline>
</glyph>
<glyph name="S" format="1">
  <advance width="1366"/>
  <unicode hex="0053"/>
  <outline>
    <contour>
      <point x="261" y="180" type="line" name="hr01"/>
      <point x="294" y="84"/>
      <point x="504" y="-20"/>
      <point x="743" y="-20" type="curve" smooth="yes"/>
      <point x="1014" y="-20"/>
      <point x="1252" y="138"/>
      <point x="1252" y="431" type="curve" smooth="yes" name="hr02"/>
      <point x="1252" y="623"/>
      <point x="1151" y="746"/>
      <point x="817" y="882" type="curve" smooth="yes"/>
      <point x="459" y="1040"/>
      <point x="390" y="1116"/>
      <point x="390" y="1256" type="curve" smooth="yes"/>
      <point x="390" y="1385"/>
      <point x="529" y="1467"/>
      <point x="707" y="1467" type="curve" smooth="yes"/>
      <point x="890" y="1467"/>
      <point x="1065" y="1369"/>
      <point x="1087" y="1158" type="curve" name="hr03"/>
      <point x="1183" y="1158" type="line"/>
      <point x="1183" y="1530" type="line" name="hr04"/>
      <point x="1090" y="1530" type="line"/>
      <point x="1089" y="1473"/>
      <point x="1049" y="1425"/>
      <point x="1011" y="1413" type="curve"/>
      <point x="1087" y="1430" type="line"/>
      <point x="1038" y="1491"/>
      <point x="908" y="1550"/>
      <point x="718" y="1550" type="curve" smooth="yes" name="hr05"/>
      <point x="436" y="1550"/>
      <point x="188" y="1397"/>
      <point x="188" y="1138" type="curve" smooth="yes"/>
      <point x="188" y="925"/>
      <point x="284" y="767"/>
      <point x="679" y="625" type="curve" smooth="yes"/>
      <point x="1000" y="504"/>
      <point x="1058" y="407"/>
      <point x="1058" y="279" type="curve" smooth="yes"/>
      <point x="1058" y="135"/>
      <point x="918" y="63"/>
      <point x="741" y="63" type="curve" smooth="yes"/>
      <point x="503" y="63"/>
      <point x="331" y="207"/>
      <point x="280" y="408" type="curve"/>
      <point x="177" y="408" type="line" name="hr06"/>
      <point x="177" y="0" type="line"/>
      <point x="266" y="0" type="line"/>
      <point x="267" y="53"/>
      <point x="296" y="124"/>
      <point x="334" y="135" type="curve"/>
    </contour>
    <contour>
      <point x="709" y="1600" type="move" name="top"/>
    </contour>
    <contour>
      <point x="748" y="-300" type="move" name="btm"/>
    </contour>
  </outline>
</glyph>
<glyph name="T" format="1">
  <advance width="1535"/>
  <unicode hex="0054"/>
  <outline>
    <contour>
      <point x="632" y="59" type="line" name="hr01"/>
      <point x="902" y="59" type="line"/>
      <point x="902" y="1502" type="line" name="hr02"/>
      <point x="633" y="1502" type="line"/>
    </contour>
    <contour>
      <point x="1454" y="1530" type="line" name="hr03"/>
      <point x="80" y="1530" type="line"/>
      <point x="80" y="1453" type="line" name="hr04"/>
      <point x="1454" y="1453" type="line"/>
    </contour>
    <contour>
      <point x="80" y="1498" type="line"/>
      <point x="80" y="1049" type="line"/>
      <point x="158" y="1049" type="line"/>
      <point x="169" y="1290"/>
      <point x="214" y="1454"/>
      <point x="486" y="1454" type="curve" name="hr05"/>
    </contour>
    <contour>
      <point x="1048" y="1454" type="line"/>
      <point x="1320" y="1454"/>
      <point x="1365" y="1290"/>
      <point x="1376" y="1049" type="curve"/>
      <point x="1454" y="1049" type="line"/>
      <point x="1454" y="1498" type="line"/>
    </contour>
    <contour>
      <point x="1102" y="0" type="line"/>
      <point x="1102" y="78" type="line" name="hr06"/>
      <point x="433" y="78" type="line"/>
      <point x="433" y="0" type="line" name="hr07"/>
    </contour>
    <contour>
      <point x="768" y="1600" type="move" name="top"/>
    </contour>
    <contour>
      <point x="772" y="-300" type="move" name="btm"/>
    </contour>
  </outline>
</glyph>
<glyph name="U" format="1">
  <advance width="1539"/>
  <unicode hex="0055"/>
  <outline>
    <contour>
      <point x="1079" y="1530" type="line" name="hr01"/>
      <point x="1079" y="1452" type="line"/>
      <point x="1479" y="1452" type="line"/>
      <point x="1479" y="1530" type="line"/>
    </contour>
    <contour>
      <point x="182" y="559" type="line"/>
      <point x="182" y="27"/>
      <point x="604" y="-20"/>
      <point x="798" y="-20" type="curve" smooth="yes"/>
      <point x="1111" y="-20"/>
      <point x="1333" y="144"/>
      <point x="1333" y="529" type="curve" smooth="yes"/>
      <point x="1333" y="1508" type="line" name="hr02"/>
      <point x="1235" y="1508" type="line"/>
      <point x="1235" y="543" type="line" smooth="yes"/>
      <point x="1235" y="127"/>
      <point x="976" y="73"/>
      <point x="812" y="73" type="curve" smooth="yes"/>
      <point x="577" y="73"/>
      <point x="452" y="180"/>
      <point x="452" y="525" type="curve" smooth="yes"/>
      <point x="452" y="1502" type="line" name="hr03"/>
      <point x="183" y="1501" type="line"/>
    </contour>
    <contour>
      <point x="46" y="1530" type="line" name="hr04"/>
      <point x="46" y="1452" type="line"/>
      <point x="598" y="1452" type="line"/>
      <point x="598" y="1530" type="line"/>
    </contour>
    <contour>
      <point x="1332" y="0" type="move" name="og"/>
    </contour>
    <contour>
      <point x="804" y="1599" type="move" name="top"/>
    </contour>
  </outline>
</glyph>
<glyph name="V" format="1">
  <advance width="1539"/>
  <unicode hex="0056"/>
  <outline>
    <contour>
      <point x="1408" y="1470" type="line" name="hr01"/>
      <point x="1298" y="1466" type="line"/>
      <point x="865" y="284" type="line"/>
      <point x="888" y="289" type="line"/>
      <point x="426" y="1474" type="line" name="hr02"/>
      <point x="111" y="1476" type="line"/>
      <point x="761" y="-20" type="line"/>
      <point x="846" y="-20" type="line"/>
    </contour>
    <contour>
      <point x="1555" y="1452" type="line" name="hr03"/>
      <point x="1555" y="1530" type="line"/>
      <point x="1105" y="1530" type="line"/>
      <point x="1105" y="1452" type="line"/>
    </contour>
    <contour>
      <point x="-13" y="1530" type="line"/>
      <point x="-13" y="1452" type="line"/>
      <point x="627" y="1452" type="line"/>
      <point x="627" y="1530" type="line"/>
    </contour>
  </outline>
</glyph>
<glyph name="W" format="1">
  <advance width="2220"/>
  <unicode hex="0057"/>
  <outline>
    <contour>
      <point x="596" y="1452" type="line" name="hr01"/>
      <point x="596" y="1530" type="line"/>
      <point x="-49" y="1530" type="line"/>
      <point x="-49" y="1452" type="line"/>
    </contour>
    <contour>
      <point x="2293" y="1452" type="line"/>
      <point x="2293" y="1530" type="line"/>
      <point x="1843" y="1530" type="line"/>
      <point x="1843" y="1452" type="line"/>
    </contour>
    <contour>
      <point x="743" y="-20" type="line"/>
      <point x="1209" y="1368" type="line"/>
      <point x="1165" y="1530" type="line"/>
      <point x="748" y="267" type="line"/>
      <point x="795" y="279" type="line"/>
      <point x="389" y="1472" type="line" name="hr02"/>
      <point x="91" y="1472" type="line"/>
      <point x="653" y="-20" type="line"/>
    </contour>
    <contour>
      <point x="1642" y="-20" type="line"/>
      <point x="2145" y="1472" type="line" name="hr03"/>
      <point x="2041" y="1473" type="line" name="hr04"/>
      <point x="1659" y="305" type="line"/>
      <point x="1699" y="279" type="line"/>
      <point x="1238" y="1530" type="line" name="hr05"/>
      <point x="1165" y="1530" type="line"/>
      <point x="1104" y="1117" type="line"/>
      <point x="1550" y="-20" type="line"/>
    </contour>
    <contour>
      <point x="1199" y="1600" type="move" name="top"/>
    </contour>
  </outline>
</glyph>
<glyph name="X" format="1">
  <advance width="1538"/>
  <unicode hex="0058"/>
  <outline>
    <contour>
      <point x="17" y="78" type="line" name="hr01"/>
      <point x="17" y="0" type="line"/>
      <point x="484" y="0" type="line"/>
      <point x="484" y="78" type="line"/>
    </contour>
    <contour>
      <point x="1514" y="1452" type="line"/>
      <point x="1514" y="1531" type="line" name="hr02"/>
      <point x="1064" y="1531" type="line"/>
      <point x="1064" y="1452" type="line" name="hr03"/>
    </contour>
    <contour>
      <point x="1244" y="1466" type="line" name="hr04"/>
      <point x="807" y="874" type="line"/>
      <point x="868" y="808" type="line"/>
      <point x="1354" y="1467" type="line"/>
    </contour>
    <contour>
      <point x="889" y="78" type="line"/>
      <point x="889" y="0" type="line"/>
      <point x="1523" y="0" type="line"/>
      <point x="1523" y="78" type="line"/>
    </contour>
    <contour>
      <point x="1094" y="43" type="line" name="hr05"/>
      <point x="1409" y="46" type="line"/>
      <point x="439" y="1491" type="line"/>
      <point x="140" y="1484" type="line" name="hr06"/>
    </contour>
    <contour>
      <point x="166" y="49" type="line"/>
      <point x="278" y="46" type="line"/>
      <point x="765" y="704" type="line"/>
      <point x="675" y="731" type="line"/>
    </contour>
    <contour>
      <point x="15" y="1530" type="line" name="hr07"/>
      <point x="15" y="1452" type="line"/>
      <point x="650" y="1452" type="line"/>
      <point x="650" y="1530" type="line"/>
    </contour>
  </outline>
</glyph>
<glyph name="Y" format="1">
  <advance width="1539"/>
  <unicode hex="0059"/>
  <outline>
    <contour>
      <point x="1384" y="1470" type="line" name="hr01"/>
      <point x="1274" y="1466" type="line"/>
      <point x="829" y="677" type="line"/>
      <point x="885" y="689" type="line"/>
      <point x="435" y="1481" type="line" name="hr02"/>
      <point x="117" y="1482" type="line"/>
      <point x="712" y="480" type="line"/>
      <point x="808" y="463" type="line"/>
    </contour>
    <contour>
      <point x="1524" y="1452" type="line" name="hr03"/>
      <point x="1524" y="1530" type="line"/>
      <point x="1082" y="1530" type="line"/>
      <point x="1082" y="1452" type="line"/>
    </contour>
    <contour>
      <point x="10" y="1530" type="line"/>
      <point x="10" y="1452" type="line"/>
      <point x="654" y="1452" type="line"/>
      <point x="654" y="1530" type="line"/>
    </contour>
    <contour>
      <point x="448" y="78" type="line"/>
      <point x="448" y="0" type="line" name="hr04"/>
      <point x="1115" y="0" type="line"/>
      <point x="1115" y="78" type="line" name="hr05"/>
    </contour>
    <contour>
      <point x="646" y="59" type="line"/>
      <point x="916" y="59" type="line"/>
      <point x="916" y="705" type="line"/>
      <point x="647" y="704" type="line"/>
    </contour>
    <contour>
      <point x="785" y="1600" type="move" name="top"/>
    </contour>
  </outline>
</glyph>
<glyph name="Z" format="1">
  <advance width="1538"/>
  <unicode hex="005A"/>
  <outline>
    <contour>
      <point x="140" y="117" type="line" name="hr00"/>
      <point x="1123" y="1496" type="line"/>
      <point x="1210" y="1452" type="line"/>
      <point x="646" y="1452" type="line" smooth="yes"/>
      <point x="376" y="1452"/>
      <point x="323" y="1343"/>
      <point x="304" y="1091" type="curve"/>
      <point x="212" y="1091" type="line"/>
      <point x="212" y="1530" type="line"/>
      <point x="1375" y="1530" type="line"/>
      <point x="1375" y="1415" type="line"/>
      <point x="411" y="40" type="line"/>
      <point x="382" y="78" type="line"/>
      <point x="1010" y="78" type="line" smooth="yes"/>
      <point x="1291" y="78"/>
      <point x="1314" y="229"/>
      <point x="1320" y="437" type="curve"/>
      <point x="1413" y="437" type="line"/>
      <point x="1413" y="0" type="line"/>
      <point x="140" y="0" type="line"/>
    </contour>
    <contour>
      <point x="804" y="1600" type="move" name="top"/>
    </contour>
  </outline>
</glyph>
<glyph name="bracketleft" format="1">
  <advance width="1024"/>
  <unicode hex="005B"/>
  <outline>
    <contour>
      <point x="341" y="1767" type="line" name="hr00"/>
      <point x="341" y="-560" type="line"/>
      <point x="808" y="-560" type="line"/>
      <point x="808" y="-482" type="line"/>
      <point x="544" y="-482" type="line"/>
      <point x="544" y="1689" type="line"/>
      <point x="809" y="1689" type="line"/>
      <point x="809" y="1767" type="line"/>
    </contour>
  </outline>
</glyph>
<glyph name="asciicircum" format="1">
  <advance width="1707"/>
  <unicode hex="005E"/>
  <outline>
    <contour>
      <point x="891" y="1527" type="line" name="hr00"/>
      <point x="1364" y="543" type="line"/>
      <point x="1245" y="543" type="line"/>
      <point x="823" y="1449" type="line"/>
      <point x="878" y="1449" type="line"/>
      <point x="460" y="543" type="line"/>
      <point x="341" y="543" type="line"/>
      <point x="816" y="1527" type="line"/>
    </contour>
  </outline>
</glyph>
<glyph name="underscore" format="1">
  <advance width="1368"/>
  <unicode hex="005F"/>
  <outline>
    <contour>
      <point x="-10" y="-205" type="line" name="hr00"/>
      <point x="-10" y="-333" type="line"/>
      <point x="1378" y="-333" type="line"/>
      <point x="1378" y="-205" type="line"/>
    </contour>
  </outline>
</glyph>
<glyph name="grave" format="1">
  <advance width="1707"/>
  <unicode hex="0060"/>
  <outline>
    <contour>
      <point x="851" y="1218" type="line" name="hr00"/>
      <point x="820" y="1184" type="line"/>
      <point x="466" y="1406" type="line" smooth="yes"/>
      <point x="421" y="1434"/>
      <point x="410" y="1477"/>
      <point x="412" y="1517" type="curve" smooth="yes"/>
      <point x="416" y="1586"/>
      <point x="479" y="1624"/>
      <point x="536" y="1618" type="curve"/>
      <point x="583" y="1612"/>
      <point x="605" y="1592"/>
      <point x="631" y="1552" type="curve" smooth="yes"/>
    </contour>
    <contour>
      <point x="754" y="1200" type="move" name="_top"/>
    </contour>
  </outline>
</glyph>
<glyph name="a" format="1">
  <advance width="1195"/>
  <unicode hex="0061"/>
  <outline>
    <contour>
      <point x="789" y="441" type="line" name="hr01"/>
      <point x="730" y="506"/>
      <point x="626" y="565"/>
      <point x="463" y="565" type="curve" smooth="yes"/>
      <point x="257" y="565"/>
      <point x="92" y="461"/>
      <point x="92" y="282" type="curve" smooth="yes"/>
      <point x="92" y="96"/>
      <point x="255" y="-20"/>
      <point x="468" y="-20" type="curve" smooth="yes"/>
      <point x="651" y="-20"/>
      <point x="780" y="105"/>
      <point x="803" y="175" type="curve" name="hr02"/>
      <point x="795" y="317" type="line"/>
      <point x="798" y="216"/>
      <point x="670" y="78"/>
      <point x="530" y="78" type="curve" smooth="yes"/>
      <point x="444" y="78"/>
      <point x="358" y="122"/>
      <point x="358" y="276" type="curve" smooth="yes"/>
      <point x="358" y="416"/>
      <point x="432" y="476"/>
      <point x="546" y="476" type="curve" smooth="yes"/>
      <point x="650" y="476"/>
      <point x="749" y="415"/>
      <point x="789" y="337" type="curve" name="hr03"/>
    </contour>
    <contour>
      <point x="744" y="425" type="line"/>
      <point x="747" y="407" type="line"/>
      <point x="747" y="192" type="line"/>
      <point x="756" y="147" type="line"/>
      <point x="774" y="44"/>
      <point x="860" y="-18"/>
      <point x="975" y="-18" type="curve" smooth="yes"/>
      <point x="1059" y="-18"/>
      <point x="1138" y="29"/>
      <point x="1174" y="85" type="curve"/>
      <point x="1122" y="128" type="line"/>
      <point x="1096" y="93"/>
      <point x="1070" y="78"/>
      <point x="1044" y="78" type="curve" smooth="yes"/>
      <point x="1016" y="78"/>
      <point x="1002" y="97"/>
      <point x="1002" y="161" type="curve" smooth="yes"/>
      <point x="1002" y="694" type="line" smooth="yes"/>
      <point x="1002" y="911"/>
      <point x="861" y="1039"/>
      <point x="561" y="1039" type="curve" smooth="yes"/>
      <point x="411" y="1039"/>
      <point x="164" y="961"/>
      <point x="164" y="800" type="curve" smooth="yes"/>
      <point x="164" y="711"/>
      <point x="226" y="662"/>
      <point x="299" y="662" type="curve" smooth="yes"/>
      <point x="367" y="662"/>
      <point x="432" y="713"/>
      <point x="432" y="793" type="curve" smooth="yes"/>
      <point x="432" y="859"/>
      <point x="379" y="899"/>
      <point x="353" y="908" type="curve"/>
      <point x="374" y="929"/>
      <point x="447" y="961"/>
      <point x="539" y="961" type="curve" smooth="yes"/>
      <point x="711" y="961"/>
      <point x="744" y="867"/>
      <point x="744" y="720" type="curve" smooth="yes"/>
    </contour>
    <contour>
      <point x="578" y="1200" type="move" name="top"/>
    </contour>
    <contour>
      <point x="957" y="-300" type="move" name="btm"/>
    </contour>
    <contour>
      <point x="1158" y="0" type="move" name="og"/>
    </contour>
  </outline>
</glyph>
<glyph name="b" format="1">
  <advance width="1365"/>
  <unicode hex="0062"/>
  <outline>
    <contour>
      <point x="471" y="0" type="line" name="hr00"/>
      <point x="61" y="0" type="line"/>
      <point x="61" y="78" type="line"/>
      <point x="211" y="78" type="line"/>
      <point x="211" y="1604" type="line"/>
      <point x="61" y="1604" type="line"/>
      <point x="61" y="1684" type="line"/>
      <point x="471" y="1684" type="line"/>
    </contour>
    <contour>
      <point x="429" y="239" type="line"/>
      <point x="487" y="128"/>
      <point x="626" y="66"/>
      <point x="738" y="66" type="curve" smooth="yes"/>
      <point x="889" y="66"/>
      <point x="999" y="181"/>
      <point x="999" y="506" type="curve" smooth="yes"/>
      <point x="999" y="887"/>
      <point x="855" y="949"/>
      <point x="739" y="948" type="curve" smooth="yes"/>
      <point x="610" y="946"/>
      <point x="495" y="860"/>
      <point x="441" y="738" type="curve"/>
      <point x="435" y="864" type="line"/>
      <point x="473" y="941"/>
      <point x="607" y="1040"/>
      <point x="807" y="1040" type="curve" smooth="yes"/>
      <point x="1065" y="1040"/>
      <point x="1279" y="882"/>
      <point x="1279" y="507" type="curve" smooth="yes"/>
      <point x="1279" y="175"/>
      <point x="1047" y="-20"/>
      <point x="780" y="-20" type="curve" smooth="yes"/>
      <point x="645" y="-20"/>
      <point x="499" y="31"/>
      <point x="438" y="105" type="curve"/>
    </contour>
    <contour>
      <point x="808" y="1200" type="move" name="top"/>
    </contour>
  </outline>
</glyph>
<glyph name="c" format="1">
  <advance width="1026"/>
  <unicode hex="0063"/>
  <outline>
    <contour>
      <point x="863" y="669" type="curve" smooth="yes" name="hr00"/>
      <point x="938" y="669"/>
      <point x="997" y="723"/>
      <point x="997" y="805" type="curve" smooth="yes"/>
      <point x="997" y="968"/>
      <point x="784" y="1040"/>
      <point x="624" y="1040" type="curve" smooth="yes"/>
      <point x="310" y="1040"/>
      <point x="67" y="846"/>
      <point x="67" y="519" type="curve" smooth="yes"/>
      <point x="67" y="177"/>
      <point x="309" y="-20"/>
      <point x="630" y="-20" type="curve" smooth="yes"/>
      <point x="813" y="-20"/>
      <point x="942" y="72"/>
      <point x="998" y="144" type="curve"/>
      <point x="946" y="192" type="line"/>
      <point x="879" y="122"/>
      <point x="787" y="76"/>
      <point x="652" y="76" type="curve" smooth="yes"/>
      <point x="446" y="76"/>
      <point x="343" y="246"/>
      <point x="343" y="514" type="curve" smooth="yes"/>
      <point x="343" y="793"/>
      <point x="429" y="963"/>
      <point x="631" y="963" type="curve" smooth="yes"/>
      <point x="722" y="963"/>
      <point x="782" y="931"/>
      <point x="802" y="917" type="curve"/>
      <point x="763" y="899"/>
      <point x="729" y="861"/>
      <point x="729" y="791" type="curve" smooth="yes"/>
      <point x="729" y="715"/>
      <point x="792" y="669"/>
    </contour>
    <contour>
      <point x="558" y="-300" type="move" name="btm"/>
    </contour>
    <contour>
      <point x="575" y="1200" type="move" name="top"/>
    </contour>
  </outline>
</glyph>
<glyph name="d" format="1">
  <advance width="1365"/>
  <unicode hex="0064"/>
  <outline>
    <contour>
      <point x="925" y="0" type="line" name="hr01"/>
      <point x="1333" y="0" type="line"/>
      <point x="1333" y="78" type="line"/>
      <point x="1185" y="78" type="line"/>
      <point x="1185" y="1684" type="line"/>
      <point x="718" y="1684" type="line"/>
      <point x="718" y="1606" type="line"/>
      <point x="925" y="1606" type="line"/>
    </contour>
    <contour>
      <point x="960" y="915" type="line"/>
      <point x="899" y="989"/>
      <point x="753" y="1040"/>
      <point x="618" y="1040" type="curve" smooth="yes"/>
      <point x="351" y="1040"/>
      <point x="119" y="845"/>
      <point x="119" y="513" type="curve" smooth="yes"/>
      <point x="119" y="138"/>
      <point x="333" y="-20"/>
      <point x="591" y="-20" type="curve" smooth="yes" name="hr02"/>
      <point x="791" y="-20"/>
      <point x="925" y="79"/>
      <point x="963" y="156" type="curve"/>
      <point x="957" y="282" type="line"/>
      <point x="903" y="160"/>
      <point x="788" y="74"/>
      <point x="659" y="72" type="curve" smooth="yes"/>
      <point x="543" y="71"/>
      <point x="399" y="133"/>
      <point x="399" y="514" type="curve" smooth="yes"/>
      <point x="399" y="839"/>
      <point x="509" y="954"/>
      <point x="660" y="954" type="curve" smooth="yes"/>
      <point x="772" y="954"/>
      <point x="911" y="892"/>
      <point x="969" y="781" type="curve"/>
    </contour>
    <contour>
      <point x="537" y="1200" type="move" name="top"/>
    </contour>
  </outline>
</glyph>
<glyph name="e" format="1">
  <advance width="1194"/>
  <unicode hex="0065"/>
  <outline>
    <contour>
      <point x="97" y="518" type="curve" smooth="yes" name="hr01"/>
      <point x="97" y="826"/>
      <point x="327" y="1039"/>
      <point x="635" y="1039" type="curve" smooth="yes"/>
      <point x="947" y="1039"/>
      <point x="1097" y="852"/>
      <point x="1097" y="544" type="curve"/>
      <point x="289" y="544" type="line"/>
      <point x="289" y="626" type="line"/>
      <point x="828" y="626" type="line" name="hr02"/>
      <point x="825" y="839"/>
      <point x="768" y="955"/>
      <point x="625" y="955" type="curve" smooth="yes"/>
      <point x="443" y="955"/>
      <point x="373" y="784"/>
      <point x="373" y="514" type="curve" smooth="yes"/>
      <point x="373" y="262"/>
      <point x="470" y="75"/>
      <point x="689" y="75" type="curve" smooth="yes"/>
      <point x="800" y="75"/>
      <point x="919" y="123"/>
      <point x="1019" y="223" type="curve"/>
      <point x="1072" y="175" type="line"/>
      <point x="983" y="65"/>
      <point x="827" y="-20"/>
      <point x="658" y="-20" type="curve" smooth="yes"/>
      <point x="314" y="-20"/>
      <point x="97" y="207"/>
    </contour>
    <contour>
      <point x="603" y="1200" type="move" name="top"/>
    </contour>
    <contour>
      <point x="680" y="-300" type="move" name="btm"/>
    </contour>
    <contour>
      <point x="1068" y="0" type="move" name="og"/>
    </contour>
  </outline>
</glyph>
<glyph name="f" format="1">
  <advance width="855"/>
  <unicode hex="0066"/>
  <outline>
    <contour>
      <point x="287" y="78" type="line" name="hr00"/>
      <point x="287" y="945" type="line"/>
      <point x="125" y="945" type="line"/>
      <point x="125" y="1023" type="line"/>
      <point x="287" y="1023" type="line"/>
      <point x="287" y="1276" type="line" smooth="yes"/>
      <point x="287" y="1563"/>
      <point x="447" y="1700"/>
      <point x="668" y="1700" type="curve" smooth="yes"/>
      <point x="850" y="1700"/>
      <point x="970" y="1591"/>
      <point x="970" y="1457" type="curve" smooth="yes"/>
      <point x="970" y="1377"/>
      <point x="906" y="1325"/>
      <point x="842" y="1325" type="curve" smooth="yes"/>
      <point x="778" y="1325"/>
      <point x="720" y="1370"/>
      <point x="720" y="1440" type="curve" smooth="yes"/>
      <point x="720" y="1519"/>
      <point x="776" y="1556"/>
      <point x="826" y="1563" type="curve"/>
      <point x="811" y="1595"/>
      <point x="758" y="1621"/>
      <point x="694" y="1621" type="curve" smooth="yes"/>
      <point x="579" y="1621"/>
      <point x="548" y="1514"/>
      <point x="548" y="1325" type="curve" smooth="yes"/>
      <point x="548" y="1023" type="line"/>
      <point x="752" y="1023" type="line"/>
      <point x="772" y="945" type="line"/>
      <point x="547" y="945" type="line"/>
      <point x="547" y="78" type="line"/>
      <point x="757" y="78" type="line"/>
      <point x="757" y="0" type="line"/>
      <point x="125" y="0" type="line"/>
      <point x="125" y="78" type="line"/>
    </contour>
    <contour>
      <point x="428" y="1700" type="move" name="top"/>
    </contour>
  </outline>
</glyph>
<glyph name="g" format="1">
  <advance width="1194"/>
  <unicode hex="0067"/>
  <outline>
    <contour>
      <point x="908" y="906" type="line" name="hr01"/>
      <point x="977" y="902"/>
      <point x="1147" y="984"/>
      <point x="1147" y="1111" type="curve" name="hr02"/>
      <point x="1147" y="1111"/>
      <point x="1025" y="1137"/>
      <point x="1025" y="1137" type="curve"/>
      <point x="1013" y="1040"/>
      <point x="967" y="956"/>
      <point x="804" y="960" type="curve"/>
      <point x="804" y="946"/>
      <point x="859" y="918"/>
      <point x="859" y="918" type="curve"/>
    </contour>
    <contour>
      <point x="1026" y="984" type="curve" smooth="yes"/>
      <point x="1095" y="984"/>
      <point x="1147" y="1046"/>
      <point x="1147" y="1111" type="curve" smooth="yes"/>
      <point x="1147" y="1179"/>
      <point x="1091" y="1232"/>
      <point x="1024" y="1232" type="curve" smooth="yes"/>
      <point x="948" y="1232"/>
      <point x="897" y="1167"/>
      <point x="897" y="1106" type="curve" smooth="yes"/>
      <point x="897" y="1034"/>
      <point x="964" y="984"/>
    </contour>
    <contour>
      <point x="122" y="124" type="curve" smooth="yes"/>
      <point x="122" y="29"/>
      <point x="212" y="-53"/>
      <point x="329" y="-68" type="curve"/>
      <point x="329" y="-61" type="line"/>
      <point x="200" y="-92"/>
      <point x="98" y="-185"/>
      <point x="98" y="-299" type="curve" smooth="yes" name="hr03"/>
      <point x="98" y="-492"/>
      <point x="351" y="-560"/>
      <point x="612" y="-560" type="curve" smooth="yes"/>
      <point x="897" y="-560"/>
      <point x="1161" y="-443"/>
      <point x="1161" y="-181" type="curve" smooth="yes"/>
      <point x="1161" y="81"/>
      <point x="906" y="130"/>
      <point x="687" y="130" type="curve" smooth="yes"/>
      <point x="406" y="130" type="line" smooth="yes"/>
      <point x="299" y="130"/>
      <point x="256" y="162"/>
      <point x="256" y="215" type="curve" smooth="yes" name="hr04"/>
      <point x="256" y="275"/>
      <point x="326" y="329"/>
      <point x="425" y="354" type="curve"/>
      <point x="425" y="354"/>
      <point x="348" y="391"/>
      <point x="348" y="391" type="curve"/>
      <point x="249" y="353"/>
      <point x="122" y="259"/>
    </contour>
    <contour>
      <point x="293" y="-284" type="curve" smooth="yes" name="hr06"/>
      <point x="293" y="-183"/>
      <point x="356" y="-102"/>
      <point x="446" y="-78" type="curve"/>
      <point x="751" y="-78" type="line" smooth="yes"/>
      <point x="916" y="-78"/>
      <point x="975" y="-177"/>
      <point x="975" y="-267" type="curve" smooth="yes"/>
      <point x="975" y="-381"/>
      <point x="855" y="-477"/>
      <point x="622" y="-477" type="curve" smooth="yes"/>
      <point x="485" y="-477"/>
      <point x="293" y="-452"/>
    </contour>
    <contour>
      <point x="144" y="655" type="curve" name="hr07"/>
      <point x="144" y="432"/>
      <point x="342" y="285"/>
      <point x="593" y="285" type="curve" smooth="yes"/>
      <point x="847" y="285"/>
      <point x="1052" y="434"/>
      <point x="1052" y="654" type="curve" smooth="yes"/>
      <point x="1052" y="874"/>
      <point x="852" y="1039"/>
      <point x="597" y="1039" type="curve" smooth="yes"/>
      <point x="346" y="1039"/>
      <point x="144" y="879"/>
    </contour>
    <contour>
      <point x="388" y="655" type="curve"/>
      <point x="388" y="821"/>
      <point x="432" y="956"/>
      <point x="597" y="956" type="curve" smooth="yes"/>
      <point x="761" y="956"/>
      <point x="808" y="821"/>
      <point x="808" y="656" type="curve" smooth="yes"/>
      <point x="808" y="487"/>
      <point x="755" y="368"/>
      <point x="592" y="368" type="curve" smooth="yes"/>
      <point x="428" y="368"/>
      <point x="388" y="489"/>
    </contour>
    <contour>
      <point x="597" y="1200" type="move" name="top"/>
    </contour>
  </outline>
</glyph>
<glyph name="h" format="1">
  <advance width="1363"/>
  <unicode hex="0068"/>
  <outline>
    <contour>
      <point x="768" y="78" type="line" name="hr00"/>
      <point x="768" y="0" type="line"/>
      <point x="1352" y="0" type="line"/>
      <point x="1352" y="78" type="line"/>
      <point x="1190" y="78" type="line"/>
      <point x="1190" y="692" type="line" smooth="yes"/>
      <point x="1190" y="974"/>
      <point x="960" y="1040"/>
      <point x="821" y="1040" type="curve" smooth="yes"/>
      <point x="652" y="1040"/>
      <point x="512" y="950"/>
      <point x="429" y="848" type="curve"/>
      <point x="427" y="718" type="line"/>
      <point x="510" y="870"/>
      <point x="647" y="945"/>
      <point x="773" y="945" type="curve" smooth="yes"/>
      <point x="899" y="945"/>
      <point x="930" y="857"/>
      <point x="930" y="712" type="curve" smooth="yes"/>
      <point x="930" y="78" type="line"/>
    </contour>
    <contour>
      <point x="55" y="78" type="line"/>
      <point x="55" y="0" type="line"/>
      <point x="639" y="0" type="line"/>
      <point x="639" y="78" type="line"/>
      <point x="477" y="78" type="line"/>
      <point x="477" y="1684" type="line"/>
      <point x="45" y="1684" type="line"/>
      <point x="45" y="1606" type="line"/>
      <point x="217" y="1606" type="line"/>
      <point x="217" y="78" type="line"/>
    </contour>
    <contour>
      <point x="790" y="1600" type="move" name="top"/>
    </contour>
  </outline>
</glyph>
<glyph name="i" format="1">
  <advance width="683"/>
  <unicode hex="0069"/>
  <outline>
    <contour>
      <point x="355" y="1227" type="curve" smooth="yes" name="hr00"/>
      <point x="278" y="1227"/>
      <point x="217" y="1289"/>
      <point x="217" y="1365" type="curve" smooth="yes"/>
      <point x="217" y="1444"/>
      <point x="278" y="1504"/>
      <point x="355" y="1504" type="curve" smooth="yes"/>
      <point x="433" y="1504"/>
      <point x="493" y="1444"/>
      <point x="493" y="1365" type="curve" smooth="yes"/>
      <point x="493" y="1289"/>
      <point x="433" y="1227"/>
    </contour>
    <contour>
      <point x="61" y="0" type="line"/>
      <point x="650" y="0" type="line"/>
      <point x="650" y="78" type="line"/>
      <point x="488" y="78" type="line"/>
      <point x="488" y="1023" type="line"/>
      <point x="75" y="1023" type="line"/>
      <point x="75" y="945" type="line"/>
      <point x="223" y="945" type="line"/>
      <point x="223" y="78" type="line"/>
      <point x="61" y="78" type="line"/>
    </contour>
    <contour>
      <point x="650" y="0" type="move" name="og"/>
    </contour>
  </outline>
</glyph>
<glyph name="j" format="1">
  <advance width="683"/>
  <unicode hex="006A"/>
  <outline>
    <contour>
      <point x="233" y="945" type="line" name="hr00"/>
      <point x="86" y="945" type="line"/>
      <point x="86" y="1023" type="line"/>
      <point x="498" y="1023" type="line"/>
      <point x="498" y="-45" type="line" smooth="yes"/>
      <point x="498" y="-459"/>
      <point x="276" y="-560"/>
      <point x="83" y="-560" type="curve"/>
      <point x="63" y="-484" type="line"/>
      <point x="213" y="-483"/>
      <point x="233" y="-359"/>
      <point x="233" y="7" type="curve" smooth="yes"/>
    </contour>
    <contour>
      <point x="368" y="1227" type="curve" smooth="yes"/>
      <point x="291" y="1227"/>
      <point x="230" y="1289"/>
      <point x="230" y="1365" type="curve" smooth="yes"/>
      <point x="230" y="1444"/>
      <point x="291" y="1504"/>
      <point x="368" y="1504" type="curve" smooth="yes"/>
      <point x="446" y="1504"/>
      <point x="506" y="1444"/>
      <point x="506" y="1365" type="curve" smooth="yes"/>
      <point x="506" y="1289"/>
      <point x="446" y="1227"/>
    </contour>
  </outline>
</glyph>
<glyph name="k" format="1">
  <advance width="1367"/>
  <unicode hex="006B"/>
  <outline>
    <contour>
      <point x="997" y="962" type="line" name="hr01"/>
      <point x="417" y="470" type="line"/>
      <point x="472" y="475" type="line"/>
      <point x="472" y="1684" type="line"/>
      <point x="59" y="1684" type="line"/>
      <point x="59" y="1606" type="line"/>
      <point x="212" y="1606" type="line"/>
      <point x="212" y="78" type="line"/>
      <point x="59" y="78" type="line"/>
      <point x="59" y="0" type="line"/>
      <point x="620" y="0" type="line"/>
      <point x="620" y="78" type="line"/>
      <point x="472" y="78" type="line"/>
      <point x="472" y="456" type="line"/>
      <point x="424" y="375" type="line"/>
      <point x="1107" y="946" type="line"/>
    </contour>
    <contour>
      <point x="1238" y="946" type="line"/>
      <point x="1238" y="1023" type="line"/>
      <point x="792" y="1023" type="line"/>
      <point x="792" y="946" type="line"/>
    </contour>
    <contour>
      <point x="1243" y="17" type="line" name="hr02"/>
      <point x="754" y="719" type="line"/>
      <point x="562" y="581" type="line"/>
      <point x="944" y="18" type="line"/>
    </contour>
    <contour>
      <point x="762" y="78" type="line" name="hr03"/>
      <point x="762" y="0" type="line"/>
      <point x="1337" y="0" type="line"/>
      <point x="1337" y="78" type="line"/>
    </contour>
    <contour>
      <point x="707" y="-300" type="move" name="btm"/>
    </contour>
  </outline>
</glyph>
<glyph name="l" format="1">
  <advance width="683"/>
  <unicode hex="006C"/>
  <outline>
    <contour>
      <point x="60" y="0" type="line" name="hr00"/>
      <point x="649" y="0" type="line"/>
      <point x="649" y="78" type="line"/>
      <point x="481" y="78" type="line"/>
      <point x="481" y="1684" type="line"/>
      <point x="53" y="1684" type="line"/>
      <point x="53" y="1605" type="line"/>
      <point x="216" y="1605" type="line"/>
      <point x="216" y="78" type="line"/>
      <point x="60" y="78" type="line"/>
    </contour>
    <contour>
      <point x="370" y="-300" type="move" name="btm"/>
    </contour>
  </outline>
</glyph>
<glyph name="m" format="1">
  <advance width="2042"/>
  <unicode hex="006D"/>
  <outline>
    <contour>
      <point x="902" y="78" type="line" name="hr01"/>
      <point x="902" y="729" type="line" smooth="yes"/>
      <point x="902" y="856"/>
      <point x="873" y="944"/>
      <point x="752" y="944" type="curve" smooth="yes"/>
      <point x="620" y="944"/>
      <point x="506" y="859"/>
      <point x="441" y="749" type="curve"/>
      <point x="420" y="733" type="line"/>
      <point x="425" y="850" type="line"/>
      <point x="515" y="953"/>
      <point x="633" y="1040"/>
      <point x="806" y="1040" type="curve" smooth="yes"/>
      <point x="949" y="1040"/>
      <point x="1162" y="965"/>
      <point x="1162" y="706" type="curve" smooth="yes"/>
      <point x="1162" y="78" type="line"/>
      <point x="1325" y="78" type="line"/>
      <point x="1325" y="0" type="line"/>
      <point x="740" y="0" type="line" name="hr02"/>
      <point x="740" y="78" type="line"/>
    </contour>
    <contour>
      <point x="1594" y="78" type="line"/>
      <point x="1594" y="722" type="line" smooth="yes"/>
      <point x="1594" y="857"/>
      <point x="1557" y="944"/>
      <point x="1436" y="944" type="curve" smooth="yes"/>
      <point x="1296" y="944"/>
      <point x="1178" y="848"/>
      <point x="1124" y="726" type="curve"/>
      <point x="1110" y="849" type="line"/>
      <point x="1194" y="948"/>
      <point x="1307" y="1040"/>
      <point x="1485" y="1040" type="curve" smooth="yes"/>
      <point x="1624" y="1040"/>
      <point x="1854" y="974"/>
      <point x="1854" y="692" type="curve" smooth="yes"/>
      <point x="1854" y="78" type="line"/>
      <point x="2017" y="78" type="line"/>
      <point x="2017" y="0" type="line"/>
      <point x="1422" y="0" type="line"/>
      <point x="1422" y="78" type="line"/>
    </contour>
    <contour>
      <point x="482" y="78" type="line" name="hr03"/>
      <point x="645" y="78" type="line" name="hr04"/>
      <point x="645" y="0" type="line"/>
      <point x="60" y="0" type="line"/>
      <point x="60" y="78" type="line"/>
      <point x="222" y="78" type="line"/>
      <point x="222" y="947" type="line"/>
      <point x="59" y="947" type="line"/>
      <point x="59" y="1023" type="line"/>
      <point x="482" y="1023" type="line" name="hr05"/>
    </contour>
    <contour>
      <point x="1032" y="1200" type="move" name="top"/>
    </contour>
  </outline>
</glyph>
<glyph name="n" format="1">
  <advance width="1365"/>
  <unicode hex="006E"/>
  <outline>
    <contour>
      <point x="931" y="78" type="line" name="hr01"/>
      <point x="931" y="712" type="line" smooth="yes"/>
      <point x="931" y="857"/>
      <point x="900" y="945"/>
      <point x="774" y="945" type="curve" smooth="yes"/>
      <point x="660" y="945"/>
      <point x="559" y="889"/>
      <point x="475" y="790" type="curve"/>
      <point x="434" y="846" type="line"/>
      <point x="517" y="948"/>
      <point x="653" y="1040"/>
      <point x="822" y="1040" type="curve" smooth="yes"/>
      <point x="961" y="1040"/>
      <point x="1191" y="974"/>
      <point x="1191" y="692" type="curve" smooth="yes"/>
      <point x="1191" y="78" type="line"/>
      <point x="1353" y="78" type="line"/>
      <point x="1353" y="0" type="line"/>
      <point x="749" y="0" type="line" name="hr02"/>
      <point x="749" y="78" type="line"/>
    </contour>
    <contour>
      <point x="219" y="78" type="line"/>
      <point x="219" y="945" type="line"/>
      <point x="56" y="945" type="line"/>
      <point x="56" y="1023" type="line"/>
      <point x="479" y="1023" type="line" name="hr03"/>
      <point x="479" y="78" type="line"/>
      <point x="661" y="78" type="line" name="hr04"/>
      <point x="661" y="0" type="line"/>
      <point x="57" y="0" type="line"/>
      <point x="57" y="78" type="line"/>
    </contour>
    <contour>
      <point x="707" y="1200" type="move" name="top"/>
    </contour>
    <contour>
      <point x="701" y="-300" type="move" name="btm"/>
    </contour>
  </outline>
</glyph>
<glyph name="o" format="1">
  <advance width="1194"/>
  <unicode hex="006F"/>
  <outline>
    <contour>
      <point x="72" y="515" type="curve" smooth="yes" name="hr00"/>
      <point x="72" y="191"/>
      <point x="301" y="-20"/>
      <point x="597" y="-20" type="curve" smooth="yes"/>
      <point x="901" y="-20"/>
      <point x="1122" y="191"/>
      <point x="1122" y="515" type="curve" smooth="yes"/>
      <point x="1122" y="831"/>
      <point x="900" y="1040"/>
      <point x="597" y="1040" type="curve" smooth="yes"/>
      <point x="302" y="1040"/>
      <point x="72" y="831"/>
    </contour>
    <contour>
      <point x="350" y="515" type="curve" smooth="yes"/>
      <point x="350" y="767"/>
      <point x="397" y="956"/>
      <point x="597" y="956" type="curve" smooth="yes"/>
      <point x="797" y="956"/>
      <point x="844" y="767"/>
      <point x="844" y="515" type="curve" smooth="yes"/>
      <point x="844" y="261"/>
      <point x="797" y="63"/>
      <point x="597" y="63" type="curve" smooth="yes"/>
      <point x="397" y="63"/>
      <point x="350" y="261"/>
    </contour>
    <contour>
      <point x="597" y="1200" type="move" name="top"/>
    </contour>
  </outline>
</glyph>
<glyph name="p" format="1">
  <advance width="1365"/>
  <unicode hex="0070"/>
  <outline>
    <contour>
      <point x="651" y="-560" type="line" name="hr00"/>
      <point x="60" y="-560" type="line"/>
      <point x="60" y="-482" type="line"/>
      <point x="210" y="-482" type="line"/>
      <point x="210" y="943" type="line"/>
      <point x="50" y="943" type="line"/>
      <point x="50" y="1023" type="line"/>
      <point x="470" y="1023" type="line"/>
      <point x="470" y="-482" type="line"/>
      <point x="651" y="-482" type="line"/>
    </contour>
    <contour>
      <point x="428" y="239" type="line"/>
      <point x="486" y="128"/>
      <point x="625" y="66"/>
      <point x="737" y="66" type="curve" smooth="yes"/>
      <point x="888" y="66"/>
      <point x="998" y="181"/>
      <point x="998" y="506" type="curve" smooth="yes"/>
      <point x="998" y="887"/>
      <point x="854" y="949"/>
      <point x="738" y="948" type="curve" smooth="yes"/>
      <point x="609" y="946"/>
      <point x="494" y="860"/>
      <point x="440" y="738" type="curve"/>
      <point x="434" y="864" type="line"/>
      <point x="472" y="941"/>
      <point x="606" y="1040"/>
      <point x="806" y="1040" type="curve" smooth="yes"/>
      <point x="1064" y="1040"/>
      <point x="1278" y="882"/>
      <point x="1278" y="507" type="curve" smooth="yes"/>
      <point x="1278" y="175"/>
      <point x="1046" y="-20"/>
      <point x="779" y="-20" type="curve" smooth="yes"/>
      <point x="644" y="-20"/>
      <point x="498" y="31"/>
      <point x="437" y="105" type="curve"/>
    </contour>
    <contour>
      <point x="730" y="1200" type="move" name="top"/>
    </contour>
  </outline>
</glyph>
<glyph name="q" format="1">
  <advance width="1365"/>
  <unicode hex="0071"/>
  <outline>
    <contour>
      <point x="1170" y="-482" type="line" name="hr01"/>
      <point x="1170" y="945" type="line"/>
      <point x="1318" y="945" type="line"/>
      <point x="1318" y="1023" type="line"/>
      <point x="910" y="1023" type="line"/>
      <point x="910" y="-482" type="line"/>
      <point x="729" y="-482" type="line"/>
      <point x="729" y="-560" type="line"/>
      <point x="1320" y="-560" type="line"/>
      <point x="1320" y="-482" type="line"/>
    </contour>
    <contour>
      <point x="945" y="915" type="line"/>
      <point x="884" y="989"/>
      <point x="738" y="1040"/>
      <point x="603" y="1040" type="curve" smooth="yes" name="hr02"/>
      <point x="336" y="1040"/>
      <point x="104" y="845"/>
      <point x="104" y="513" type="curve" smooth="yes"/>
      <point x="104" y="138"/>
      <point x="318" y="-20"/>
      <point x="576" y="-20" type="curve" smooth="yes"/>
      <point x="776" y="-20"/>
      <point x="910" y="79"/>
      <point x="948" y="156" type="curve"/>
      <point x="942" y="282" type="line"/>
      <point x="888" y="160"/>
      <point x="773" y="74"/>
      <point x="644" y="72" type="curve" smooth="yes"/>
      <point x="528" y="71"/>
      <point x="384" y="133"/>
      <point x="384" y="514" type="curve" smooth="yes"/>
      <point x="384" y="839"/>
      <point x="494" y="954"/>
      <point x="645" y="954" type="curve" smooth="yes"/>
      <point x="757" y="954"/>
      <point x="896" y="892"/>
      <point x="954" y="781" type="curve"/>
    </contour>
  </outline>
</glyph>
<glyph name="r" format="1">
  <advance width="1024"/>
  <unicode hex="0072"/>
  <outline>
    <contour>
      <point x="498" y="1023" type="line" name="hr01"/>
      <point x="86" y="1023" type="line"/>
      <point x="86" y="945" type="line"/>
      <point x="236" y="945" type="line"/>
      <point x="236" y="77" type="line"/>
      <point x="87" y="77" type="line"/>
      <point x="87" y="0" type="line"/>
      <point x="717" y="0" type="line"/>
      <point x="717" y="77" type="line"/>
      <point x="498" y="77" type="line"/>
    </contour>
    <contour>
      <point x="864" y="757" type="curve" smooth="yes"/>
      <point x="939" y="757"/>
      <point x="998" y="816"/>
      <point x="998" y="891" type="curve" smooth="yes"/>
      <point x="998" y="982"/>
      <point x="930" y="1040"/>
      <point x="831" y="1040" type="curve" smooth="yes" name="hr02"/>
      <point x="672" y="1040"/>
      <point x="492" y="903"/>
      <point x="429" y="806" type="curve"/>
      <point x="429" y="684" type="line"/>
      <point x="490" y="825"/>
      <point x="636" y="907"/>
      <point x="739" y="938" type="curve"/>
      <point x="734" y="923"/>
      <point x="731" y="907"/>
      <point x="731" y="891" type="curve" smooth="yes"/>
      <point x="731" y="816"/>
      <point x="789" y="757"/>
    </contour>
    <contour>
      <point x="531" y="1200" type="move" name="top"/>
    </contour>
    <contour>
      <point x="386" y="-300" type="move" name="btm"/>
    </contour>
  </outline>
</glyph>
<glyph name="s" format="1">
  <advance width="1024"/>
  <unicode hex="0073"/>
  <outline>
    <contour>
      <point x="135" y="0" type="line" name="hr01"/>
      <point x="231" y="0" type="line"/>
      <point x="235" y="50"/>
      <point x="255" y="70"/>
      <point x="286" y="83" type="curve"/>
      <point x="209" y="137" type="line"/>
      <point x="241" y="76"/>
      <point x="373" y="-20"/>
      <point x="568" y="-20" type="curve" smooth="yes" name="hr02"/>
      <point x="724" y="-20"/>
      <point x="945" y="77"/>
      <point x="945" y="289" type="curve" smooth="yes"/>
      <point x="945" y="473"/>
      <point x="804" y="557"/>
      <point x="600" y="629" type="curve" smooth="yes"/>
      <point x="393" y="702"/>
      <point x="328" y="755"/>
      <point x="328" y="826" type="curve" smooth="yes" name="hr03"/>
      <point x="328" y="897"/>
      <point x="400" y="959"/>
      <point x="520" y="959" type="curve" smooth="yes"/>
      <point x="671" y="959"/>
      <point x="774" y="885"/>
      <point x="797" y="760" type="curve"/>
      <point x="885" y="760" type="line"/>
      <point x="885" y="1039" type="line"/>
      <point x="809" y="1039" type="line"/>
      <point x="808" y="989"/>
      <point x="764" y="965"/>
      <point x="755" y="965" type="curve"/>
      <point x="790" y="932" type="line"/>
      <point x="756" y="986"/>
      <point x="649" y="1040"/>
      <point x="533" y="1040" type="curve" smooth="yes"/>
      <point x="320" y="1040"/>
      <point x="141" y="928"/>
      <point x="141" y="744" type="curve" smooth="yes"/>
      <point x="141" y="584"/>
      <point x="261" y="468"/>
      <point x="505" y="380" type="curve" smooth="yes"/>
      <point x="676" y="319"/>
      <point x="771" y="266"/>
      <point x="771" y="200" type="curve" smooth="yes" name="hr04"/>
      <point x="771" y="128"/>
      <point x="711" y="62"/>
      <point x="577" y="62" type="curve" smooth="yes"/>
      <point x="353" y="62"/>
      <point x="232" y="213"/>
      <point x="231" y="301" type="curve"/>
      <point x="139" y="301" type="line"/>
    </contour>
    <contour>
      <point x="519" y="1200" type="move" name="top"/>
    </contour>
    <contour>
      <point x="510" y="-300" type="move" name="btm"/>
    </contour>
  </outline>
</glyph>
<glyph name="t" format="1">
  <advance width="853"/>
  <unicode hex="0074"/>
  <outline>
    <contour>
      <point x="178" y="312" type="line" name="hr00"/>
      <point x="178" y="54"/>
      <point x="340" y="-20"/>
      <point x="535" y="-20" type="curve" smooth="yes"/>
      <point x="654" y="-20"/>
      <point x="758" y="38"/>
      <point x="817" y="109" type="curve"/>
      <point x="764" y="156" type="line"/>
      <point x="710" y="96"/>
      <point x="649" y="67"/>
      <point x="584" y="67" type="curve" smooth="yes"/>
      <point x="499" y="67"/>
      <point x="443" y="118"/>
      <point x="443" y="240" type="curve" smooth="yes"/>
      <point x="443" y="1395" type="line"/>
      <point x="408" y="1374"/>
      <point x="267" y="1329"/>
      <point x="178" y="1329" type="curve"/>
    </contour>
    <contour>
      <point x="57" y="1023" type="line"/>
      <point x="57" y="945" type="line"/>
      <point x="772" y="945" type="line"/>
      <point x="772" y="1023" type="line"/>
    </contour>
    <contour>
      <point x="459" y="-300" type="move" name="btm"/>
    </contour>
    <contour>
      <point x="709" y="1303" type="move" name="top"/>
    </contour>
  </outline>
</glyph>
<glyph name="u" format="1">
  <advance width="1366"/>
  <unicode hex="0075"/>
  <outline>
    <contour>
      <point x="960" y="306" type="line" name="hr01"/>
      <point x="886" y="167"/>
      <point x="771" y="76"/>
      <point x="646" y="76" type="curve" smooth="yes" name="hr02"/>
      <point x="515" y="76"/>
      <point x="451" y="151"/>
      <point x="451" y="287" type="curve" smooth="yes"/>
      <point x="451" y="1023" type="line"/>
      <point x="49" y="1023" type="line"/>
      <point x="49" y="945" type="line"/>
      <point x="191" y="945" type="line"/>
      <point x="191" y="333" type="line" smooth="yes"/>
      <point x="191" y="28"/>
      <point x="454" y="-20"/>
      <point x="584" y="-20" type="curve" smooth="yes"/>
      <point x="737" y="-20"/>
      <point x="877" y="61"/>
      <point x="957" y="177" type="curve"/>
    </contour>
    <contour>
      <point x="888" y="0" type="line" name="hr03"/>
      <point x="1275" y="0" type="line"/>
      <point x="1275" y="78" type="line"/>
      <point x="1146" y="78" type="line"/>
      <point x="1146" y="1023" type="line"/>
      <point x="715" y="1023" type="line"/>
      <point x="715" y="945" type="line"/>
      <point x="888" y="945" type="line"/>
    </contour>
    <contour>
      <point x="612" y="1200" type="move" name="top"/>
    </contour>
    <contour>
      <point x="1277" y="0" type="move" name="og"/>
    </contour>
  </outline>
</glyph>
<glyph name="v" format="1">
  <advance width="1195"/>
  <unicode hex="0076"/>
  <outline>
    <contour>
      <point x="526" y="945" type="line" name="hr01"/>
      <point x="526" y="1023" type="line"/>
      <point x="-1" y="1023" type="line"/>
      <point x="-1" y="945" type="line"/>
    </contour>
    <contour>
      <point x="1196" y="945" type="line"/>
      <point x="1196" y="1023" type="line"/>
      <point x="832" y="1023" type="line"/>
      <point x="832" y="945" type="line"/>
    </contour>
    <contour>
      <point x="1081" y="982" type="line" name="hr02"/>
      <point x="981" y="980" type="line"/>
      <point x="669" y="186" type="line"/>
      <point x="704" y="243" type="line"/>
      <point x="382" y="981" type="line" name="hr03"/>
      <point x="84" y="986" type="line"/>
      <point x="565" y="-20" type="line"/>
      <point x="670" y="-20" type="line"/>
    </contour>
  </outline>
</glyph>
<glyph name="w" format="1">
  <advance width="1706"/>
  <unicode hex="0077"/>
  <outline>
    <contour>
      <point x="472" y="945" type="line" name="hr01"/>
      <point x="472" y="1023" type="line"/>
      <point x="0" y="1023" type="line"/>
      <point x="0" y="945" type="line"/>
    </contour>
    <contour>
      <point x="1739" y="945" type="line"/>
      <point x="1739" y="1023" type="line"/>
      <point x="1393" y="1023" type="line"/>
      <point x="1393" y="945" type="line"/>
    </contour>
    <contour>
      <point x="584" y="-20" type="line"/>
      <point x="950" y="892" type="line"/>
      <point x="913" y="1023" type="line"/>
      <point x="582" y="198" type="line"/>
      <point x="663" y="239" type="line"/>
      <point x="333" y="988" type="line" name="hr02"/>
      <point x="51" y="985" type="line" name="hr03"/>
      <point x="505" y="-20" type="line"/>
    </contour>
    <contour>
      <point x="1263" y="-20" type="line"/>
      <point x="1635" y="964" type="line" name="hr04"/>
      <point x="1560" y="1001" type="line"/>
      <point x="1258" y="201" type="line"/>
      <point x="1336" y="241" type="line"/>
      <point x="983" y="1023" type="line" name="hr05"/>
      <point x="913" y="1023" type="line"/>
      <point x="840" y="722" type="line"/>
      <point x="1183" y="-20" type="line"/>
    </contour>
    <contour>
      <point x="906" y="1200" type="move" name="top"/>
    </contour>
  </outline>
</glyph>
<glyph name="x" format="1">
  <advance width="1195"/>
  <unicode hex="0078"/>
  <outline>
    <contour>
      <point x="48" y="78" type="line" name="hr01"/>
      <point x="48" y="0" type="line"/>
      <point x="433" y="0" type="line"/>
      <point x="433" y="78" type="line"/>
    </contour>
    <contour>
      <point x="565" y="945" type="line"/>
      <point x="565" y="1023" type="line"/>
      <point x="31" y="1023" type="line"/>
      <point x="31" y="945" type="line"/>
    </contour>
    <contour>
      <point x="1140" y="945" type="line"/>
      <point x="1140" y="1023" type="line"/>
      <point x="776" y="1023" type="line"/>
      <point x="776" y="945" type="line"/>
    </contour>
    <contour>
      <point x="943" y="979" type="line" name="hr02"/>
      <point x="621" y="588" type="line"/>
      <point x="691" y="544" type="line"/>
      <point x="1055" y="980" type="line"/>
    </contour>
    <contour>
      <point x="652" y="78" type="line"/>
      <point x="652" y="0" type="line"/>
      <point x="1181" y="0" type="line"/>
      <point x="1181" y="78" type="line"/>
    </contour>
    <contour>
      <point x="817" y="29" type="line" name="hr03"/>
      <point x="1116" y="31" type="line"/>
      <point x="384" y="996" type="line"/>
      <point x="96" y="991" type="line" name="hr04"/>
    </contour>
    <contour>
      <point x="151" y="33" type="line"/>
      <point x="262" y="31" type="line"/>
      <point x="627" y="474" type="line"/>
      <point x="536" y="492" type="line"/>
    </contour>
  </outline>
</glyph>
<glyph name="y" format="1">
  <advance width="1195"/>
  <unicode hex="0079"/>
  <outline>
    <contour>
      <point x="535" y="945" type="line" name="hr01"/>
      <point x="535" y="1023" type="line"/>
      <point x="-4" y="1023" type="line"/>
      <point x="-4" y="945" type="line"/>
    </contour>
    <contour>
      <point x="1168" y="945" type="line"/>
      <point x="1168" y="1023" type="line"/>
      <point x="793" y="1023" type="line"/>
      <point x="793" y="945" type="line"/>
    </contour>
    <contour>
      <point x="67" y="-402" type="curve" smooth="yes"/>
      <point x="67" y="-498"/>
      <point x="153" y="-560"/>
      <point x="251" y="-560" type="curve" smooth="yes"/>
      <point x="379" y="-560"/>
      <point x="458" y="-473"/>
      <point x="549" y="-292" type="curve" smooth="yes"/>
      <point x="670" y="-20" type="line"/>
      <point x="1079" y="976" type="line" name="hr02"/>
      <point x="979" y="973" type="line"/>
      <point x="698" y="259" type="line"/>
      <point x="380" y="983" type="line" name="hr03"/>
      <point x="86" y="981" type="line" name="hr04"/>
      <point x="565" y="-20" type="line"/>
      <point x="473" y="-242" type="line" smooth="yes"/>
      <point x="397" y="-398"/>
      <point x="349" y="-463"/>
      <point x="293" y="-463" type="curve"/>
      <point x="297" y="-470" type="line"/>
      <point x="309" y="-458"/>
      <point x="329" y="-429"/>
      <point x="329" y="-397" type="curve" smooth="yes"/>
      <point x="329" y="-327"/>
      <point x="283" y="-273"/>
      <point x="198" y="-273" type="curve" smooth="yes"/>
      <point x="120" y="-273"/>
      <point x="67" y="-332"/>
    </contour>
    <contour>
      <point x="626" y="1200" type="move" name="top"/>
    </contour>
  </outline>
</glyph>
<glyph name="z" format="1">
  <advance width="1024"/>
  <unicode hex="007A"/>
  <outline>
    <contour>
      <point x="81" y="78" type="line" name="hr00"/>
      <point x="692" y="1000" type="line"/>
      <point x="792" y="947" type="line"/>
      <point x="433" y="947" type="line" smooth="yes"/>
      <point x="252" y="947"/>
      <point x="212" y="850"/>
      <point x="184" y="696" type="curve"/>
      <point x="113" y="696" type="line"/>
      <point x="113" y="1023" type="line"/>
      <point x="939" y="1023" type="line"/>
      <point x="939" y="946" type="line"/>
      <point x="337" y="27" type="line"/>
      <point x="281" y="76" type="line"/>
      <point x="648" y="76" type="line" smooth="yes"/>
      <point x="856" y="76"/>
      <point x="878" y="179"/>
      <point x="894" y="317" type="curve"/>
      <point x="963" y="317" type="line"/>
      <point x="963" y="0" type="line"/>
      <point x="81" y="0" type="line"/>
    </contour>
    <contour>
      <point x="534" y="1200" type="move" name="top"/>
    </contour>
  </outline>
</glyph>
<glyph name="braceleft" format="1">
  <advance width="1024"/>
  <unicode hex="007B"/>
  <outline>
    <contour>
      <point x="438" y="262" type="curve" name="hr00"/>
      <point x="438" y="421"/>
      <point x="409" y="537"/>
      <point x="141" y="567" type="curve"/>
      <point x="141" y="635" type="line"/>
      <point x="409" y="665"/>
      <point x="438" y="766"/>
      <point x="438" y="910" type="curve" smooth="yes"/>
      <point x="438" y="1006"/>
      <point x="415" y="1198"/>
      <point x="415" y="1294" type="curve" smooth="yes"/>
      <point x="415" y="1475"/>
      <point x="516" y="1704"/>
      <point x="887" y="1764" type="curve"/>
      <point x="907" y="1701" type="line"/>
      <point x="690" y="1652"/>
      <point x="630" y="1517"/>
      <point x="630" y="1335" type="curve" smooth="yes"/>
      <point x="630" y="1243"/>
      <point x="652" y="1058"/>
      <point x="652" y="966" type="curve" smooth="yes"/>
      <point x="652" y="711"/>
      <point x="499" y="624"/>
      <point x="327" y="605" type="curve"/>
      <point x="327" y="597" type="line"/>
      <point x="499" y="575"/>
      <point x="652" y="482"/>
      <point x="652" y="206" type="curve" smooth="yes"/>
      <point x="652" y="118"/>
      <point x="630" y="-47"/>
      <point x="630" y="-131" type="curve" smooth="yes"/>
      <point x="630" y="-313"/>
      <point x="690" y="-448"/>
      <point x="907" y="-497" type="curve"/>
      <point x="887" y="-560" type="line"/>
      <point x="516" y="-500"/>
      <point x="415" y="-271"/>
      <point x="415" y="-90" type="curve" smooth="yes"/>
      <point x="415" y="-2"/>
      <point x="438" y="174"/>
    </contour>
  </outline>
</glyph>
<glyph name="bar" format="1">
  <advance width="512"/>
  <unicode hex="007C"/>
  <outline>
    <contour>
      <point x="192" y="-300" type="line" name="hr00"/>
      <point x="320" y="-300" type="line"/>
      <point x="320" y="1686" type="line"/>
      <point x="192" y="1686" type="line"/>
    </contour>
  </outline>
</glyph>
<glyph name="asciitilde" format="1">
  <advance width="1236"/>
  <unicode hex="007E"/>
  <outline>
    <contour>
      <point x="978" y="875" type="line" name="hr01"/>
      <point x="945" y="829"/>
      <point x="905" y="784"/>
      <point x="823" y="784" type="curve" smooth="yes"/>
      <point x="711" y="784"/>
      <point x="588" y="882"/>
      <point x="437" y="882" type="curve" smooth="yes" name="hr02"/>
      <point x="316" y="882"/>
      <point x="234" y="747"/>
      <point x="181" y="651" type="curve"/>
      <point x="223" y="621" type="line"/>
      <point x="271" y="674"/>
      <point x="315" y="717"/>
      <point x="369" y="717" type="curve" smooth="yes"/>
      <point x="487" y="717"/>
      <point x="615" y="614"/>
      <point x="761" y="614" type="curve" smooth="yes" name="hr03"/>
      <point x="896" y="614"/>
      <point x="978" y="755"/>
      <point x="1022" y="850" type="curve"/>
    </contour>
  </outline>
</glyph>
<glyph name="cent" format="1">
  <advance width="1197"/>
  <unicode hex="00A2"/>
  <outline>
    <contour>
      <point x="959" y="661" type="curve" smooth="yes" name="hr01"/>
      <point x="1034" y="661"/>
      <point x="1093" y="723"/>
      <point x="1093" y="805" type="curve" smooth="yes"/>
      <point x="1093" y="968"/>
      <point x="880" y="1040"/>
      <point x="720" y="1040" type="curve" smooth="yes"/>
      <point x="406" y="1040"/>
      <point x="163" y="846"/>
      <point x="163" y="519" type="curve" smooth="yes"/>
      <point x="163" y="177"/>
      <point x="405" y="-20"/>
      <point x="726" y="-20" type="curve" smooth="yes"/>
      <point x="909" y="-20"/>
      <point x="1038" y="72"/>
      <point x="1094" y="144" type="curve"/>
      <point x="1042" y="192" type="line"/>
      <point x="975" y="122"/>
      <point x="883" y="76"/>
      <point x="748" y="76" type="curve" smooth="yes" name="hr02"/>
      <point x="542" y="76"/>
      <point x="439" y="246"/>
      <point x="439" y="514" type="curve" smooth="yes"/>
      <point x="439" y="793"/>
      <point x="525" y="955"/>
      <point x="727" y="955" type="curve" smooth="yes"/>
      <point x="818" y="955"/>
      <point x="880" y="931"/>
      <point x="900" y="917" type="curve"/>
      <point x="861" y="899"/>
      <point x="825" y="861"/>
      <point x="825" y="791" type="curve" smooth="yes"/>
      <point x="825" y="715"/>
      <point x="888" y="661"/>
    </contour>
    <contour>
      <point x="623" y="23" type="line"/>
      <point x="602" y="-255" type="line"/>
      <point x="680" y="-255" type="line"/>
      <point x="701" y="23" type="line"/>
    </contour>
    <contour>
      <point x="784" y="976" type="line"/>
      <point x="809" y="1255" type="line"/>
      <point x="730" y="1255" type="line"/>
      <point x="705" y="976" type="line"/>
    </contour>
  </outline>
</glyph>
<glyph name="sterling" format="1">
  <advance width="1367"/>
  <unicode hex="00A3"/>
  <outline>
    <contour>
      <point x="450" y="335" type="curve" smooth="yes" name="hr01"/>
      <point x="326" y="335"/>
      <point x="113" y="113"/>
      <point x="56" y="23" type="curve"/>
      <point x="115" y="-22" type="line"/>
      <point x="174" y="43"/>
      <point x="254" y="132"/>
      <point x="322" y="132" type="curve" smooth="yes"/>
      <point x="519" y="132"/>
      <point x="684" y="-22"/>
      <point x="901" y="-22" type="curve" smooth="yes" name="hr02"/>
      <point x="1057" y="-22"/>
      <point x="1183" y="198"/>
      <point x="1250" y="316" type="curve"/>
      <point x="1187" y="363" type="line"/>
      <point x="1158" y="325"/>
      <point x="1061" y="186"/>
      <point x="970" y="186" type="curve" smooth="yes"/>
      <point x="783" y="186"/>
      <point x="652" y="335"/>
    </contour>
    <contour>
      <point x="116" y="100" type="curve" name="hr04"/>
      <point x="252" y="122"/>
      <point x="339" y="275"/>
      <point x="475" y="313" type="curve"/>
      <point x="562" y="378"/>
      <point x="605" y="425"/>
      <point x="605" y="578" type="curve" smooth="yes"/>
      <point x="605" y="743"/>
      <point x="547" y="949"/>
      <point x="545" y="1120" type="curve" smooth="yes" name="hr05"/>
      <point x="542" y="1309"/>
      <point x="590" y="1466"/>
      <point x="769" y="1466" type="curve" smooth="yes"/>
      <point x="863" y="1466"/>
      <point x="940" y="1432"/>
      <point x="961" y="1388" type="curve"/>
      <point x="911" y="1382"/>
      <point x="855" y="1344"/>
      <point x="855" y="1265" type="curve" smooth="yes"/>
      <point x="855" y="1195"/>
      <point x="913" y="1148"/>
      <point x="977" y="1148" type="curve" smooth="yes"/>
      <point x="1041" y="1148"/>
      <point x="1104" y="1201"/>
      <point x="1104" y="1281" type="curve" smooth="yes"/>
      <point x="1104" y="1425"/>
      <point x="961" y="1545"/>
      <point x="743" y="1545" type="curve" smooth="yes"/>
      <point x="489" y="1545"/>
      <point x="287" y="1408"/>
      <point x="286" y="1121" type="curve" smooth="yes"/>
      <point x="285" y="871"/>
      <point x="325" y="804"/>
      <point x="343" y="559" type="curve" smooth="yes" name="hr06"/>
      <point x="357" y="369"/>
      <point x="205" y="187"/>
    </contour>
    <contour>
      <point x="67" y="928" type="line" name="hr07"/>
      <point x="60" y="850" type="line"/>
      <point x="891" y="850" type="line"/>
      <point x="898" y="928" type="line"/>
    </contour>
    <contour>
      <point x="47" y="679" type="line"/>
      <point x="40" y="601" type="line"/>
      <point x="871" y="601" type="line"/>
      <point x="878" y="679" type="line"/>
    </contour>
  </outline>
</glyph>
<glyph name="currency" format="1">
  <advance width="1368"/>
  <unicode hex="00A4"/>
  <outline>
    <contour>
      <point x="282" y="601" type="curve" smooth="yes" name="hr00"/>
      <point x="282" y="379"/>
      <point x="463" y="198"/>
      <point x="684" y="198" type="curve" smooth="yes"/>
      <point x="907" y="198"/>
      <point x="1088" y="379"/>
      <point x="1088" y="601" type="curve" smooth="yes"/>
      <point x="1088" y="823"/>
      <point x="907" y="1004"/>
      <point x="684" y="1004" type="curve" smooth="yes"/>
      <point x="463" y="1004"/>
      <point x="282" y="823"/>
    </contour>
    <contour>
      <point x="423" y="601" type="curve" smooth="yes"/>
      <point x="423" y="748"/>
      <point x="539" y="868"/>
      <point x="684" y="868" type="curve" smooth="yes"/>
      <point x="830" y="868"/>
      <point x="947" y="748"/>
      <point x="947" y="601" type="curve" smooth="yes"/>
      <point x="947" y="454"/>
      <point x="830" y="333"/>
      <point x="684" y="333" type="curve" smooth="yes"/>
      <point x="539" y="333"/>
      <point x="423" y="454"/>
    </contour>
    <contour>
      <point x="863" y="895" type="line"/>
      <point x="963" y="795" type="line"/>
      <point x="1160" y="992" type="line"/>
      <point x="1060" y="1093" type="line"/>
    </contour>
    <contour>
      <point x="310" y="1093" type="line"/>
      <point x="210" y="992" type="line"/>
      <point x="407" y="795" type="line"/>
      <point x="507" y="895" type="line"/>
    </contour>
    <contour>
      <point x="1059" y="108" type="line"/>
      <point x="1159" y="209" type="line"/>
      <point x="962" y="406" type="line"/>
      <point x="862" y="306" type="line"/>
    </contour>
    <contour>
      <point x="208" y="212" type="line"/>
      <point x="308" y="112" type="line"/>
      <point x="505" y="308" type="line"/>
      <point x="405" y="409" type="line"/>
    </contour>
  </outline>
</glyph>
<glyph name="yen" format="1">
  <advance width="1539"/>
  <unicode hex="00A5"/>
  <outline>
    <contour>
      <point x="262" y="679" type="line" name="hr01"/>
      <point x="255" y="601" type="line"/>
      <point x="1296" y="601" type="line"/>
      <point x="1303" y="679" type="line"/>
    </contour>
    <contour>
      <point x="242" y="418" type="line"/>
      <point x="235" y="340" type="line"/>
      <point x="1276" y="340" type="line"/>
      <point x="1283" y="418" type="line"/>
    </contour>
    <contour>
      <point x="1384" y="1470" type="line" name="hr02"/>
      <point x="1274" y="1466" type="line"/>
      <point x="832" y="677" type="line"/>
      <point x="888" y="689" type="line"/>
      <point x="435" y="1481" type="line" name="hr03"/>
      <point x="117" y="1482" type="line"/>
      <point x="715" y="480" type="line"/>
      <point x="811" y="463" type="line"/>
    </contour>
    <contour>
      <point x="1524" y="1452" type="line" name="hr04"/>
      <point x="1524" y="1530" type="line"/>
      <point x="1082" y="1530" type="line"/>
      <point x="1082" y="1452" type="line"/>
    </contour>
    <contour>
      <point x="10" y="1530" type="line"/>
      <point x="10" y="1452" type="line"/>
      <point x="654" y="1452" type="line"/>
      <point x="654" y="1530" type="line"/>
    </contour>
    <contour>
      <point x="501" y="78" type="line"/>
      <point x="501" y="0" type="line" name="hr05"/>
      <point x="1068" y="0" type="line"/>
      <point x="1068" y="78" type="line" name="hr06"/>
    </contour>
    <contour>
      <point x="649" y="59" type="line"/>
      <point x="919" y="59" type="line"/>
      <point x="919" y="705" type="line"/>
      <point x="650" y="704" type="line"/>
    </contour>
  </outline>
</glyph>
<glyph name="brokenbar" format="1">
  <advance width="512"/>
  <unicode hex="00A6"/>
  <outline>
    <contour>
      <point x="322" y="820" type="line" name="hr00"/>
      <point x="322" y="1684" type="line"/>
      <point x="194" y="1684" type="line"/>
      <point x="194" y="820" type="line"/>
    </contour>
    <contour>
      <point x="320" y="-300" type="line"/>
      <point x="320" y="528" type="line"/>
      <point x="192" y="528" type="line"/>
      <point x="192" y="-300" type="line"/>
    </contour>
  </outline>
</glyph>
<glyph name="section" format="1">
  <advance width="1366"/>
  <unicode hex="00A7"/>
  <outline>
    <contour>
      <point x="927" y="1042" type="line" name="hr01"/>
      <point x="864" y="1065"/>
      <point x="783" y="1080"/>
      <point x="686" y="1080" type="curve" smooth="yes"/>
      <point x="394" y="1080"/>
      <point x="156" y="949"/>
      <point x="156" y="708" type="curve" smooth="yes"/>
      <point x="156" y="507"/>
      <point x="252" y="361"/>
      <point x="647" y="228" type="curve"/>
      <point x="968" y="123"/>
      <point x="1026" y="47"/>
      <point x="1026" y="-71" type="curve" smooth="yes" name="hr02"/>
      <point x="1026" y="-194"/>
      <point x="882" y="-257"/>
      <point x="699" y="-257" type="curve" smooth="yes"/>
      <point x="466" y="-257"/>
      <point x="298" y="-113"/>
      <point x="248" y="88" type="curve"/>
      <point x="145" y="88" type="line"/>
      <point x="145" y="-320" type="line"/>
      <point x="234" y="-320" type="line"/>
      <point x="235" y="-267"/>
      <point x="264" y="-196"/>
      <point x="302" y="-185" type="curve"/>
      <point x="229" y="-140" type="line" name="hr03"/>
      <point x="261" y="-236"/>
      <point x="467" y="-340"/>
      <point x="701" y="-340" type="curve" smooth="yes"/>
      <point x="977" y="-340"/>
      <point x="1220" y="-193"/>
      <point x="1220" y="81" type="curve" smooth="yes"/>
      <point x="1220" y="253"/>
      <point x="1119" y="361"/>
      <point x="785" y="482" type="curve"/>
      <point x="427" y="628"/>
      <point x="358" y="698"/>
      <point x="358" y="826" type="curve" smooth="yes" name="hr04"/>
      <point x="358" y="937"/>
      <point x="497" y="1007"/>
      <point x="675" y="1007" type="curve" smooth="yes"/>
      <point x="767" y="1007"/>
      <point x="856" y="982"/>
      <point x="926" y="931" type="curve"/>
    </contour>
    <contour>
      <point x="361" y="530" type="line"/>
      <point x="451" y="484"/>
      <point x="576" y="451"/>
      <point x="711" y="451" type="curve" smooth="yes"/>
      <point x="1002" y="451"/>
      <point x="1220" y="588"/>
      <point x="1220" y="862" type="curve" smooth="yes"/>
      <point x="1220" y="1034"/>
      <point x="1119" y="1142"/>
      <point x="785" y="1263" type="curve"/>
      <point x="427" y="1409"/>
      <point x="358" y="1479"/>
      <point x="358" y="1607" type="curve" smooth="yes" name="hr05"/>
      <point x="358" y="1718"/>
      <point x="501" y="1788"/>
      <point x="685" y="1788" type="curve" smooth="yes"/>
      <point x="863" y="1788"/>
      <point x="1034" y="1690"/>
      <point x="1055" y="1479" type="curve"/>
      <point x="1151" y="1479" type="line"/>
      <point x="1151" y="1851" type="line" name="hr06"/>
      <point x="1058" y="1851" type="line"/>
      <point x="1057" y="1794"/>
      <point x="1017" y="1746"/>
      <point x="979" y="1734" type="curve"/>
      <point x="1055" y="1751" type="line" name="hr07"/>
      <point x="1007" y="1812"/>
      <point x="881" y="1871"/>
      <point x="696" y="1871" type="curve" smooth="yes" name="hr08"/>
      <point x="398" y="1871"/>
      <point x="156" y="1730"/>
      <point x="156" y="1489" type="curve" smooth="yes"/>
      <point x="156" y="1288"/>
      <point x="252" y="1142"/>
      <point x="647" y="1009" type="curve"/>
      <point x="968" y="904"/>
      <point x="1026" y="828"/>
      <point x="1026" y="710" type="curve" smooth="yes"/>
      <point x="1026" y="587"/>
      <point x="886" y="524"/>
      <point x="709" y="524" type="curve" smooth="yes"/>
      <point x="565" y="524"/>
      <point x="445" y="577"/>
      <point x="361" y="664" type="curve"/>
    </contour>
  </outline>
</glyph>
<glyph name="dieresis" format="1">
  <advance width="1019"/>
  <unicode hex="00A8"/>
  <outline>
    <contour>
      <point x="158" y="1365" type="curve" smooth="yes" name="hr00"/>
      <point x="158" y="1297"/>
      <point x="213" y="1244"/>
      <point x="281" y="1244" type="curve" smooth="yes"/>
      <point x="349" y="1244"/>
      <point x="405" y="1297"/>
      <point x="405" y="1365" type="curve" smooth="yes"/>
      <point x="405" y="1433"/>
      <point x="349" y="1487"/>
      <point x="281" y="1487" type="curve" smooth="yes"/>
      <point x="213" y="1487"/>
      <point x="158" y="1433"/>
    </contour>
    <contour>
      <point x="614" y="1365" type="curve" smooth="yes"/>
      <point x="614" y="1297"/>
      <point x="669" y="1244"/>
      <point x="737" y="1244" type="curve" smooth="yes"/>
      <point x="805" y="1244"/>
      <point x="861" y="1297"/>
      <point x="861" y="1365" type="curve" smooth="yes"/>
      <point x="861" y="1433"/>
      <point x="805" y="1487"/>
      <point x="737" y="1487" type="curve" smooth="yes"/>
      <point x="669" y="1487"/>
      <point x="614" y="1433"/>
    </contour>
    <contour>
      <point x="510" y="1200" type="move" name="_top"/>
    </contour>
  </outline>
</glyph>
<glyph name="copyright" format="1">
  <advance width="2243"/>
  <unicode hex="00A9"/>
  <outline>
    <contour>
      <point x="1487" y="270" type="line" name="hr01"/>
      <point x="1446" y="182"/>
      <point x="1341" y="98"/>
      <point x="1224" y="98" type="curve" smooth="yes"/>
      <point x="999" y="98"/>
      <point x="936" y="318"/>
      <point x="936" y="513" type="curve" smooth="yes"/>
      <point x="936" y="741"/>
      <point x="1026" y="921"/>
      <point x="1215" y="921" type="curve" smooth="yes"/>
      <point x="1366" y="921"/>
      <point x="1469" y="817"/>
      <point x="1490" y="720" type="curve"/>
      <point x="1580" y="720" type="line" name="hr02"/>
      <point x="1580" y="1023" type="line"/>
      <point x="1490" y="1023" type="line"/>
      <point x="1484" y="971"/>
      <point x="1457" y="924"/>
      <point x="1429" y="917" type="curve"/>
      <point x="1480" y="927" type="line"/>
      <point x="1446" y="970"/>
      <point x="1350" y="1040"/>
      <point x="1186" y="1040" type="curve" smooth="yes" name="hr03"/>
      <point x="824" y="1040"/>
      <point x="625" y="794"/>
      <point x="625" y="513" type="curve" smooth="yes"/>
      <point x="625" y="216"/>
      <point x="833" y="-19"/>
      <point x="1186" y="-19" type="curve" smooth="yes"/>
      <point x="1418" y="-19"/>
      <point x="1535" y="117"/>
      <point x="1573" y="219" type="curve"/>
    </contour>
    <contour>
      <point x="155" y="515" type="curve" smooth="yes"/>
      <point x="155" y="-30"/>
      <point x="595" y="-468"/>
      <point x="1139" y="-468" type="curve" smooth="yes"/>
      <point x="1682" y="-468"/>
      <point x="2124" y="-30"/>
      <point x="2124" y="515" type="curve" smooth="yes"/>
      <point x="2124" y="1059"/>
      <point x="1682" y="1501"/>
      <point x="1139" y="1501" type="curve" smooth="yes"/>
      <point x="595" y="1501"/>
      <point x="155" y="1059"/>
    </contour>
    <contour>
      <point x="261" y="513" type="curve" smooth="yes"/>
      <point x="261" y="1007"/>
      <point x="644" y="1417"/>
      <point x="1139" y="1417" type="curve" smooth="yes"/>
      <point x="1635" y="1417"/>
      <point x="2017" y="1007"/>
      <point x="2017" y="513" type="curve" smooth="yes"/>
      <point x="2017" y="17"/>
      <point x="1635" y="-386"/>
      <point x="1139" y="-386" type="curve" smooth="yes"/>
      <point x="644" y="-386"/>
      <point x="261" y="17"/>
    </contour>
  </outline>
</glyph>
<glyph name="ordfeminine" format="1">
  <advance width="1028"/>
  <unicode hex="00AA"/>
  <outline>
    <contour>
      <point x="681" y="1326" type="line" name="hr01"/>
      <point x="640" y="1367"/>
      <point x="561" y="1402"/>
      <point x="445" y="1402" type="curve" smooth="yes"/>
      <point x="313" y="1402"/>
      <point x="203" y="1329"/>
      <point x="203" y="1227" type="curve" smooth="yes"/>
      <point x="203" y="1118"/>
      <point x="300" y="1040"/>
      <point x="427" y="1040" type="curve" smooth="yes"/>
      <point x="579" y="1040"/>
      <point x="666" y="1116"/>
      <point x="684" y="1159" type="curve"/>
      <point x="680" y="1296" type="line" name="hr02"/>
      <point x="681" y="1234"/>
      <point x="603" y="1109"/>
      <point x="502" y="1109" type="curve" smooth="yes"/>
      <point x="452" y="1109"/>
      <point x="392" y="1145"/>
      <point x="392" y="1223" type="curve" smooth="yes"/>
      <point x="392" y="1300"/>
      <point x="438" y="1334"/>
      <point x="505" y="1334" type="curve" smooth="yes"/>
      <point x="579" y="1334"/>
      <point x="646" y="1284"/>
      <point x="675" y="1237" type="curve" name="hr03"/>
    </contour>
    <contour>
      <point x="633" y="1323" type="line"/>
      <point x="635" y="1312" type="line"/>
      <point x="635" y="1169" type="line"/>
      <point x="641" y="1140" type="line"/>
      <point x="654" y="1079"/>
      <point x="711" y="1040"/>
      <point x="787" y="1040" type="curve" smooth="yes"/>
      <point x="847" y="1040"/>
      <point x="907" y="1069"/>
      <point x="934" y="1103" type="curve"/>
      <point x="894" y="1137" type="line" name="hr04"/>
      <point x="877" y="1117"/>
      <point x="864" y="1112"/>
      <point x="846" y="1112" type="curve" smooth="yes"/>
      <point x="828" y="1112"/>
      <point x="818" y="1123"/>
      <point x="818" y="1161" type="curve" smooth="yes"/>
      <point x="818" y="1487" type="line" smooth="yes"/>
      <point x="818" y="1617"/>
      <point x="718" y="1696"/>
      <point x="505" y="1696" type="curve" smooth="yes"/>
      <point x="397" y="1696"/>
      <point x="226" y="1644"/>
      <point x="226" y="1543" type="curve" smooth="yes"/>
      <point x="226" y="1490"/>
      <point x="273" y="1455"/>
      <point x="328" y="1455" type="curve" smooth="yes" name="hr05"/>
      <point x="379" y="1455"/>
      <point x="430" y="1491"/>
      <point x="430" y="1547" type="curve" smooth="yes"/>
      <point x="430" y="1603"/>
      <point x="367" y="1627"/>
      <point x="338" y="1625" type="curve"/>
      <point x="343" y="1602" type="line"/>
      <point x="387" y="1626"/>
      <point x="436" y="1635"/>
      <point x="476" y="1635" type="curve" smooth="yes" name="hr06"/>
      <point x="607" y="1635"/>
      <point x="633" y="1583"/>
      <point x="633" y="1502" type="curve" smooth="yes"/>
    </contour>
  </outline>
</glyph>
<glyph name="logicalnot" format="1">
  <advance width="1536"/>
  <unicode hex="00AC"/>
  <outline>
    <contour>
      <point x="310" y="645" type="line" name="hr00"/>
      <point x="310" y="545" type="line"/>
      <point x="1179" y="545" type="line"/>
      <point x="1179" y="645" type="line"/>
    </contour>
    <contour>
      <point x="1075" y="227" type="line"/>
      <point x="1179" y="227" type="line"/>
      <point x="1179" y="645" type="line"/>
      <point x="1075" y="645" type="line"/>
    </contour>
  </outline>
</glyph>
<glyph name="registered" format="1">
  <advance width="1695"/>
  <unicode hex="00AE"/>
  <outline>
    <contour>
      <point x="502" y="766" type="line" name="hr01"/>
      <point x="676" y="766" type="line"/>
      <point x="676" y="1553" type="line"/>
      <point x="503" y="1553" type="line"/>
    </contour>
    <contour>
      <point x="405" y="815" type="line"/>
      <point x="405" y="737" type="line"/>
      <point x="822" y="737" type="line" name="hr02"/>
      <point x="822" y="815" type="line"/>
    </contour>
    <contour>
      <point x="788" y="1076" type="line"/>
      <point x="949" y="1076"/>
      <point x="979" y="951"/>
      <point x="998" y="879" type="curve" smooth="yes"/>
      <point x="1021" y="755"/>
      <point x="1051" y="734"/>
      <point x="1180" y="734" type="curve" smooth="yes" name="hr03"/>
      <point x="1294" y="734" type="line"/>
      <point x="1294" y="808" type="line"/>
      <point x="1269" y="808" type="line" smooth="yes"/>
      <point x="1105" y="808"/>
      <point x="1265" y="1128"/>
      <point x="881" y="1116" type="curve"/>
      <point x="849" y="1086" type="line"/>
      <point x="1034" y="1086"/>
      <point x="1205" y="1160"/>
      <point x="1205" y="1318" type="curve" smooth="yes"/>
      <point x="1205" y="1422"/>
      <point x="1165" y="1577"/>
      <point x="828" y="1577" type="curve" smooth="yes"/>
      <point x="419" y="1577" type="line"/>
      <point x="419" y="1499" type="line"/>
      <point x="809" y="1499" type="line" smooth="yes"/>
      <point x="979" y="1499"/>
      <point x="1019" y="1423"/>
      <point x="1019" y="1312" type="curve" smooth="yes"/>
      <point x="1019" y="1251"/>
      <point x="982" y="1151"/>
      <point x="819" y="1151" type="curve" smooth="yes"/>
      <point x="647" y="1151" type="line"/>
      <point x="643" y="1076" type="line"/>
    </contour>
    <contour>
      <point x="39" y="1146" type="curve" smooth="yes"/>
      <point x="39" y="700"/>
      <point x="396" y="339"/>
      <point x="842" y="339" type="curve" smooth="yes"/>
      <point x="1287" y="339"/>
      <point x="1644" y="700"/>
      <point x="1644" y="1146" type="curve" smooth="yes"/>
      <point x="1644" y="1593"/>
      <point x="1287" y="1956"/>
      <point x="842" y="1956" type="curve" smooth="yes"/>
      <point x="396" y="1956"/>
      <point x="39" y="1593"/>
    </contour>
    <contour>
      <point x="136" y="1145" type="curve" smooth="yes"/>
      <point x="136" y="1543"/>
      <point x="444" y="1873"/>
      <point x="842" y="1873" type="curve" smooth="yes"/>
      <point x="1241" y="1873"/>
      <point x="1548" y="1543"/>
      <point x="1548" y="1145" type="curve" smooth="yes"/>
      <point x="1548" y="747"/>
      <point x="1241" y="421"/>
      <point x="842" y="421" type="curve" smooth="yes"/>
      <point x="444" y="421"/>
      <point x="136" y="747"/>
    </contour>
  </outline>
</glyph>
<glyph name="macron" format="1">
  <advance width="1707"/>
  <unicode hex="00AF"/>
  <outline>
    <contour>
      <point x="505" y="1291" type="line" name="hr00"/>
      <point x="1162" y="1291" type="line"/>
      <point x="1162" y="1414" type="line"/>
      <point x="505" y="1414" type="line"/>
    </contour>
    <contour>
      <point x="822" y="1200" type="move" name="_top"/>
    </contour>
  </outline>
</glyph>
<glyph name="degree" format="1">
  <advance width="1028"/>
  <unicode hex="00B0"/>
  <outline>
    <contour>
      <point x="169" y="1361" type="curve" smooth="yes" name="hr00"/>
      <point x="169" y="1156"/>
      <point x="331" y="1023"/>
      <point x="515" y="1023" type="curve" smooth="yes"/>
      <point x="704" y="1023"/>
      <point x="859" y="1156"/>
      <point x="859" y="1361" type="curve" smooth="yes"/>
      <point x="859" y="1564"/>
      <point x="701" y="1696"/>
      <point x="515" y="1696" type="curve" smooth="yes"/>
      <point x="331" y="1696"/>
      <point x="169" y="1564"/>
    </contour>
    <contour>
      <point x="308" y="1361" type="curve" smooth="yes"/>
      <point x="308" y="1469"/>
      <point x="362" y="1593"/>
      <point x="515" y="1593" type="curve" smooth="yes"/>
      <point x="667" y="1593"/>
      <point x="720" y="1469"/>
      <point x="720" y="1361" type="curve" smooth="yes"/>
      <point x="720" y="1256"/>
      <point x="667" y="1126"/>
      <point x="515" y="1126" type="curve" smooth="yes"/>
      <point x="362" y="1126"/>
      <point x="308" y="1256"/>
    </contour>
  </outline>
</glyph>
<glyph name="plusminus" format="1">
  <advance width="1536"/>
  <unicode hex="00B1"/>
  <outline>
    <contour>
      <point x="270" y="100" type="line" name="hr00"/>
      <point x="270" y="0" type="line"/>
      <point x="1266" y="0" type="line"/>
      <point x="1266" y="100" type="line"/>
    </contour>
    <contour>
      <point x="270" y="645" type="line"/>
      <point x="270" y="545" type="line"/>
      <point x="1266" y="545" type="line"/>
      <point x="1266" y="645" type="line"/>
    </contour>
    <contour>
      <point x="716" y="98" type="line"/>
      <point x="820" y="98" type="line"/>
      <point x="820" y="1114" type="line"/>
      <point x="716" y="1114" type="line"/>
    </contour>
  </outline>
</glyph>
<glyph name="twosuperior" format="1">
  <advance width="854"/>
  <unicode hex="00B2"/>
  <outline>
    <contour>
      <point x="508" y="1485" type="curve" smooth="yes" name="hr01"/>
      <point x="508" y="1292"/>
      <point x="309" y="1147"/>
      <point x="153" y="1018" type="curve"/>
      <point x="153" y="963" type="line"/>
      <point x="719" y="963" type="line" name="hr02"/>
      <point x="719" y="1170" type="line"/>
      <point x="667" y="1170" type="line"/>
      <point x="663" y="1146"/>
      <point x="652" y="1102"/>
      <point x="610" y="1102" type="curve" smooth="yes"/>
      <point x="330" y="1102" type="line"/>
      <point x="563" y="1241"/>
      <point x="683" y="1351"/>
      <point x="683" y="1476" type="curve" smooth="yes" name="hr03"/>
      <point x="683" y="1639"/>
      <point x="550" y="1694"/>
      <point x="401" y="1694" type="curve" smooth="yes"/>
      <point x="302" y="1694"/>
      <point x="147" y="1654"/>
      <point x="147" y="1538" type="curve" smooth="yes"/>
      <point x="147" y="1498"/>
      <point x="174" y="1453"/>
      <point x="242" y="1453" type="curve" smooth="yes" name="hr04"/>
      <point x="299" y="1453"/>
      <point x="328" y="1504"/>
      <point x="328" y="1543" type="curve" smooth="yes"/>
      <point x="328" y="1596"/>
      <point x="284" y="1623"/>
      <point x="242" y="1620" type="curve"/>
      <point x="251" y="1590" type="line" name="hr05"/>
      <point x="279" y="1620"/>
      <point x="324" y="1633"/>
      <point x="371" y="1633" type="curve" smooth="yes"/>
      <point x="443" y="1633"/>
      <point x="508" y="1586"/>
    </contour>
  </outline>
</glyph>
<glyph name="threesuperior" format="1">
  <advance width="854"/>
  <unicode hex="00B3"/>
  <outline>
    <contour>
      <point x="545" y="1175" type="curve" smooth="yes" name="hr01"/>
      <point x="545" y="1263"/>
      <point x="447" y="1333"/>
      <point x="285" y="1296" type="curve"/>
      <point x="286" y="1296" type="line"/>
      <point x="285" y="1350" type="line"/>
      <point x="453" y="1360"/>
      <point x="506" y="1454"/>
      <point x="506" y="1526" type="curve" smooth="yes" name="hr02"/>
      <point x="506" y="1592"/>
      <point x="451" y="1634"/>
      <point x="375" y="1634" type="curve" smooth="yes" name="hr03"/>
      <point x="330" y="1634"/>
      <point x="282" y="1628"/>
      <point x="241" y="1582" type="curve"/>
      <point x="245" y="1621" type="line"/>
      <point x="302" y="1626"/>
      <point x="326" y="1580"/>
      <point x="326" y="1539" type="curve" smooth="yes" name="hr04"/>
      <point x="326" y="1505"/>
      <point x="295" y="1454"/>
      <point x="241" y="1454" type="curve" smooth="yes"/>
      <point x="168" y="1454"/>
      <point x="145" y="1516"/>
      <point x="145" y="1545" type="curve" smooth="yes"/>
      <point x="145" y="1662"/>
      <point x="288" y="1694"/>
      <point x="412" y="1694" type="curve" smooth="yes"/>
      <point x="588" y="1694"/>
      <point x="672" y="1625"/>
      <point x="672" y="1523" type="curve" smooth="yes"/>
      <point x="672" y="1429"/>
      <point x="571" y="1350"/>
      <point x="414" y="1328" type="curve"/>
      <point x="420" y="1343" type="line"/>
      <point x="561" y="1384"/>
      <point x="714" y="1319"/>
      <point x="714" y="1180" type="curve" smooth="yes"/>
      <point x="714" y="1071"/>
      <point x="606" y="956"/>
      <point x="410" y="956" type="curve" smooth="yes"/>
      <point x="275" y="956"/>
      <point x="122" y="996"/>
      <point x="122" y="1113" type="curve" smooth="yes"/>
      <point x="122" y="1142"/>
      <point x="146" y="1197"/>
      <point x="218" y="1197" type="curve" smooth="yes" name="hr05"/>
      <point x="272" y="1197"/>
      <point x="303" y="1146"/>
      <point x="303" y="1112" type="curve" smooth="yes"/>
      <point x="303" y="1071"/>
      <point x="279" y="1025"/>
      <point x="222" y="1030" type="curve"/>
      <point x="218" y="1069" type="line"/>
      <point x="248" y="1038"/>
      <point x="308" y="1021"/>
      <point x="368" y="1021" type="curve" smooth="yes"/>
      <point x="456" y="1021"/>
      <point x="545" y="1087"/>
    </contour>
  </outline>
</glyph>
<glyph name="acute" format="1">
  <advance width="1707"/>
  <unicode hex="00B4"/>
  <outline>
    <contour>
      <point x="528" y="1218" type="line" name="hr00"/>
      <point x="559" y="1184" type="line"/>
      <point x="913" y="1406" type="line" smooth="yes"/>
      <point x="958" y="1434"/>
      <point x="969" y="1477"/>
      <point x="967" y="1517" type="curve" smooth="yes"/>
      <point x="963" y="1586"/>
      <point x="900" y="1624"/>
      <point x="843" y="1618" type="curve" smooth="yes"/>
      <point x="796" y="1612"/>
      <point x="774" y="1592"/>
      <point x="748" y="1552" type="curve" smooth="yes"/>
    </contour>
    <contour>
      <point x="629" y="1200" type="move" name="_top"/>
    </contour>
  </outline>
</glyph>
<glyph name="mu" format="1">
  <advance width="1366"/>
  <unicode hex="00B5"/>
  <outline>
    <contour>
      <point x="826" y="1023" type="line" name="hr00"/>
      <point x="826" y="193" type="line"/>
      <point x="762" y="120"/>
      <point x="685" y="76"/>
      <point x="614" y="76" type="curve" smooth="yes"/>
      <point x="497" y="76"/>
      <point x="444" y="155"/>
      <point x="444" y="297" type="curve" smooth="yes"/>
      <point x="444" y="1023" type="line"/>
      <point x="184" y="1023" type="line"/>
      <point x="184" y="-441" type="line" smooth="yes"/>
      <point x="184" y="-525"/>
      <point x="257" y="-560"/>
      <point x="318" y="-560" type="curve" smooth="yes"/>
      <point x="394" y="-560"/>
      <point x="475" y="-467"/>
      <point x="445" y="-387" type="curve" smooth="yes"/>
      <point x="373" y="-218"/>
      <point x="353" y="-43"/>
      <point x="324" y="91" type="curve"/>
      <point x="406" y="0"/>
      <point x="514" y="-20"/>
      <point x="582" y="-20" type="curve" smooth="yes"/>
      <point x="679" y="-20"/>
      <point x="753" y="25"/>
      <point x="830" y="96" type="curve"/>
      <point x="845" y="13"/>
      <point x="901" y="-20"/>
      <point x="980" y="-20" type="curve" smooth="yes"/>
      <point x="1059" y="-20"/>
      <point x="1177" y="14"/>
      <point x="1266" y="65" type="curve"/>
      <point x="1243" y="127" type="line"/>
      <point x="1229" y="122"/>
      <point x="1207" y="113"/>
      <point x="1184" y="113" type="curve" smooth="yes"/>
      <point x="1137" y="113"/>
      <point x="1084" y="149"/>
      <point x="1084" y="320" type="curve" smooth="yes"/>
      <point x="1084" y="1023" type="line"/>
    </contour>
  </outline>
</glyph>
<glyph name="paragraph" format="1">
  <advance width="1707"/>
  <unicode hex="00B6"/>
  <outline>
    <contour>
      <point x="804" y="1684" type="line" name="hr01"/>
      <point x="768" y="1606" type="line"/>
      <point x="1520" y="1606" type="line"/>
      <point x="1520" y="1684" type="line"/>
    </contour>
    <contour>
      <point x="1189" y="-302" type="line"/>
      <point x="1349" y="-302" type="line"/>
      <point x="1349" y="1655" type="line" name="hr02"/>
      <point x="1190" y="1655" type="line"/>
    </contour>
    <contour>
      <point x="804" y="1684" type="line" name="hr03"/>
      <point x="470" y="1684"/>
      <point x="220" y="1513"/>
      <point x="220" y="1176" type="curve" smooth="yes"/>
      <point x="220" y="870"/>
      <point x="436" y="666"/>
      <point x="804" y="666" type="curve"/>
    </contour>
    <contour>
      <point x="798" y="-302" type="line" name="hr04"/>
      <point x="958" y="-302" type="line"/>
      <point x="958" y="1655" type="line"/>
      <point x="799" y="1655" type="line"/>
    </contour>
  </outline>
</glyph>
<glyph name="periodcentered" format="1">
  <advance width="683"/>
  <unicode hex="00B7"/>
  <outline>
    <contour>
      <point x="341" y="608" type="curve" smooth="yes" name="hr00"/>
      <point x="251" y="608"/>
      <point x="182" y="677"/>
      <point x="182" y="767" type="curve" smooth="yes"/>
      <point x="182" y="858"/>
      <point x="251" y="928"/>
      <point x="341" y="928" type="curve" smooth="yes"/>
      <point x="432" y="928"/>
      <point x="501" y="858"/>
      <point x="501" y="767" type="curve" smooth="yes"/>
      <point x="501" y="677"/>
      <point x="432" y="608"/>
    </contour>
  </outline>
</glyph>
<glyph name="cedilla" format="1">
  <advance width="1707"/>
  <unicode hex="00B8"/>
  <outline>
    <contour>
      <point x="493" y="17" type="line" name="hr00"/>
      <point x="438" y="-252" type="line"/>
      <point x="462" y="-249"/>
      <point x="506" y="-247"/>
      <point x="527" y="-247" type="curve" smooth="yes"/>
      <point x="616" y="-247"/>
      <point x="673" y="-275"/>
      <point x="673" y="-332" type="curve" smooth="yes"/>
      <point x="673" y="-444"/>
      <point x="493" y="-476"/>
      <point x="386" y="-485" type="curve"/>
      <point x="394" y="-560" type="line"/>
      <point x="580" y="-560"/>
      <point x="850" y="-459"/>
      <point x="850" y="-291" type="curve" smooth="yes"/>
      <point x="850" y="-137"/>
      <point x="668" y="-121"/>
      <point x="559" y="-127" type="curve"/>
      <point x="586" y="14" type="line"/>
    </contour>
    <contour>
      <point x="561" y="-300" type="move" name="_btm"/>
    </contour>
  </outline>
</glyph>
<glyph name="onesuperior" format="1">
  <advance width="854"/>
  <unicode hex="00B9"/>
  <outline>
    <contour>
      <point x="205" y="963" type="line" name="hr00"/>
      <point x="642" y="963" type="line"/>
      <point x="642" y="1022" type="line"/>
      <point x="509" y="1022" type="line"/>
      <point x="509" y="1683" type="line"/>
      <point x="210" y="1673" type="line"/>
      <point x="210" y="1619" type="line"/>
      <point x="323" y="1617" type="line"/>
      <point x="323" y="1022" type="line"/>
      <point x="205" y="1022" type="line"/>
    </contour>
  </outline>
</glyph>
<glyph name="ordmasculine" format="1">
  <advance width="1028"/>
  <unicode hex="00BA"/>
  <outline>
    <contour>
      <point x="151" y="1372" type="curve" smooth="yes" name="hr00"/>
      <point x="151" y="1175"/>
      <point x="309" y="1040"/>
      <point x="514" y="1040" type="curve" smooth="yes"/>
      <point x="724" y="1040"/>
      <point x="876" y="1175"/>
      <point x="876" y="1372" type="curve" smooth="yes"/>
      <point x="876" y="1563"/>
      <point x="723" y="1696"/>
      <point x="514" y="1696" type="curve" smooth="yes"/>
      <point x="309" y="1696"/>
      <point x="151" y="1563"/>
    </contour>
    <contour>
      <point x="362" y="1372" type="curve" smooth="yes"/>
      <point x="362" y="1517"/>
      <point x="392" y="1633"/>
      <point x="514" y="1633" type="curve" smooth="yes"/>
      <point x="636" y="1633"/>
      <point x="664" y="1517"/>
      <point x="664" y="1372" type="curve" smooth="yes"/>
      <point x="664" y="1225"/>
      <point x="636" y="1102"/>
      <point x="514" y="1102" type="curve" smooth="yes"/>
      <point x="392" y="1102"/>
      <point x="362" y="1225"/>
    </contour>
  </outline>
</glyph>
<glyph name="threequarters" format="1">
  <advance width="1712"/>
  <unicode hex="00BE"/>
  <outline>
    <contour>
      <point x="893" y="238" type="line" name="hr00"/>
      <point x="893" y="174" type="line"/>
      <point x="1218" y="174" type="line"/>
      <point x="1218" y="58" type="line"/>
      <point x="1085" y="58" type="line"/>
      <point x="1085" y="-1" type="line"/>
      <point x="1522" y="-1" type="line"/>
      <point x="1522" y="58" type="line"/>
      <point x="1404" y="58" type="line"/>
      <point x="1404" y="174" type="line"/>
      <point x="1510" y="174" type="line"/>
      <point x="1542" y="238" type="line"/>
      <point x="1405" y="238" type="line"/>
      <point x="1405" y="719" type="line"/>
      <point x="1245" y="719" type="line"/>
    </contour>
    <contour>
      <point x="975" y="238" type="line"/>
      <point x="1289" y="669" type="line"/>
      <point x="1218" y="670" type="line"/>
      <point x="1218" y="238" type="line"/>
    </contour>
    <component base="threesuperior" xOffset="34" yOffset="-149"/>
    <component base="fraction" xOffset="4"/>
  </outline>
</glyph>
<glyph name="AE" format="1">
  <advance width="2218"/>
  <unicode hex="00C6"/>
  <outline>
    <contour>
      <point x="493" y="804" type="line" name="hr01"/>
      <point x="493" y="725" type="line"/>
      <point x="1189" y="725" type="line"/>
      <point x="1189" y="804" type="line"/>
    </contour>
    <contour>
      <point x="-109" y="78" type="line"/>
      <point x="-109" y="0" type="line" name="hr02"/>
      <point x="340" y="0" type="line"/>
      <point x="340" y="78" type="line" name="hr03"/>
    </contour>
    <contour>
      <point x="1017" y="1519" type="line"/>
      <point x="912" y="1519" type="line"/>
      <point x="30" y="66" type="line"/>
      <point x="128" y="35" type="line"/>
    </contour>
    <contour>
      <point x="958" y="59" type="line"/>
      <point x="1228" y="59" type="line"/>
      <point x="1228" y="1502" type="line"/>
      <point x="959" y="1501" type="line"/>
    </contour>
    <contour>
      <point x="2064" y="465" type="line"/>
      <point x="1986" y="465" type="line"/>
      <point x="1972" y="267"/>
      <point x="1917" y="78"/>
      <point x="1646" y="78" type="curve" smooth="yes"/>
      <point x="748" y="79" type="line"/>
      <point x="748" y="0" type="line" name="hr04"/>
      <point x="2064" y="0" type="line"/>
    </contour>
    <contour>
      <point x="1468" y="725" type="line" smooth="yes"/>
      <point x="1578" y="725"/>
      <point x="1641" y="692"/>
      <point x="1654" y="601" type="curve" smooth="yes"/>
      <point x="1657" y="575"/>
      <point x="1659" y="528"/>
      <point x="1661" y="498" type="curve"/>
      <point x="1745" y="498" type="line"/>
      <point x="1745" y="1014" type="line"/>
      <point x="1661" y="1014" type="line"/>
      <point x="1659" y="985"/>
      <point x="1657" y="953"/>
      <point x="1654" y="927" type="curve" smooth="yes"/>
      <point x="1641" y="836"/>
      <point x="1580" y="803"/>
      <point x="1468" y="803" type="curve" smooth="yes"/>
      <point x="1104" y="803" type="line"/>
      <point x="1104" y="725" type="line"/>
    </contour>
    <contour>
      <point x="2041" y="1530" type="line" name="hr05"/>
      <point x="748" y="1530" type="line"/>
      <point x="748" y="1452" type="line"/>
      <point x="1675" y="1452" type="line"/>
      <point x="1935" y="1439"/>
      <point x="1950" y="1315"/>
      <point x="1963" y="1094" type="curve"/>
      <point x="2041" y="1094" type="line"/>
    </contour>
    <contour>
      <point x="1428" y="1600" type="move" name="top"/>
    </contour>
  </outline>
</glyph>
<glyph name="multiply" format="1">
  <advance width="1536"/>
  <unicode hex="00D7"/>
  <outline>
    <contour>
      <point x="452" y="931" type="line" name="hr00"/>
      <point x="381" y="860" type="line"/>
      <point x="1086" y="156" type="line"/>
      <point x="1156" y="228" type="line"/>
    </contour>
    <contour>
      <point x="381" y="228" type="line"/>
      <point x="451" y="156" type="line"/>
      <point x="1156" y="860" type="line"/>
      <point x="1085" y="931" type="line"/>
    </contour>
  </outline>
</glyph>
<glyph name="Oslash" format="1">
  <advance width="1711"/>
  <unicode hex="00D8"/>
  <outline>
    <contour>
      <point x="266" y="-9" type="line" name="hr00"/>
      <point x="428" y="187" type="line"/>
      <point x="466" y="221" type="line"/>
      <point x="879" y="722" type="line"/>
      <point x="1321" y="1235" type="line"/>
      <point x="1381" y="1295" type="line"/>
      <point x="1525" y="1462" type="line"/>
      <point x="1433" y="1540" type="line"/>
      <point x="1301" y="1380" type="line"/>
      <point x="1236" y="1312" type="line"/>
      <point x="807" y="790" type="line"/>
      <point x="400" y="319" type="line"/>
      <point x="324" y="242" type="line"/>
      <point x="174" y="69" type="line"/>
    </contour>
    <component base="O"/>
  </outline>
</glyph>
<glyph name="Thorn" format="1">
  <advance width="1364"/>
  <unicode hex="00DE"/>
  <outline>
    <contour>
      <point x="222" y="59" type="line" name="hr01"/>
      <point x="492" y="59" type="line"/>
      <point x="492" y="1502" type="line" name="hr02"/>
      <point x="223" y="1501" type="line"/>
    </contour>
    <contour>
      <point x="454" y="317" type="line"/>
      <point x="675" y="317" type="line" smooth="yes"/>
      <point x="1109" y="317"/>
      <point x="1310" y="517"/>
      <point x="1310" y="797" type="curve" smooth="yes"/>
      <point x="1310" y="1052"/>
      <point x="1133" y="1226"/>
      <point x="671" y="1226" type="curve" smooth="yes"/>
      <point x="361" y="1226" type="line"/>
      <point x="361" y="1157" type="line"/>
      <point x="702" y="1157" type="line" smooth="yes"/>
      <point x="935" y="1157"/>
      <point x="1029" y="1001"/>
      <point x="1029" y="786" type="curve" smooth="yes"/>
      <point x="1029" y="629"/>
      <point x="968" y="386"/>
      <point x="700" y="386" type="curve" smooth="yes"/>
      <point x="462" y="386" type="line"/>
    </contour>
    <contour>
      <point x="51" y="78" type="line"/>
      <point x="51" y="0" type="line" name="hr03"/>
      <point x="705" y="0" type="line"/>
      <point x="705" y="78" type="line" name="hr04"/>
    </contour>
    <contour>
      <point x="51" y="1530" type="line"/>
      <point x="51" y="1452" type="line"/>
      <point x="705" y="1452" type="line"/>
      <point x="705" y="1530" type="line"/>
    </contour>
  </outline>
</glyph>
<glyph name="germandbls" format="1">
  <advance width="1366"/>
  <unicode hex="00DF"/>
  <outline>
    <contour>
      <point x="792" y="885" type="curve" smooth="yes" name="hr00"/>
      <point x="792" y="823"/>
      <point x="985" y="723"/>
      <point x="1057" y="686" type="curve" smooth="yes"/>
      <point x="1286" y="569"/>
      <point x="1334" y="478"/>
      <point x="1334" y="356" type="curve" smooth="yes"/>
      <point x="1334" y="152"/>
      <point x="1186" y="-20"/>
      <point x="926" y="-20" type="curve" smooth="yes"/>
      <point x="746" y="-20"/>
      <point x="606" y="63"/>
      <point x="586" y="148" type="curve"/>
      <point x="590" y="192"/>
      <point x="638" y="243"/>
      <point x="684" y="252" type="curve"/>
      <point x="724" y="176"/>
      <point x="825" y="65"/>
      <point x="945" y="65" type="curve" smooth="yes"/>
      <point x="1061" y="65"/>
      <point x="1160" y="120"/>
      <point x="1160" y="242" type="curve" smooth="yes"/>
      <point x="1160" y="338"/>
      <point x="1044" y="394"/>
      <point x="910" y="464" type="curve" smooth="yes"/>
      <point x="780" y="532"/>
      <point x="632" y="617"/>
      <point x="632" y="787" type="curve" smooth="yes"/>
      <point x="632" y="1026"/>
      <point x="908" y="1041"/>
      <point x="908" y="1336" type="curve" smooth="yes"/>
      <point x="908" y="1536"/>
      <point x="806" y="1615"/>
      <point x="689" y="1615" type="curve" smooth="yes"/>
      <point x="530" y="1615"/>
      <point x="461" y="1455"/>
      <point x="461" y="1187" type="curve" smooth="yes"/>
      <point x="461" y="0" type="line"/>
      <point x="47" y="0" type="line"/>
      <point x="47" y="78" type="line"/>
      <point x="200" y="78" type="line"/>
      <point x="200" y="945" type="line"/>
      <point x="22" y="945" type="line"/>
      <point x="22" y="1023" type="line"/>
      <point x="200" y="1023" type="line"/>
      <point x="200" y="1105" type="line" smooth="yes"/>
      <point x="200" y="1451"/>
      <point x="395" y="1684"/>
      <point x="720" y="1684" type="curve" smooth="yes"/>
      <point x="1011" y="1684"/>
      <point x="1163" y="1535"/>
      <point x="1163" y="1374" type="curve" smooth="yes"/>
      <point x="1163" y="1030"/>
      <point x="792" y="1058"/>
    </contour>
  </outline>
</glyph>
<glyph name="ae" format="1">
  <advance width="1707"/>
  <unicode hex="00E6"/>
  <outline>
    <contour>
      <point x="756" y="186" type="line" name="hr01"/>
      <point x="841" y="48"/>
      <point x="974" y="-20"/>
      <point x="1217" y="-20" type="curve" smooth="yes"/>
      <point x="1382" y="-20"/>
      <point x="1532" y="65"/>
      <point x="1619" y="175" type="curve"/>
      <point x="1566" y="223" type="line"/>
      <point x="1469" y="124"/>
      <point x="1356" y="75"/>
      <point x="1248" y="75" type="curve" smooth="yes"/>
      <point x="1043" y="75"/>
      <point x="944" y="262"/>
      <point x="944" y="514" type="curve" smooth="yes"/>
      <point x="944" y="784"/>
      <point x="1016" y="955"/>
      <point x="1184" y="955" type="curve" smooth="yes" name="hr02"/>
      <point x="1313" y="955"/>
      <point x="1369" y="839"/>
      <point x="1372" y="626" type="curve"/>
      <point x="868" y="626" type="line"/>
      <point x="868" y="544" type="line"/>
      <point x="1639" y="544" type="line"/>
      <point x="1639" y="852"/>
      <point x="1492" y="1039"/>
      <point x="1194" y="1039" type="curve" smooth="yes" name="hr03"/>
      <point x="1029" y="1039"/>
      <point x="885" y="970"/>
      <point x="811" y="842" type="curve"/>
      <point x="777" y="800"/>
      <point x="743" y="755"/>
      <point x="719" y="706" type="curve"/>
    </contour>
    <contour>
      <point x="686" y="425" type="line"/>
      <point x="689" y="407" type="line"/>
      <point x="689" y="136" type="line"/>
      <point x="776" y="186" type="line"/>
      <point x="944" y="258" type="line"/>
      <point x="944" y="694" type="line" smooth="yes"/>
      <point x="944" y="911"/>
      <point x="803" y="1039"/>
      <point x="503" y="1039" type="curve" smooth="yes"/>
      <point x="353" y="1039"/>
      <point x="106" y="961"/>
      <point x="106" y="800" type="curve" smooth="yes"/>
      <point x="106" y="711"/>
      <point x="168" y="662"/>
      <point x="241" y="662" type="curve" smooth="yes"/>
      <point x="309" y="662"/>
      <point x="374" y="713"/>
      <point x="374" y="793" type="curve" smooth="yes"/>
      <point x="374" y="859"/>
      <point x="321" y="899"/>
      <point x="295" y="908" type="curve"/>
      <point x="316" y="929"/>
      <point x="389" y="961"/>
      <point x="481" y="961" type="curve" smooth="yes"/>
      <point x="653" y="961"/>
      <point x="686" y="867"/>
      <point x="686" y="720" type="curve" smooth="yes"/>
    </contour>
    <contour>
      <point x="761" y="441" type="line"/>
      <point x="702" y="506"/>
      <point x="598" y="565"/>
      <point x="435" y="565" type="curve" smooth="yes"/>
      <point x="229" y="565"/>
      <point x="64" y="461"/>
      <point x="64" y="282" type="curve" smooth="yes" name="hr04"/>
      <point x="64" y="96"/>
      <point x="213" y="-20"/>
      <point x="434" y="-20" type="curve" smooth="yes"/>
      <point x="627" y="-20"/>
      <point x="810" y="99"/>
      <point x="789" y="225" type="curve"/>
      <point x="689" y="160" type="line" name="hr05"/>
      <point x="682" y="142"/>
      <point x="628" y="78"/>
      <point x="492" y="78" type="curve" smooth="yes"/>
      <point x="406" y="78"/>
      <point x="330" y="122"/>
      <point x="330" y="276" type="curve" smooth="yes"/>
      <point x="330" y="416"/>
      <point x="404" y="476"/>
      <point x="518" y="476" type="curve" smooth="yes"/>
      <point x="622" y="476"/>
      <point x="721" y="415"/>
      <point x="761" y="337" type="curve"/>
    </contour>
    <contour>
      <point x="850" y="1200" type="move" name="top"/>
    </contour>
  </outline>
</glyph>
<glyph name="idieresis" format="1">
  <advance width="683"/>
  <unicode hex="00EF"/>
  <outline>
    <contour>
      <point x="47" y="1365" type="curve" smooth="yes" name="hr00"/>
      <point x="47" y="1297"/>
      <point x="102" y="1244"/>
      <point x="170" y="1244" type="curve" smooth="yes"/>
      <point x="238" y="1244"/>
      <point x="294" y="1297"/>
      <point x="294" y="1365" type="curve" smooth="yes"/>
      <point x="294" y="1433"/>
      <point x="238" y="1487"/>
      <point x="170" y="1487" type="curve" smooth="yes"/>
      <point x="102" y="1487"/>
      <point x="47" y="1433"/>
    </contour>
    <contour>
      <point x="409" y="1365" type="curve" smooth="yes"/>
      <point x="409" y="1297"/>
      <point x="464" y="1244"/>
      <point x="532" y="1244" type="curve" smooth="yes"/>
      <point x="600" y="1244"/>
      <point x="656" y="1297"/>
      <point x="656" y="1365" type="curve" smooth="yes"/>
      <point x="656" y="1433"/>
      <point x="600" y="1487"/>
      <point x="532" y="1487" type="curve" smooth="yes"/>
      <point x="464" y="1487"/>
      <point x="409" y="1433"/>
    </contour>
    <component base="dotlessi"/>
  </outline>
</glyph>
<glyph name="eth" format="1">
  <advance width="1362"/>
  <unicode hex="00F0"/>
  <outline>
    <contour>
      <point x="911" y="1751" type="line" name="hr01"/>
      <point x="971" y="1682" type="line"/>
      <point x="458" y="1237" type="line"/>
      <point x="397" y="1306" type="line"/>
    </contour>
    <contour>
      <point x="315" y="1684" type="line"/>
      <point x="915" y="1604"/>
      <point x="1234" y="1061"/>
      <point x="1216" y="560" type="curve" smooth="yes"/>
      <point x="1202" y="144"/>
      <point x="971" y="-20"/>
      <point x="680" y="-20" type="curve" smooth="yes"/>
      <point x="384" y="-20"/>
      <point x="145" y="191"/>
      <point x="145" y="515" type="curve" smooth="yes"/>
      <point x="145" y="831"/>
      <point x="385" y="1040"/>
      <point x="680" y="1040" type="curve" smooth="yes"/>
      <point x="761" y="1040"/>
      <point x="849" y="1023"/>
      <point x="910" y="990" type="curve"/>
      <point x="840" y="1318"/>
      <point x="591" y="1550"/>
      <point x="295" y="1605" type="curve"/>
    </contour>
    <contour>
      <point x="423" y="515" type="curve" smooth="yes" name="hr02"/>
      <point x="423" y="261"/>
      <point x="480" y="65"/>
      <point x="680" y="65" type="curve" smooth="yes"/>
      <point x="880" y="65"/>
      <point x="952" y="251"/>
      <point x="952" y="505" type="curve" smooth="yes"/>
      <point x="952" y="693"/>
      <point x="911" y="955"/>
      <point x="680" y="955" type="curve" smooth="yes"/>
      <point x="480" y="955"/>
      <point x="423" y="767"/>
    </contour>
  </outline>
</glyph>
<glyph name="divide" format="1">
  <advance width="1536"/>
  <unicode hex="00F7"/>
  <outline>
    <contour>
      <point x="768" y="350" type="curve" smooth="yes" name="hr00"/>
      <point x="839" y="350"/>
      <point x="895" y="294"/>
      <point x="895" y="223" type="curve" smooth="yes"/>
      <point x="895" y="151"/>
      <point x="839" y="95"/>
      <point x="768" y="95" type="curve" smooth="yes"/>
      <point x="696" y="95"/>
      <point x="641" y="151"/>
      <point x="641" y="223" type="curve" smooth="yes"/>
      <point x="641" y="294"/>
      <point x="696" y="350"/>
    </contour>
    <contour>
      <point x="767" y="1091" type="curve" smooth="yes"/>
      <point x="838" y="1091"/>
      <point x="894" y="1035"/>
      <point x="894" y="964" type="curve" smooth="yes"/>
      <point x="894" y="892"/>
      <point x="838" y="836"/>
      <point x="767" y="836" type="curve" smooth="yes"/>
      <point x="695" y="836"/>
      <point x="640" y="892"/>
      <point x="640" y="964" type="curve" smooth="yes"/>
      <point x="640" y="1035"/>
      <point x="695" y="1091"/>
    </contour>
    <contour>
      <point x="270" y="646" type="line"/>
      <point x="270" y="546" type="line"/>
      <point x="1266" y="546" type="line"/>
      <point x="1266" y="646" type="line"/>
    </contour>
  </outline>
</glyph>
<glyph name="oslash" format="1">
  <advance width="1194"/>
  <unicode hex="00F8"/>
  <outline>
    <contour>
      <point x="126" y="3" type="line" name="hr00"/>
      <point x="272" y="152" type="line"/>
      <point x="337" y="189" type="line"/>
      <point x="608" y="485" type="line"/>
      <point x="871" y="760" type="line"/>
      <point x="970" y="840" type="line"/>
      <point x="1114" y="976" type="line"/>
      <point x="1040" y="1039" type="line"/>
      <point x="908" y="908" type="line"/>
      <point x="834" y="849" type="line"/>
      <point x="559" y="543" type="line"/>
      <point x="301" y="272" type="line"/>
      <point x="226" y="226" type="line"/>
      <point x="61" y="66" type="line"/>
    </contour>
    <component base="o"/>
  </outline>
</glyph>
<glyph name="thorn" format="1">
  <advance width="1365"/>
  <unicode hex="00FE"/>
  <outline>
    <contour>
      <point x="472" y="-482" type="line" name="hr00"/>
      <point x="652" y="-482" type="line"/>
      <point x="652" y="-560" type="line"/>
      <point x="61" y="-560" type="line"/>
      <point x="61" y="-482" type="line"/>
      <point x="211" y="-482" type="line"/>
      <point x="212" y="1604" type="line"/>
      <point x="62" y="1604" type="line"/>
      <point x="62" y="1684" type="line"/>
      <point x="472" y="1684" type="line"/>
    </contour>
    <contour>
      <point x="429" y="239" type="line"/>
      <point x="487" y="128"/>
      <point x="626" y="66"/>
      <point x="738" y="66" type="curve" smooth="yes"/>
      <point x="889" y="66"/>
      <point x="999" y="181"/>
      <point x="999" y="506" type="curve" smooth="yes"/>
      <point x="999" y="887"/>
      <point x="855" y="949"/>
      <point x="739" y="948" type="curve" smooth="yes"/>
      <point x="610" y="946"/>
      <point x="495" y="860"/>
      <point x="441" y="738" type="curve"/>
      <point x="435" y="864" type="line"/>
      <point x="473" y="941"/>
      <point x="607" y="1040"/>
      <point x="807" y="1040" type="curve" smooth="yes"/>
      <point x="1065" y="1040"/>
      <point x="1279" y="882"/>
      <point x="1279" y="507" type="curve" smooth="yes"/>
      <point x="1279" y="175"/>
      <point x="1047" y="-20"/>
      <point x="780" y="-20" type="curve" smooth="yes"/>
      <point x="645" y="-20"/>
      <point x="499" y="31"/>
      <point x="438" y="105" type="curve"/>
    </contour>
  </outline>
</glyph>
<glyph name="Aogonek" format="1">
  <advance width="1534"/>
  <unicode hex="0104"/>
  <outline>
    <contour>
      <point x="1379" y="87" type="line" name="hr00"/>
      <point x="1301" y="42" type="line"/>
      <point x="1168" y="1"/>
      <point x="893" y="-166"/>
      <point x="893" y="-352" type="curve" smooth="yes"/>
      <point x="893" y="-498"/>
      <point x="1001" y="-555"/>
      <point x="1166" y="-555" type="curve" smooth="yes"/>
      <point x="1319" y="-555"/>
      <point x="1464" y="-434"/>
      <point x="1491" y="-390" type="curve"/>
      <point x="1444" y="-338" type="line"/>
      <point x="1410" y="-382"/>
      <point x="1332" y="-439"/>
      <point x="1261" y="-439" type="curve" smooth="yes"/>
      <point x="1185" y="-439"/>
      <point x="1137" y="-376"/>
      <point x="1137" y="-289" type="curve" smooth="yes"/>
      <point x="1137" y="-178"/>
      <point x="1272" y="-43"/>
      <point x="1439" y="38" type="curve"/>
    </contour>
    <component base="A"/>
  </outline>
</glyph>
<glyph name="aogonek" format="1">
  <advance width="1195"/>
  <unicode hex="0105"/>
  <outline>
    <contour>
      <point x="1062" y="47" type="line" name="hr00"/>
      <point x="1014" y="42" type="line"/>
      <point x="881" y="1"/>
      <point x="576" y="-166"/>
      <point x="576" y="-352" type="curve" smooth="yes"/>
      <point x="576" y="-498"/>
      <point x="684" y="-555"/>
      <point x="849" y="-555" type="curve" smooth="yes"/>
      <point x="1002" y="-555"/>
      <point x="1147" y="-434"/>
      <point x="1174" y="-390" type="curve"/>
      <point x="1127" y="-338" type="line"/>
      <point x="1093" y="-382"/>
      <point x="1015" y="-439"/>
      <point x="944" y="-439" type="curve" smooth="yes"/>
      <point x="868" y="-439"/>
      <point x="820" y="-376"/>
      <point x="820" y="-289" type="curve" smooth="yes"/>
      <point x="820" y="-178"/>
      <point x="970" y="-53"/>
      <point x="1106" y="20" type="curve"/>
    </contour>
    <component base="a"/>
  </outline>
</glyph>
<glyph name="dcroat" format="1">
  <advance width="1365"/>
  <unicode hex="0111"/>
  <outline>
    <contour>
      <point x="685" y="1247" type="line" name="hr00"/>
      <point x="1332" y="1247" type="line"/>
      <point x="1332" y="1325" type="line"/>
      <point x="685" y="1325" type="line"/>
    </contour>
    <component base="d"/>
  </outline>
</glyph>
<glyph name="Eogonek" format="1">
  <advance width="1535"/>
  <unicode hex="0118"/>
  <outline>
    <contour>
      <point x="1318" y="111" type="line" name="hr00"/>
      <point x="1197" y="42" type="line"/>
      <point x="1064" y="1"/>
      <point x="789" y="-166"/>
      <point x="789" y="-352" type="curve" smooth="yes"/>
      <point x="789" y="-498"/>
      <point x="897" y="-555"/>
      <point x="1062" y="-555" type="curve" smooth="yes"/>
      <point x="1215" y="-555"/>
      <point x="1360" y="-434"/>
      <point x="1387" y="-390" type="curve"/>
      <point x="1340" y="-338" type="line"/>
      <point x="1306" y="-382"/>
      <point x="1228" y="-439"/>
      <point x="1157" y="-439" type="curve" smooth="yes"/>
      <point x="1081" y="-439"/>
      <point x="1033" y="-376"/>
      <point x="1033" y="-289" type="curve" smooth="yes"/>
      <point x="1033" y="-168"/>
      <point x="1108" y="-76"/>
      <point x="1369" y="84" type="curve" smooth="yes"/>
      <point x="1402" y="104"/>
      <point x="1332" y="94"/>
      <point x="1330" y="96" type="curve" smooth="yes"/>
    </contour>
    <component base="E"/>
  </outline>
</glyph>
<glyph name="eogonek" format="1">
  <advance width="1194"/>
  <unicode hex="0119"/>
  <outline>
    <contour>
      <point x="97" y="518" type="curve" smooth="yes" name="hr00"/>
      <point x="97" y="210"/>
      <point x="311" y="-20"/>
      <point x="649" y="-20" type="curve" smooth="yes"/>
      <point x="818" y="-20"/>
      <point x="972" y="65"/>
      <point x="1061" y="175" type="curve"/>
      <point x="1010" y="223" type="line"/>
      <point x="910" y="123"/>
      <point x="791" y="75"/>
      <point x="680" y="75" type="curve" smooth="yes"/>
      <point x="468" y="75"/>
      <point x="374" y="262"/>
      <point x="374" y="514" type="curve" smooth="yes"/>
      <point x="374" y="784"/>
      <point x="441" y="961"/>
      <point x="616" y="961" type="curve" smooth="yes"/>
      <point x="752" y="961"/>
      <point x="811" y="839"/>
      <point x="814" y="626" type="curve"/>
      <point x="290" y="626" type="line"/>
      <point x="290" y="544" type="line"/>
      <point x="1081" y="544" type="line"/>
      <point x="1081" y="852"/>
      <point x="931" y="1039"/>
      <point x="626" y="1039" type="curve" smooth="yes"/>
      <point x="324" y="1039"/>
      <point x="97" y="823"/>
    </contour>
    <contour>
      <point x="918" y="117" type="line"/>
      <point x="805" y="35" type="line"/>
      <point x="687" y="-20"/>
      <point x="443" y="-166"/>
      <point x="443" y="-352" type="curve" smooth="yes"/>
      <point x="443" y="-498"/>
      <point x="551" y="-555"/>
      <point x="716" y="-555" type="curve" smooth="yes"/>
      <point x="869" y="-555"/>
      <point x="1014" y="-434"/>
      <point x="1041" y="-390" type="curve"/>
      <point x="994" y="-338" type="line"/>
      <point x="960" y="-382"/>
      <point x="882" y="-439"/>
      <point x="811" y="-439" type="curve" smooth="yes"/>
      <point x="735" y="-439"/>
      <point x="687" y="-376"/>
      <point x="687" y="-289" type="curve" smooth="yes"/>
      <point x="687" y="-168"/>
      <point x="756" y="-96"/>
      <point x="982" y="97" type="curve" smooth="yes"/>
      <point x="1011" y="122"/>
      <point x="934" y="102"/>
      <point x="932" y="104" type="curve" smooth="yes"/>
    </contour>
  </outline>
</glyph>
<glyph name="Hbar" format="1">
  <advance width="1707"/>
  <unicode hex="0126"/>
  <outline>
    <contour>
      <point x="56" y="1069" type="line" name="hr00"/>
      <point x="1648" y="1069" type="line"/>
      <point x="1648" y="1147" type="line"/>
      <point x="56" y="1147" type="line"/>
    </contour>
    <component base="H"/>
  </outline>
</glyph>
<glyph name="hbar" format="1">
  <advance width="1363"/>
  <unicode hex="0127"/>
  <outline>
    <contour>
      <point x="45" y="1190" type="line" name="hr00"/>
      <point x="692" y="1190" type="line"/>
      <point x="692" y="1267" type="line"/>
      <point x="45" y="1267" type="line"/>
    </contour>
    <component base="h"/>
  </outline>
</glyph>
<glyph name="itilde" format="1">
  <advance width="683"/>
  <unicode hex="0129"/>
  <outline>
    <contour>
      <point x="628" y="1506" type="line" name="hr01"/>
      <point x="595" y="1460"/>
      <point x="558" y="1419"/>
      <point x="476" y="1419" type="curve" smooth="yes"/>
      <point x="412" y="1419"/>
      <point x="337" y="1517"/>
      <point x="250" y="1517" type="curve" smooth="yes" name="hr02"/>
      <point x="129" y="1517"/>
      <point x="47" y="1382"/>
      <point x="-6" y="1286" type="curve"/>
      <point x="40" y="1253" type="line"/>
      <point x="88" y="1306"/>
      <point x="128" y="1342"/>
      <point x="182" y="1342" type="curve" smooth="yes"/>
      <point x="252" y="1342"/>
      <point x="332" y="1239"/>
      <point x="414" y="1239" type="curve" smooth="yes" name="hr03"/>
      <point x="549" y="1239"/>
      <point x="631" y="1380"/>
      <point x="675" y="1475" type="curve"/>
    </contour>
    <component base="dotlessi"/>
  </outline>
</glyph>
<glyph name="Iogonek" format="1">
  <advance width="854"/>
  <unicode hex="012E"/>
  <outline>
    <contour>
      <point x="527" y="87" type="line" name="hr00"/>
      <point x="449" y="42" type="line"/>
      <point x="328" y="1"/>
      <point x="74" y="-166"/>
      <point x="74" y="-352" type="curve" smooth="yes"/>
      <point x="74" y="-498"/>
      <point x="178" y="-555"/>
      <point x="337" y="-555" type="curve" smooth="yes"/>
      <point x="485" y="-555"/>
      <point x="626" y="-434"/>
      <point x="652" y="-390" type="curve"/>
      <point x="605" y="-338" type="line"/>
      <point x="573" y="-382"/>
      <point x="499" y="-439"/>
      <point x="432" y="-439" type="curve" smooth="yes"/>
      <point x="362" y="-439"/>
      <point x="318" y="-376"/>
      <point x="318" y="-289" type="curve" smooth="yes"/>
      <point x="318" y="-178"/>
      <point x="443" y="-43"/>
      <point x="587" y="38" type="curve"/>
    </contour>
    <component base="I"/>
  </outline>
</glyph>
<glyph name="iogonek" format="1">
  <advance width="683"/>
  <unicode hex="012F"/>
  <outline>
    <contour>
      <point x="500" y="87" type="line" name="hr00"/>
      <point x="422" y="42" type="line"/>
      <point x="295" y="1"/>
      <point x="34" y="-166"/>
      <point x="34" y="-352" type="curve" smooth="yes"/>
      <point x="34" y="-498"/>
      <point x="138" y="-555"/>
      <point x="297" y="-555" type="curve" smooth="yes"/>
      <point x="445" y="-555"/>
      <point x="586" y="-434"/>
      <point x="612" y="-390" type="curve"/>
      <point x="565" y="-338" type="line"/>
      <point x="533" y="-382"/>
      <point x="459" y="-439"/>
      <point x="392" y="-439" type="curve" smooth="yes"/>
      <point x="322" y="-439"/>
      <point x="278" y="-376"/>
      <point x="278" y="-289" type="curve" smooth="yes"/>
      <point x="278" y="-178"/>
      <point x="405" y="-43"/>
      <point x="560" y="38" type="curve"/>
    </contour>
    <component base="i"/>
  </outline>
</glyph>
<glyph name="dotlessi" format="1">
  <advance width="683"/>
  <unicode hex="0131"/>
  <outline>
    <contour>
      <point x="61" y="0" type="line" name="hr00"/>
      <point x="650" y="0" type="line"/>
      <point x="650" y="78" type="line"/>
      <point x="488" y="78" type="line"/>
      <point x="488" y="1023" type="line"/>
      <point x="75" y="1023" type="line"/>
      <point x="75" y="945" type="line"/>
      <point x="223" y="945" type="line"/>
      <point x="223" y="78" type="line"/>
      <point x="61" y="78" type="line"/>
    </contour>
    <contour>
      <point x="355" y="1200" type="move" name="top"/>
    </contour>
  </outline>
</glyph>
<glyph name="jcircumflex" format="1">
  <advance width="683"/>
  <unicode hex="0135"/>
  <outline>
    <contour>
      <point x="489" y="1533" type="line" name="hr00"/>
      <point x="470" y="1560"/>
      <point x="426" y="1604"/>
      <point x="373" y="1604" type="curve" smooth="yes"/>
      <point x="324" y="1604"/>
      <point x="289" y="1574"/>
      <point x="264" y="1540" type="curve" smooth="yes"/>
      <point x="18" y="1217" type="line"/>
      <point x="49" y="1184" type="line"/>
      <point x="373" y="1388" type="line"/>
      <point x="687" y="1184" type="line"/>
      <point x="720" y="1215" type="line"/>
    </contour>
    <component base="dotlessj"/>
  </outline>
</glyph>
<glyph name="kgreenlandic" format="1">
  <advance width="1367"/>
  <unicode hex="0138"/>
  <outline>
    <contour>
      <point x="996" y="962" type="line" name="hr01"/>
      <point x="417" y="450" type="line"/>
      <point x="472" y="455" type="line"/>
      <point x="472" y="1023" type="line"/>
      <point x="59" y="1023" type="line"/>
      <point x="59" y="945" type="line"/>
      <point x="212" y="945" type="line"/>
      <point x="212" y="78" type="line"/>
      <point x="59" y="78" type="line"/>
      <point x="59" y="0" type="line"/>
      <point x="620" y="0" type="line"/>
      <point x="620" y="78" type="line"/>
      <point x="472" y="78" type="line"/>
      <point x="472" y="436" type="line"/>
      <point x="424" y="354" type="line"/>
      <point x="1107" y="946" type="line"/>
    </contour>
    <contour>
      <point x="1216" y="946" type="line"/>
      <point x="1216" y="1023" type="line"/>
      <point x="799" y="1023" type="line"/>
      <point x="799" y="946" type="line"/>
    </contour>
    <contour>
      <point x="1243" y="17" type="line" name="hr02"/>
      <point x="754" y="697" type="line"/>
      <point x="562" y="561" type="line"/>
      <point x="944" y="18" type="line"/>
    </contour>
    <contour>
      <point x="762" y="78" type="line" name="hr03"/>
      <point x="762" y="0" type="line"/>
      <point x="1332" y="0" type="line"/>
      <point x="1332" y="78" type="line"/>
    </contour>
  </outline>
</glyph>
<glyph name="lacute" format="1">
  <advance width="683"/>
  <unicode hex="013A"/>
  <outline>
    <contour>
      <point x="54" y="0" type="line" name="hr00"/>
      <point x="643" y="0" type="line"/>
      <point x="643" y="78" type="line"/>
      <point x="481" y="78" type="line"/>
      <point x="481" y="1504" type="line"/>
      <point x="54" y="1504" type="line"/>
      <point x="54" y="1425" type="line"/>
      <point x="216" y="1425" type="line"/>
      <point x="216" y="78" type="line"/>
      <point x="54" y="78" type="line"/>
    </contour>
    <component base="acute.cap" xOffset="-381" yOffset="-1"/>
  </outline>
</glyph>
<glyph name="Ldot" format="1">
  <advance width="1367"/>
  <unicode hex="013F"/>
  <outline>
    <contour>
      <point x="1106" y="843" type="curve" smooth="yes" name="hr00"/>
      <point x="1106" y="771"/>
      <point x="1164" y="713"/>
      <point x="1236" y="713" type="curve" smooth="yes"/>
      <point x="1309" y="713"/>
      <point x="1368" y="771"/>
      <point x="1368" y="843" type="curve" smooth="yes"/>
      <point x="1368" y="916"/>
      <point x="1309" y="975"/>
      <point x="1236" y="975" type="curve" smooth="yes"/>
      <point x="1164" y="975"/>
      <point x="1106" y="916"/>
    </contour>
    <component base="L"/>
  </outline>
</glyph>
<glyph name="ldot" format="1">
  <advance width="856"/>
  <unicode hex="0140"/>
  <outline>
    <contour>
      <point x="651" y="865" type="curve" smooth="yes" name="hr00"/>
      <point x="651" y="793"/>
      <point x="709" y="735"/>
      <point x="781" y="735" type="curve" smooth="yes"/>
      <point x="854" y="735"/>
      <point x="913" y="793"/>
      <point x="913" y="865" type="curve" smooth="yes"/>
      <point x="913" y="938"/>
      <point x="854" y="997"/>
      <point x="781" y="997" type="curve" smooth="yes"/>
      <point x="709" y="997"/>
      <point x="651" y="938"/>
    </contour>
    <component base="l"/>
  </outline>
</glyph>
<glyph name="Lslash" format="1">
  <advance width="1367"/>
  <unicode hex="0141"/>
  <outline>
    <contour>
      <point x="97" y="551" type="line" name="hr00"/>
      <point x="1019" y="1023" type="line"/>
      <point x="986" y="1093" type="line"/>
      <point x="64" y="621" type="line"/>
    </contour>
    <component base="L"/>
  </outline>
</glyph>
<glyph name="lslash" format="1">
  <advance width="683"/>
  <unicode hex="0142"/>
  <outline>
    <contour>
      <point x="67" y="671" type="line" name="hr00"/>
      <point x="689" y="999" type="line"/>
      <point x="645" y="1071" type="line"/>
      <point x="27" y="745" type="line"/>
    </contour>
    <component base="l"/>
  </outline>
</glyph>
<glyph name="Eng" format="1">
  <advance width="1707"/>
  <unicode hex="014A"/>
  <outline>
    <contour>
      <point x="73" y="78" type="line" name="hr01"/>
      <point x="73" y="0" type="line"/>
      <point x="528" y="0" type="line"/>
      <point x="528" y="78" type="line"/>
    </contour>
    <contour>
      <point x="1356" y="0" type="line" smooth="yes"/>
      <point x="1356" y="-195"/>
      <point x="1243" y="-299"/>
      <point x="1074" y="-342" type="curve"/>
      <point x="1096" y="-423" type="line"/>
      <point x="1391" y="-342"/>
      <point x="1454" y="-161"/>
      <point x="1454" y="0" type="curve"/>
      <point x="1356" y="29" type="line"/>
    </contour>
    <contour>
      <point x="258" y="1485" type="line" name="hr02"/>
      <point x="1282" y="0" type="line"/>
      <point x="1454" y="0" type="line"/>
      <point x="1405" y="273" type="line"/>
      <point x="546" y="1530" type="line" name="hr03"/>
      <point x="428" y="1530" type="line"/>
    </contour>
    <contour>
      <point x="1454" y="0" type="line"/>
      <point x="1454" y="1452" type="line"/>
      <point x="1637" y="1452" type="line"/>
      <point x="1637" y="1530" type="line"/>
      <point x="1162" y="1530" type="line"/>
      <point x="1162" y="1452" type="line"/>
      <point x="1356" y="1452" type="line"/>
      <point x="1356" y="35" type="line"/>
    </contour>
    <contour>
      <point x="365" y="35" type="line" name="hr04"/>
      <point x="365" y="1452" type="line"/>
      <point x="522" y="1452" type="line"/>
      <point x="525" y="1530" type="line"/>
      <point x="93" y="1530" type="line"/>
      <point x="93" y="1452" type="line"/>
      <point x="267" y="1452" type="line"/>
      <point x="267" y="35" type="line"/>
    </contour>
    <contour>
      <point x="93" y="78" type="line" name="hr05"/>
      <point x="93" y="0" type="line"/>
      <point x="568" y="0" type="line"/>
      <point x="568" y="78" type="line"/>
    </contour>
  </outline>
</glyph>
